FRBAmericanCursive-SOURCE.ufo
<glyph name=".notdef" format="2">
  <advance width="741"/>
  <unicode hex="0000"/>
  <outline>
    <contour>
      <point x="473.08" y="364" type="curve" smooth="yes"/>
      <point x="473.08" y="382"/>
      <point x="488.2" y="397.12"/>
      <point x="506.2" y="397.12" type="curve" smooth="yes"/>
      <point x="524.2" y="397.12"/>
      <point x="539.32" y="382"/>
      <point x="539.32" y="364" type="curve" smooth="yes"/>
      <point x="539.32" y="346"/>
      <point x="524.2" y="330.88"/>
      <point x="506.2" y="330.88" type="curve" smooth="yes"/>
      <point x="488.2" y="330.88"/>
      <point x="473.08" y="346"/>
    </contour>
    <contour>
      <point x="302.68" y="364" type="curve" smooth="yes"/>
      <point x="302.68" y="382"/>
      <point x="317.8" y="397.12"/>
      <point x="335.8" y="397.12" type="curve" smooth="yes"/>
      <point x="353.8" y="397.12"/>
      <point x="368.92" y="382"/>
      <point x="368.92" y="364" type="curve" smooth="yes"/>
      <point x="368.92" y="346"/>
      <point x="353.8" y="330.88"/>
      <point x="335.8" y="330.88" type="curve" smooth="yes"/>
      <point x="317.8" y="330.88"/>
      <point x="302.68" y="346"/>
    </contour>
    <contour>
      <point x="559.015" y="212.328" type="move"/>
      <point x="527.29" y="172.241"/>
      <point x="478" y="146.527"/>
      <point x="422.788" y="146.527" type="curve"/>
      <point x="367.81" y="146.527"/>
      <point x="318.704" y="173.261"/>
      <point x="286.668" y="214.03" type="curve"/>
    </contour>
    <contour>
      <point x="142.307" y="287.814" type="curve"/>
      <point x="142.307" y="444.088"/>
      <point x="266.416" y="575.723"/>
      <point x="420" y="575.723" type="curve"/>
      <point x="573.584" y="575.723"/>
      <point x="697.695" y="444.088"/>
      <point x="697.695" y="287.814" type="curve"/>
      <point x="697.695" y="127.794"/>
      <point x="573.584" y="0"/>
      <point x="420" y="0" type="curve"/>
      <point x="266.416" y="0"/>
      <point x="142.307" y="127.794"/>
    </contour>
  </outline>
</glyph>
<glyph name="exclam" format="2">
  <advance width="276"/>
  <unicode hex="0021"/>
  <outline>
    <contour>
      <point x="14" y="6" type="curve" smooth="yes"/>
      <point x="14" y="16"/>
      <point x="22" y="24"/>
      <point x="32" y="24" type="curve" smooth="yes"/>
      <point x="42" y="24"/>
      <point x="50" y="16"/>
      <point x="50" y="6" type="curve" smooth="yes"/>
      <point x="50" y="-4"/>
      <point x="42" y="-12"/>
      <point x="32" y="-12" type="curve" smooth="yes"/>
      <point x="22" y="-12"/>
      <point x="14" y="-4"/>
    </contour>
    <contour>
      <point x="262.332" y="522" type="move"/>
      <point x="81.7441" y="139" type="line"/>
    </contour>
  </outline>
</glyph>
<glyph name="quotedbl" format="2">
  <advance width="363"/>
  <unicode hex="0022"/>
  <outline>
    <contour>
      <point x="363" y="540.953" type="move"/>
      <point x="298.205" y="402" type="line"/>
    </contour>
    <contour>
      <point x="270" y="540.953" type="move"/>
      <point x="205.205" y="402" type="line"/>
    </contour>
  </outline>
</glyph>
<glyph name="numbersign" format="2">
  <advance width="471"/>
  <unicode hex="0023"/>
  <outline>
    <contour>
      <point x="79.7041" y="212" type="move"/>
      <point x="388.704" y="212" type="line"/>
    </contour>
    <contour>
      <point x="153" y="368" type="move"/>
      <point x="462" y="368" type="line"/>
    </contour>
    <contour>
      <point x="470.205" y="540.953" type="move"/>
      <point x="217" y="0" type="line"/>
    </contour>
    <contour>
      <point x="310.205" y="540.953" type="move"/>
      <point x="57" y="0" type="line"/>
    </contour>
  </outline>
</glyph>
<glyph name="dollar" format="2">
  <advance width="360"/>
  <unicode hex="0024"/>
  <outline>
    <contour>
      <point x="414" y="540.953" type="move"/>
      <point x="160.351" y="0" type="line"/>
    </contour>
    <contour>
      <point x="334" y="540.953" type="move"/>
      <point x="80.3506" y="0" type="line"/>
    </contour>
    <contour>
      <point x="457.315" y="452.6" type="move"/>
      <point x="457.315" y="457.6"/>
      <point x="419.016" y="515.3"/>
      <point x="362.016" y="515.3" type="curve" smooth="yes"/>
      <point x="286" y="515.3"/>
      <point x="213.06" y="474.048"/>
      <point x="186.188" y="405.1" type="curve" smooth="yes"/>
      <point x="169" y="361"/>
      <point x="185.696" y="303.798"/>
      <point x="259.232" y="303" type="curve" smooth="yes"/>
      <point x="332.904" y="302.2"/>
      <point x="363" y="234"/>
      <point x="345.031" y="184.7" type="curve" smooth="yes"/>
      <point x="301.191" y="64.4199"/>
      <point x="216.554" y="32.7002"/>
      <point x="130.104" y="32.7002" type="curve" smooth="yes"/>
      <point x="76.5098" y="32.7002"/>
      <point x="32.0039" y="84.9502"/>
      <point x="37.0635" y="128.65" type="curve"/>
    </contour>
  </outline>
</glyph>
<glyph name="percent" format="2">
  <advance width="619"/>
  <unicode hex="0025"/>
  <outline>
    <contour>
      <point x="349.014" y="540.953" type="move" smooth="yes"/>
      <point x="322.559" y="540.953"/>
      <point x="230.614" y="516"/>
      <point x="221.093" y="462" type="curve" smooth="yes"/>
      <point x="213.687" y="420"/>
      <point x="237.986" y="382"/>
      <point x="268.986" y="382" type="curve" smooth="yes"/>
      <point x="326.986" y="382"/>
      <point x="395.098" y="428"/>
      <point x="405.324" y="486" type="curve" smooth="yes"/>
      <point x="409.556" y="510"/>
      <point x="409.014" y="540.953"/>
      <point x="385.014" y="540.953" type="curve" smooth="yes"/>
      <point x="357.014" y="540.953"/>
      <point x="311.377" y="526"/>
      <point x="304.324" y="486" type="curve" smooth="yes"/>
      <point x="297.271" y="446"/>
      <point x="322.863" y="421"/>
      <point x="383.863" y="421" type="curve" smooth="yes"/>
      <point x="480.863" y="421"/>
      <point x="633" y="530"/>
      <point x="633" y="530" type="curve"/>
      <point x="97" y="0" type="line"/>
      <point x="417.121" y="166.5" type="line" smooth="yes"/>
      <point x="417.121" y="166.5"/>
      <point x="347.51" y="129.003"/>
      <point x="340.632" y="90" type="curve" smooth="yes"/>
      <point x="333.05" y="46.9971"/>
      <point x="346.263" y="0"/>
      <point x="389.263" y="0" type="curve" smooth="yes"/>
      <point x="446.263" y="0"/>
      <point x="503.168" y="41.998"/>
      <point x="513.219" y="99" type="curve" smooth="yes"/>
      <point x="520.625" y="141.003"/>
      <point x="495.737" y="178.5"/>
      <point x="453.737" y="178.5" type="curve" smooth="yes"/>
      <point x="433.102" y="178.5"/>
      <point x="394.251" y="143.753"/>
      <point x="388.74" y="112.5" type="curve" smooth="yes"/>
      <point x="384.236" y="86.958"/>
      <point x="403.505" y="75.75"/>
      <point x="420.369" y="75.75" type="curve" smooth="yes"/>
      <point x="476.619" y="75.75"/>
      <point x="558" y="171.16"/>
      <point x="619" y="171.16" type="curve" smooth="yes"/>
    </contour>
  </outline>
</glyph>
<glyph name="ampersand" format="2">
  <advance width="284"/>
  <unicode hex="0026"/>
  <outline>
    <contour>
      <point x="289" y="412" type="move"/>
      <point x="43.7227" y="-114" type="line"/>
    </contour>
    <contour>
      <point x="285.141" y="231" type="move" smooth="yes"/>
      <point x="269.29" y="249.095"/>
      <point x="242" y="269.48"/>
      <point x="209" y="269.48" type="curve" smooth="yes"/>
      <point x="165.998" y="269.48"/>
      <point x="113" y="251"/>
      <point x="113" y="208" type="curve" smooth="yes"/>
      <point x="113" y="170"/>
      <point x="223" y="142"/>
      <point x="223" y="142" type="curve"/>
      <point x="223" y="142"/>
      <point x="89.04" y="161"/>
      <point x="55" y="88" type="curve" smooth="yes"/>
      <point x="29.8193" y="34"/>
      <point x="69" y="0"/>
      <point x="99" y="0" type="curve" smooth="yes"/>
      <point x="152" y="0"/>
      <point x="208" y="12"/>
      <point x="247" y="46" type="curve"/>
    </contour>
  </outline>
</glyph>
<glyph name="quotesingle.0len" format="2">
  <advance width="0"/>
  <unicode hex="27"/>
  <outline>
    <contour>
      <point x="173" y="540" type="move"/>
      <point x="108.205" y="401.047" type="line"/>
    </contour>
  </outline>
</glyph>
<glyph name="quotesingle" format="2">
  <advance width="275"/>
  <unicode hex="0027"/>
  <outline>
    <contour>
      <point x="270" y="540.953" type="move"/>
      <point x="205.205" y="402" type="line"/>
    </contour>
  </outline>
</glyph>
<glyph name="parenleft" format="2">
  <advance width="474"/>
  <unicode hex="0028"/>
  <outline>
    <contour>
      <point x="474.125" y="540.953" type="move" smooth="yes"/>
      <point x="405.698" y="540.953"/>
      <point x="229.061" y="410"/>
      <point x="172.171" y="288" type="curve" smooth="yes"/>
      <point x="110.618" y="156"/>
      <point x="147" y="60"/>
      <point x="215.875" y="0" type="curve" smooth="yes"/>
    </contour>
  </outline>
</glyph>
<glyph name="parenright" format="2">
  <advance width="474"/>
  <unicode hex="0029"/>
  <outline>
    <contour>
      <point x="290.125" y="540.953" type="move" smooth="yes"/>
      <point x="358.553" y="540.953"/>
      <point x="413.061" y="410"/>
      <point x="356.171" y="288" type="curve" smooth="yes"/>
      <point x="294.619" y="156"/>
      <point x="131" y="33"/>
      <point x="43.875" y="0" type="curve" smooth="yes"/>
    </contour>
  </outline>
</glyph>
<glyph name="asterisk" format="2">
  <advance width="422"/>
  <unicode hex="002A"/>
  <outline>
    <contour>
      <point x="345.393" y="521" type="move"/>
      <point x="238.607" y="292" type="line"/>
    </contour>
    <contour>
      <point x="422.225" y="477.75" type="move"/>
      <point x="160.377" y="332.25" type="line"/>
    </contour>
    <contour>
      <point x="228.225" y="477.75" type="move"/>
      <point x="354.377" y="332.25" type="line"/>
    </contour>
  </outline>
</glyph>
<glyph name="plus" format="2">
  <advance width="396"/>
  <unicode hex="002B"/>
  <outline>
    <contour>
      <point x="304" y="430" type="move"/>
      <point x="163.175" y="128" type="line"/>
    </contour>
    <contour>
      <point x="118" y="294.48" type="move" smooth="yes"/>
      <point x="396" y="294.48" type="line" smooth="yes"/>
    </contour>
  </outline>
</glyph>
<glyph name="comma" format="2">
  <advance width="64"/>
  <unicode hex="002C"/>
  <unicode hex="201A"/>
  <outline>
    <contour>
      <point x="47.8535" y="40" type="move"/>
      <point x="-11.832" y="-88" type="line"/>
    </contour>
  </outline>
</glyph>
<glyph name="hyphen" format="2">
  <advance width="342"/>
  <unicode hex="002D"/>
  <outline>
    <contour>
      <point x="75" y="142" type="move"/>
      <point x="325" y="142" type="line"/>
    </contour>
  </outline>
</glyph>
<glyph name="period" format="2">
  <advance width="104"/>
  <unicode hex="002E"/>
  <outline>
    <contour>
      <point x="34" y="17" type="curve" smooth="yes"/>
      <point x="34" y="27"/>
      <point x="42" y="35"/>
      <point x="52" y="35" type="curve" smooth="yes"/>
      <point x="62" y="35"/>
      <point x="70" y="27"/>
      <point x="70" y="17" type="curve" smooth="yes"/>
      <point x="70" y="7"/>
      <point x="62" y="-1"/>
      <point x="52" y="-1" type="curve" smooth="yes"/>
      <point x="42" y="-1"/>
      <point x="34" y="7"/>
    </contour>
  </outline>
</glyph>
<glyph name="slash" format="2">
  <advance width="305"/>
  <unicode hex="002F"/>
  <unicode hex="2215"/>
  <outline>
    <contour>
      <point x="532.62" y="540.953" type="move"/>
      <point x="29.4961" y="0" type="line"/>
    </contour>
  </outline>
</glyph>
<glyph name="zero" format="2">
  <advance width="550"/>
  <unicode hex="0030"/>
  <outline>
    <contour>
      <point x="497.356" y="535.344" type="move"/>
      <point x="437.047" y="535.344"/>
      <point x="332.974" y="504.021"/>
      <point x="241.953" y="320" type="curve" smooth="yes"/>
      <point x="179.049" y="193.177"/>
      <point x="164.502" y="-5.27785"/>
      <point x="301.191" y="-5.27785" type="curve" smooth="yes"/>
      <point x="357.694" y="-5.27785"/>
      <point x="469.092" y="25.8212"/>
      <point x="568.953" y="239" type="curve" smooth="yes"/>
      <point x="622.856" y="354.812"/>
      <point x="629.468" y="535.344"/>
      <point x="497.356" y="535.344" type="curve"/>
    </contour>
  </outline>
</glyph>
<glyph name="one" format="2">
  <advance width="550"/>
  <unicode hex="0031"/>
  <outline>
    <contour>
      <point x="534.267" y="554" type="move"/>
      <point x="274.067" y="0" type="line"/>
    </contour>
  </outline>
</glyph>
<glyph name="two" format="2">
  <advance width="550"/>
  <unicode hex="0032"/>
  <outline>
    <contour>
      <point x="338.063" y="581" type="move"/>
      <point x="302.063" y="479" type="line"/>
      <point x="302.063" y="479"/>
      <point x="371.063" y="596"/>
      <point x="470.063" y="536" type="curve" smooth="yes"/>
      <point x="569.063" y="476"/>
      <point x="482.063" y="348"/>
      <point x="381.063" y="254" type="curve" smooth="yes"/>
      <point x="280.063" y="160"/>
      <point x="94.0635" y="-6"/>
      <point x="94.0635" y="-6" type="curve"/>
      <point x="117.285" y="-0.258789"/>
      <point x="320.683" y="75.4115"/>
      <point x="480.063" y="-6" type="curve"/>
    </contour>
  </outline>
</glyph>
<glyph name="three" format="2">
  <advance width="550"/>
  <unicode hex="0033"/>
  <outline>
    <contour>
      <point x="409.303" y="569" type="move"/>
      <point x="364.303" y="502" type="line"/>
      <point x="364.303" y="502"/>
      <point x="423.443" y="542.522"/>
      <point x="478.104" y="542.522" type="curve" smooth="yes"/>
      <point x="534.825" y="542.522"/>
      <point x="574.049" y="483.766"/>
      <point x="574.049" y="438.667" type="curve" smooth="yes"/>
      <point x="574.049" y="348.054"/>
      <point x="439.642" y="295.566"/>
      <point x="372.303" y="278" type="curve" smooth="yes"/>
      <point x="352.224" y="272.762"/>
      <point x="336.563" y="269.96"/>
      <point x="330.287" y="269.96" type="curve"/>
      <point x="335.503" y="269.96"/>
      <point x="364" y="277"/>
      <point x="372.303" y="277" type="curve" smooth="yes"/>
      <point x="408" y="277"/>
      <point x="458.469" y="223.257"/>
      <point x="458.469" y="151.031" type="curve" smooth="yes"/>
      <point x="458.469" y="72"/>
      <point x="367.967" y="0.542969"/>
      <point x="259.049" y="0.542969" type="curve" smooth="yes"/>
      <point x="194.825" y="0.542969"/>
      <point x="135.185" y="27.1074"/>
      <point x="122.303" y="71" type="curve" smooth="yes"/>
    </contour>
  </outline>
</glyph>
<glyph name="four" format="2">
  <advance width="550"/>
  <unicode hex="0034"/>
  <outline>
    <contour>
      <point x="570.748" y="544" type="move"/>
      <point x="315.748" y="0" type="line"/>
    </contour>
    <contour>
      <point x="355.748" y="544" type="move" smooth="yes"/>
      <point x="355.748" y="544"/>
      <point x="173.748" y="226"/>
      <point x="168.748" y="218" type="curve"/>
      <point x="168.748" y="218"/>
      <point x="309.748" y="273"/>
      <point x="602.748" y="257" type="curve" smooth="yes"/>
    </contour>
  </outline>
</glyph>
<glyph name="five" format="2">
  <advance width="550"/>
  <unicode hex="0035"/>
  <outline>
    <contour>
      <point x="740.288" y="544" type="move"/>
      <point x="452.288" y="544" type="line"/>
      <point x="315.288" y="257" type="line"/>
      <point x="315.288" y="257"/>
      <point x="377.486" y="294.176"/>
      <point x="438.411" y="294.176" type="curve" smooth="yes"/>
      <point x="503.409" y="294.176"/>
      <point x="537.413" y="246.853"/>
      <point x="537.413" y="187.532" type="curve" smooth="yes"/>
      <point x="537.413" y="74.4907"/>
      <point x="418.659" y="-7.00836"/>
      <point x="308.545" y="-7.00836" type="curve" smooth="yes"/>
      <point x="175" y="-7.00836"/>
      <point x="99.9466" y="77.1309"/>
      <point x="99.9466" y="77.1309" type="curve" smooth="yes"/>
    </contour>
  </outline>
</glyph>
<glyph name="six" format="2">
  <advance width="550"/>
  <unicode hex="0036"/>
  <outline>
    <contour>
      <point x="525.454" y="544" type="move" smooth="yes"/>
      <point x="330" y="454"/>
      <point x="235.498" y="243.767"/>
      <point x="235.498" y="123.09" type="curve" smooth="yes"/>
      <point x="235.498" y="49.1358"/>
      <point x="277.73" y="-2.02148"/>
      <point x="373.103" y="-2.02148" type="curve" smooth="yes"/>
      <point x="443.362" y="-2.02148"/>
      <point x="540.292" y="69.8789"/>
      <point x="540.292" y="165.09" type="curve" smooth="yes"/>
      <point x="540.292" y="198"/>
      <point x="517" y="220.881"/>
      <point x="486.198" y="220.881" type="curve" smooth="yes"/>
      <point x="456.911" y="220.881"/>
      <point x="344" y="197.629"/>
      <point x="344" y="16.6595" type="curve" smooth="yes"/>
      <point x="344" y="13.773"/>
      <point x="344" y="10.8865"/>
      <point x="344" y="8" type="curve"/>
    </contour>
  </outline>
</glyph>
<glyph name="seven" format="2">
  <advance width="550"/>
  <unicode hex="0037"/>
  <outline>
    <contour>
      <point x="288.626" y="457" type="move"/>
      <point x="328.351" y="537" type="line" smooth="yes"/>
      <point x="328.351" y="537"/>
      <point x="578.351" y="537"/>
      <point x="605.351" y="538" type="curve"/>
      <point x="296.351" y="0" type="line"/>
    </contour>
  </outline>
</glyph>
<glyph name="eight" format="2">
  <advance width="550"/>
  <unicode hex="0038"/>
  <outline>
    <contour>
      <point x="624.395" y="488" type="move" smooth="yes"/>
      <point x="615.395" y="496"/>
      <point x="545.513" y="543.044"/>
      <point x="444.395" y="542" type="curve" smooth="yes"/>
      <point x="389.398" y="541.432"/>
      <point x="349.522" y="519.71"/>
      <point x="327" y="491.651" type="curve" smooth="yes"/>
      <point x="250.946" y="396.898"/>
      <point x="417.395" y="281.66"/>
      <point x="417.395" y="124" type="curve" smooth="yes"/>
      <point x="417.395" y="40"/>
      <point x="332.965" y="-2"/>
      <point x="271.395" y="-2" type="curve" smooth="yes"/>
      <point x="215" y="-2"/>
      <point x="176.395" y="48.8521"/>
      <point x="176.395" y="103" type="curve" smooth="yes"/>
      <point x="176.395" y="248"/>
      <point x="597.455" y="464.299"/>
      <point x="693.395" y="527" type="curve" smooth="yes"/>
    </contour>
  </outline>
</glyph>
<glyph name="nine" format="2">
  <advance width="550"/>
  <unicode hex="0039"/>
  <outline>
    <contour>
      <point x="623.679" y="524" type="move" smooth="yes"/>
      <point x="623.679" y="524"/>
      <point x="504.679" y="582"/>
      <point x="347.679" y="461" type="curve" smooth="yes"/>
      <point x="190.679" y="340"/>
      <point x="251.679" y="247"/>
      <point x="257.679" y="241" type="curve" smooth="yes"/>
      <point x="263.679" y="235"/>
      <point x="349.679" y="159"/>
      <point x="545.679" y="366" type="curve"/>
      <point x="623.679" y="521" type="line"/>
      <point x="358.679" y="-9" type="line"/>
    </contour>
  </outline>
</glyph>
<glyph name="colon" format="2">
  <advance width="64"/>
  <unicode hex="003A"/>
  <outline>
    <contour>
      <point x="13" y="9" type="curve" smooth="yes"/>
      <point x="13" y="19"/>
      <point x="21" y="27"/>
      <point x="31" y="27" type="curve" smooth="yes"/>
      <point x="41" y="27"/>
      <point x="49" y="19"/>
      <point x="49" y="9" type="curve" smooth="yes"/>
      <point x="49" y="-1"/>
      <point x="41" y="-9"/>
      <point x="31" y="-9" type="curve" smooth="yes"/>
      <point x="21" y="-9"/>
      <point x="13" y="-1"/>
    </contour>
    <contour>
      <point x="132" y="257" type="curve" smooth="yes"/>
      <point x="132" y="267"/>
      <point x="140" y="275"/>
      <point x="150" y="275" type="curve" smooth="yes"/>
      <point x="160" y="275"/>
      <point x="168" y="267"/>
      <point x="168" y="257" type="curve" smooth="yes"/>
      <point x="168" y="247"/>
      <point x="160" y="239"/>
      <point x="150" y="239" type="curve" smooth="yes"/>
      <point x="140" y="239"/>
      <point x="132" y="247"/>
    </contour>
  </outline>
</glyph>
<glyph name="semicolon" format="2">
  <advance width="64"/>
  <unicode hex="003B"/>
  <outline>
    <contour>
      <point x="130" y="257" type="curve" smooth="yes"/>
      <point x="130" y="267"/>
      <point x="138" y="275"/>
      <point x="148" y="275" type="curve" smooth="yes"/>
      <point x="158" y="275"/>
      <point x="166" y="267"/>
      <point x="166" y="257" type="curve" smooth="yes"/>
      <point x="166" y="247"/>
      <point x="158" y="239"/>
      <point x="148" y="239" type="curve" smooth="yes"/>
      <point x="138" y="239"/>
      <point x="130" y="247"/>
    </contour>
    <contour>
      <point x="47.8535" y="40" type="move"/>
      <point x="-11.832" y="-88" type="line"/>
    </contour>
  </outline>
</glyph>
<glyph name="less" format="2">
  <advance width="313"/>
  <unicode hex="003C"/>
  <outline>
    <contour>
      <point x="312.534" y="331" type="move"/>
      <point x="76" y="171.16" type="line"/>
      <point x="163.187" y="0" type="line"/>
    </contour>
  </outline>
</glyph>
<glyph name="equal" format="2">
  <advance width="253"/>
  <unicode hex="003D"/>
  <outline>
    <contour>
      <point x="46.1582" y="76.6641" type="move"/>
      <point x="208.158" y="76.6641" type="line"/>
    </contour>
    <contour>
      <point x="91" y="171.16" type="move"/>
      <point x="253" y="171.16" type="line"/>
    </contour>
  </outline>
</glyph>
<glyph name="greater" format="2">
  <advance width="313"/>
  <unicode hex="003E"/>
  <outline>
    <contour>
      <point x="236.008" y="331" type="move"/>
      <point x="312.702" y="171.16" type="line"/>
      <point x="54.3555" y="0" type="line"/>
    </contour>
  </outline>
</glyph>
<glyph name="question" format="2">
  <advance width="357"/>
  <unicode hex="003F"/>
  <outline>
    <contour>
      <point x="14" y="6" type="curve" smooth="yes"/>
      <point x="14" y="16"/>
      <point x="22" y="24"/>
      <point x="32" y="24" type="curve" smooth="yes"/>
      <point x="42" y="24"/>
      <point x="50" y="16"/>
      <point x="50" y="6" type="curve" smooth="yes"/>
      <point x="50" y="-4"/>
      <point x="42" y="-12"/>
      <point x="32" y="-12" type="curve" smooth="yes"/>
      <point x="22" y="-12"/>
      <point x="14" y="-4"/>
    </contour>
    <contour>
      <point x="126.103" y="440" type="move" smooth="yes"/>
      <point x="140.092" y="470"/>
      <point x="248" y="504"/>
      <point x="301.946" y="504" type="curve" smooth="yes"/>
      <point x="346.916" y="504"/>
      <point x="384.57" y="471.027"/>
      <point x="354.248" y="406" type="curve" smooth="yes"/>
      <point x="317.876" y="328"/>
      <point x="229.954" y="296"/>
      <point x="156.954" y="296" type="curve"/>
      <point x="81.7441" y="139" type="line"/>
    </contour>
  </outline>
</glyph>
<glyph name="at" format="2">
  <advance width="480"/>
  <unicode hex="0040"/>
  <outline>
    <contour>
      <point x="361" y="219" type="move" smooth="yes"/>
      <point x="361" y="219"/>
      <point x="344.882" y="230.071"/>
      <point x="316.414" y="230.071" type="curve" smooth="yes"/>
      <point x="285.854" y="230.071"/>
      <point x="241.062" y="217.312"/>
      <point x="186.699" y="164.4" type="curve" smooth="yes"/>
      <point x="141.758" y="120.656"/>
      <point x="127.465" y="92.1729"/>
      <point x="127.465" y="74.1758" type="curve" smooth="yes"/>
      <point x="127.465" y="53.1201"/>
      <point x="147.027" y="46.415"/>
      <point x="159.959" y="46.415" type="curve" smooth="yes"/>
      <point x="161.799" y="46.415"/>
      <point x="163.504" y="46.5508"/>
      <point x="165" y="46.7998" type="curve" smooth="yes"/>
      <point x="186" y="50.2998"/>
      <point x="263.699" y="84.6006"/>
      <point x="306.399" y="139.2" type="curve" smooth="yes"/>
      <point x="349.1" y="193.8"/>
      <point x="360.3" y="218.3"/>
      <point x="360.3" y="218.3" type="curve"/>
      <point x="360.3" y="218.3"/>
      <point x="357.5" y="212"/>
      <point x="351.899" y="203.601" type="curve" smooth="yes"/>
      <point x="349.8" y="200.101"/>
      <point x="347" y="195.9"/>
      <point x="344.199" y="191.7" type="curve" smooth="yes"/>
      <point x="330.899" y="171.4"/>
      <point x="313.399" y="146.2"/>
      <point x="309.899" y="140.601" type="curve" smooth="yes"/>
      <point x="305.88" y="134.348"/>
      <point x="283.054" y="95.8965"/>
      <point x="283.054" y="70.5137" type="curve" smooth="yes"/>
      <point x="283.054" y="57.4727"/>
      <point x="289.08" y="47.8809"/>
      <point x="306.78" y="47.8809" type="curve" smooth="yes"/>
      <point x="344.169" y="47.8809"/>
      <point x="369.335" y="73.9199"/>
      <point x="390.257" y="91.3584" type="curve" smooth="yes"/>
      <point x="486" y="171.16"/>
      <point x="551" y="354"/>
      <point x="362" y="354" type="curve" smooth="yes"/>
      <point x="267" y="354"/>
      <point x="117.48" y="244.374"/>
      <point x="60" y="119" type="curve" smooth="yes"/>
      <point x="5.442" y="0"/>
      <point x="31" y="-88"/>
      <point x="128" y="-88" type="curve" smooth="yes"/>
      <point x="269" y="-88"/>
      <point x="365.351" y="-3.61385"/>
      <point x="480" y="76.6639" type="curve" smooth="yes"/>
    </contour>
  </outline>
</glyph>
<glyph name="A" format="2">
  <advance width="716"/>
  <unicode hex="0041"/>
  <anchor x="533" y="585" name="top"/>
  <outline>
    <contour>
      <point x="585.945" y="485.456" type="move" smooth="yes"/>
      <point x="585.945" y="485.456"/>
      <point x="551.871" y="517.088"/>
      <point x="486.804" y="517.088" type="curve" smooth="yes"/>
      <point x="286.588" y="517.088"/>
      <point x="15.5094" y="179.439"/>
      <point x="15.5094" y="61.8583" type="curve" smooth="yes"/>
      <point x="15.5094" y="9.40719"/>
      <point x="55.3956" y="-7.64355"/>
      <point x="83.2832" y="-7.64355" type="curve" smooth="yes"/>
      <point x="307.365" y="-7.64355"/>
      <point x="566.233" y="455.608"/>
      <point x="584.17" y="483.456" type="curve"/>
      <point x="549.664" y="418.465"/>
      <point x="370.341" y="168.743"/>
      <point x="370.341" y="53.8351" type="curve" smooth="yes"/>
      <point x="370.341" y="21.3059"/>
      <point x="389.961" y="-3.55077"/>
      <point x="425.407" y="-3.55077" type="curve" smooth="yes"/>
      <point x="499.202" y="-3.55077"/>
      <point x="629.493" y="78.966"/>
      <point x="716" y="264.48" type="curve" smooth="yes"/>
    </contour>
  </outline>
</glyph>
<glyph name="C" format="2">
  <advance width="628"/>
  <unicode hex="0043"/>
  <outline>
    <contour>
      <point x="542.7" y="547.2" type="move"/>
      <point x="532.44" y="504.45" type="line"/>
      <point x="532.44" y="504.45"/>
      <point x="476.011" y="552.33"/>
      <point x="433.261" y="552.33" type="curve" smooth="yes"/>
      <point x="293.04" y="552.33"/>
      <point x="63.9004" y="380.476"/>
      <point x="63.9004" y="174.42" type="curve" smooth="yes"/>
      <point x="63.9004" y="77.0459"/>
      <point x="118.641" y="0"/>
      <point x="252" y="0" type="curve" smooth="yes"/>
      <point x="432.794" y="0"/>
      <point x="540.99" y="165.016"/>
      <point x="628.2" y="270.181" type="curve" smooth="yes"/>
    </contour>
  </outline>
</glyph>
<glyph name="F" format="2">
  <advance width="599"/>
  <unicode hex="0046"/>
  <outline>
    <contour>
      <point x="420.74" y="273.6" type="move"/>
      <point x="590.886" y="273.6" type="line"/>
    </contour>
    <contour>
      <point x="337.62" y="556" type="move"/>
      <point x="338" y="541"/>
      <point x="297.62" y="478.54"/>
      <point x="297.62" y="478.54" type="curve"/>
      <point x="327.62" y="525"/>
      <point x="390" y="548.91"/>
      <point x="490.851" y="548.91" type="curve" smooth="yes"/>
      <point x="630" y="548.91"/>
      <point x="643.896" y="501.03"/>
      <point x="743.931" y="501.03" type="curve" smooth="yes"/>
      <point x="833.705" y="501.03"/>
      <point x="904.67" y="530.955"/>
      <point x="904.67" y="567.72" type="curve" smooth="yes"/>
      <point x="904.67" y="589.095"/>
      <point x="872.181" y="612.18"/>
      <point x="832.851" y="612.18" type="curve" smooth="yes"/>
      <point x="727.686" y="612.18"/>
      <point x="584.448" y="451.33"/>
      <point x="516.5" y="288.99" type="curve" smooth="yes"/>
      <point x="456.878" y="146.544"/>
      <point x="412.646" y="0"/>
      <point x="260" y="0" type="curve" smooth="yes"/>
      <point x="113.795" y="0"/>
      <point x="34.2803" y="129.96"/>
      <point x="34.2803" y="266.76" type="curve"/>
      <point x="143.138" y="167.427"/>
      <point x="260.905" y="135.228"/>
      <point x="444.011" y="126.218" type="curve"/>
    </contour>
  </outline>
</glyph>
<glyph name="G" format="2">
  <advance width="561"/>
  <unicode hex="0047"/>
  <outline>
    <contour>
      <point x="-0.800781" y="1.70996" type="move"/>
      <point x="151.39" y="102.249"/>
      <point x="486.55" y="412.109"/>
      <point x="486.55" y="506.16" type="curve" smooth="yes"/>
      <point x="486.55" y="531.81"/>
      <point x="466.029" y="552.33"/>
      <point x="440.38" y="552.33" type="curve" smooth="yes"/>
      <point x="376.255" y="552.33"/>
      <point x="308.71" y="445.455"/>
      <point x="308.71" y="374.49" type="curve" smooth="yes"/>
      <point x="308.71" y="293.265"/>
      <point x="366.85" y="271.89"/>
      <point x="428.409" y="271.89" type="curve" smooth="yes"/>
      <point x="560.935" y="271.89"/>
      <point x="696.88" y="420.66"/>
      <point x="696.88" y="420.66" type="curve"/>
      <point x="696.88" y="420.66"/>
      <point x="606.383" y="316.346"/>
      <point x="560.08" y="241.109" type="curve" smooth="yes"/>
      <point x="519.036" y="174.42"/>
      <point x="469.449" y="0"/>
      <point x="307" y="0" type="curve" smooth="yes"/>
      <point x="147.97" y="0"/>
      <point x="98.9697" y="182.97"/>
      <point x="98.3799" y="263.34" type="curve"/>
      <point x="98.3799" y="263.34"/>
      <point x="144.55" y="155.609"/>
      <point x="243.729" y="155.609" type="curve" smooth="yes"/>
      <point x="275.364" y="155.609"/>
      <point x="325.81" y="159.03"/>
      <point x="325.81" y="159.03" type="curve"/>
    </contour>
  </outline>
</glyph>
<glyph name="I" format="2">
  <advance width="716"/>
  <unicode hex="0049"/>
  <outline>
    <contour>
      <point x="240.449" y="162.45" type="move"/>
      <point x="172.05" y="154.303"/>
      <point x="52.8047" y="172.71"/>
      <point x="18.1494" y="258.21" type="curve"/>
      <point x="18.1494" y="258.21"/>
      <point x="21.5693" y="0"/>
      <point x="249" y="0" type="curve" smooth="yes"/>
      <point x="471.3" y="0"/>
      <point x="715.829" y="372.664"/>
      <point x="715.829" y="485.641" type="curve" smooth="yes"/>
      <point x="715.829" y="517.275"/>
      <point x="696.164" y="547.2"/>
      <point x="664.529" y="547.2" type="curve" smooth="yes"/>
      <point x="555.09" y="547.2"/>
      <point x="454.199" y="351.405"/>
      <point x="454.199" y="189.811" type="curve" smooth="yes"/>
      <point x="454.199" y="94.9053"/>
      <point x="527.729" y="-41.04"/>
      <point x="527.729" y="-41.04" type="curve"/>
    </contour>
  </outline>
</glyph>
<glyph name="K" format="2">
  <advance width="748"/>
  <unicode hex="004B"/>
  <outline>
    <contour>
      <point x="659.43" y="551.475" type="move"/>
      <point x="473.04" y="551.498"/>
      <point x="463.635" y="271.89"/>
      <point x="314.865" y="271.89" type="curve" smooth="yes"/>
      <point x="284.939" y="271.89"/>
      <point x="238.77" y="286.425"/>
      <point x="238.77" y="286.425" type="curve"/>
      <point x="365.457" y="213.478"/>
      <point x="250.979" y="2.56445"/>
      <point x="385.83" y="2.56445" type="curve" smooth="yes"/>
      <point x="562.252" y="2.56445"/>
      <point x="733.113" y="249.395"/>
      <point x="747.495" y="268.47" type="curve"/>
    </contour>
    <contour>
      <point x="137.024" y="538.649" type="move"/>
      <point x="137.024" y="538.649"/>
      <point x="179.774" y="549.765"/>
      <point x="207.99" y="549.765" type="curve" smooth="yes"/>
      <point x="255.015" y="549.765"/>
      <point x="293.49" y="513"/>
      <point x="293.49" y="465.975" type="curve" smooth="yes"/>
      <point x="293.49" y="423.482"/>
      <point x="266.349" y="361.665"/>
      <point x="241.335" y="310.365" type="curve" smooth="yes"/>
      <point x="90" y="0" type="line"/>
    </contour>
  </outline>
</glyph>
<glyph name="L" format="2">
  <advance width="791"/>
  <unicode hex="004C"/>
  <outline>
    <contour>
      <point x="134.705" y="288.135" type="move"/>
      <point x="134.705" y="288.135"/>
      <point x="186.859" y="278.729"/>
      <point x="221.06" y="278.729" type="curve" smooth="yes"/>
      <point x="395.479" y="278.729"/>
      <point x="626.33" y="392.445"/>
      <point x="626.33" y="493.335" type="curve" smooth="yes"/>
      <point x="626.33" y="533.52"/>
      <point x="605.81" y="547.2"/>
      <point x="579.305" y="547.2" type="curve" smooth="yes"/>
      <point x="497.225" y="547.2"/>
      <point x="426.391" y="403.637"/>
      <point x="383.51" y="317.205" type="curve" smooth="yes"/>
      <point x="328.79" y="206.91" type="line" smooth="yes"/>
      <point x="275.512" y="99.5215"/>
      <point x="180.875" y="0"/>
      <point x="74" y="0" type="curve" smooth="yes"/>
      <point x="74" y="0"/>
      <point x="-0.384766" y="1.70996"/>
      <point x="-0.384766" y="33.3447" type="curve" smooth="yes"/>
      <point x="-0.384766" y="64.9795"/>
      <point x="38.9443" y="72.6748"/>
      <point x="70.5801" y="72.6748" type="curve" smooth="yes"/>
      <point x="216.785" y="72.6748"/>
      <point x="272.359" y="-107.73"/>
      <point x="561.35" y="-107.73" type="curve" smooth="yes"/>
      <point x="656.384" y="-107.73"/>
      <point x="769.549" y="-51.5625"/>
      <point x="790.49" y="-35.0547" type="curve"/>
    </contour>
  </outline>
</glyph>
<glyph name="N" format="2">
  <advance width="713"/>
  <unicode hex="004E"/>
  <outline>
    <contour>
      <point x="97.3145" y="531.811" type="move"/>
      <point x="97.3145" y="531.811"/>
      <point x="134.935" y="545.49"/>
      <point x="159.729" y="545.49" type="curve" smooth="yes"/>
      <point x="276.01" y="545.49"/>
      <point x="257.322" y="424.533"/>
      <point x="228.984" y="365.94" type="curve" smooth="yes"/>
      <point x="52" y="0" type="line"/>
      <point x="172.555" y="236.835" type="line" smooth="yes"/>
      <point x="208.173" y="306.809"/>
      <point x="316.18" y="444.601"/>
      <point x="415.375" y="444.601" type="curve" smooth="yes"/>
      <point x="438.46" y="444.601"/>
      <point x="454.705" y="426.646"/>
      <point x="454.705" y="403.561" type="curve" smooth="yes"/>
      <point x="454.705" y="377.91"/>
      <point x="438.549" y="330.46"/>
      <point x="424.779" y="303.525" type="curve" smooth="yes"/>
      <point x="327.31" y="112.86" type="line" smooth="yes"/>
      <point x="282.197" y="24.6152"/>
      <point x="298.24" y="0.855469"/>
      <point x="358.944" y="0.855469" type="curve" smooth="yes"/>
      <point x="472.66" y="0.855469"/>
      <point x="678.715" y="198.36"/>
      <point x="713.77" y="265.905" type="curve"/>
    </contour>
  </outline>
</glyph>
<glyph name="O" format="2">
  <advance width="613"/>
  <unicode hex="4F"/>
  <outline>
    <contour>
      <point x="443" y="540" type="move"/>
      <point x="284.61542" y="540.00006"/>
      <point x="175.61253" y="419.8979"/>
      <point x="116.923096" y="289.23083" type="curve"/>
      <point x="35.38463" y="107.69232"/>
      <point x="124.99243" y="0.95674765"/>
      <point x="222.50002" y="1.249939" type="curve"/>
      <point x="318.46158" y="1.5384827"/>
      <point x="453.87933" y="90.758484"/>
      <point x="518.4616" y="289.23083" type="curve"/>
      <point x="581.5385" y="483.07697"/>
      <point x="538.4616" y="540.00006"/>
      <point x="443" y="540" type="curve"/>
      <point x="396.883" y="540"/>
      <point x="298.46225" y="521.8977"/>
      <point x="264.17484" y="457.62445" type="curve"/>
      <point x="240.00003" y="412.30774"/>
      <point x="283.07697" y="385.38464"/>
      <point x="341.4266" y="384.23035" type="curve"/>
      <point x="452.28668" y="382.03726"/>
      <point x="595.3847" y="458.4616"/>
      <point x="670" y="541" type="curve"/>
    </contour>
  </outline>
</glyph>
<glyph name="P" format="2">
  <advance width="636"/>
  <unicode hex="0050"/>
  <outline>
    <contour>
      <point x="37.25" y="282.149" type="move"/>
      <point x="147.093" y="339.921"/>
      <point x="257.433" y="395.59"/>
      <point x="345.05" y="547.2" type="curve"/>
      <point x="80" y="0" type="line"/>
      <point x="150.162" y="145.35" type="line" smooth="yes"/>
      <point x="314.188" y="485.154"/>
      <point x="370.7" y="547.2"/>
      <point x="498.95" y="547.2" type="curve" smooth="yes"/>
      <point x="601.55" y="547.2"/>
      <point x="635.75" y="478.8"/>
      <point x="635.75" y="427.5" type="curve" smooth="yes"/>
      <point x="635.75" y="273.6"/>
      <point x="488.69" y="212.04"/>
      <point x="383.525" y="212.04" type="curve" smooth="yes"/>
      <point x="335.645" y="212.04"/>
      <point x="252.71" y="235.979"/>
      <point x="213.38" y="262.484" type="curve"/>
    </contour>
  </outline>
</glyph>
<glyph name="Q" format="2">
  <advance width="535"/>
  <unicode hex="0051"/>
  <outline>
    <contour>
      <point x="90.125" y="35.9102" type="move"/>
      <point x="43.9551" y="78.6602"/>
      <point x="34.5508" y="148.77"/>
      <point x="34.5508" y="195.795" type="curve" smooth="yes"/>
      <point x="34.5508" y="378.765"/>
      <point x="167.075" y="542.07"/>
      <point x="350.046" y="542.07" type="curve" smooth="yes"/>
      <point x="452.646" y="542.07"/>
      <point x="526.176" y="449.73"/>
      <point x="526.176" y="347.13" type="curve" smooth="yes"/>
      <point x="526.176" y="160.74"/>
      <point x="383.391" y="0"/>
      <point x="197" y="0" type="curve" smooth="yes"/>
      <point x="137.15" y="0"/>
      <point x="66.1855" y="35.0547"/>
      <point x="66.1855" y="79.5146" type="curve" smooth="yes"/>
      <point x="66.1855" y="104.31"/>
      <point x="92.6904" y="115.425"/>
      <point x="117.485" y="115.425" type="curve" smooth="yes"/>
      <point x="218.375" y="115.425"/>
      <point x="309.006" y="-62.415"/>
      <point x="459.485" y="-62.415" type="curve" smooth="yes"/>
      <point x="489.41" y="-62.415"/>
      <point x="534.726" y="-51.2998"/>
      <point x="534.726" y="-51.2998" type="curve"/>
    </contour>
  </outline>
</glyph>
<glyph name="S" format="2">
  <advance width="689"/>
  <unicode hex="0053"/>
  <outline>
    <contour>
      <point x="0" y="0" type="move"/>
      <point x="342.854" y="102.601"/>
      <point x="688.274" y="408.69"/>
      <point x="688.274" y="503.595" type="curve" smooth="yes"/>
      <point x="688.274" y="540.36"/>
      <point x="666.899" y="550.62"/>
      <point x="645.524" y="550.62" type="curve" smooth="yes"/>
      <point x="576.27" y="550.62"/>
      <point x="532.665" y="484.785"/>
      <point x="532.665" y="415.53" type="curve" smooth="yes"/>
      <point x="532.665" y="346.115"/>
      <point x="530.1" y="233.415"/>
      <point x="530.1" y="233.415" type="curve" smooth="yes"/>
      <point x="527.534" y="77.8057"/>
      <point x="432.221" y="2.56543"/>
      <point x="327.465" y="2.56543" type="curve" smooth="yes"/>
      <point x="180.717" y="2.56543"/>
      <point x="61.5596" y="153.045"/>
      <point x="61.5596" y="265.905" type="curve"/>
      <point x="95.7598" y="169.29"/>
      <point x="248.805" y="165.87"/>
      <point x="294.12" y="165.87" type="curve"/>
    </contour>
  </outline>
</glyph>
<glyph name="T" format="2">
  <advance width="617"/>
  <unicode hex="0054"/>
  <outline>
    <contour>
      <point x="348.62" y="556" type="move"/>
      <point x="349" y="541"/>
      <point x="308.62" y="478.54"/>
      <point x="308.62" y="478.54" type="curve"/>
      <point x="338.62" y="525"/>
      <point x="401" y="548.91"/>
      <point x="501.851" y="548.91" type="curve" smooth="yes"/>
      <point x="641" y="548.91"/>
      <point x="654.896" y="501.03"/>
      <point x="754.931" y="501.03" type="curve" smooth="yes"/>
      <point x="844.705" y="501.03"/>
      <point x="915.67" y="530.955"/>
      <point x="915.67" y="567.72" type="curve" smooth="yes"/>
      <point x="915.67" y="589.095"/>
      <point x="884.181" y="612.18"/>
      <point x="844.851" y="612.18" type="curve" smooth="yes"/>
      <point x="739.685" y="612.181"/>
      <point x="596.448" y="451.33"/>
      <point x="528.5" y="288.99" type="curve" smooth="yes"/>
      <point x="468.878" y="146.544"/>
      <point x="424.646" y="0"/>
      <point x="272" y="0" type="curve" smooth="yes"/>
      <point x="125.795" y="0"/>
      <point x="46.2803" y="129.96"/>
      <point x="46.2803" y="266.76" type="curve"/>
      <point x="154.153" y="168.327"/>
      <point x="274.849" y="135.815"/>
      <point x="456.48" y="126.468" type="curve"/>
    </contour>
  </outline>
</glyph>
<glyph name="V" format="2">
  <advance width="625"/>
  <unicode hex="0056"/>
  <outline>
    <contour>
      <point x="158.021" y="536.085" type="move"/>
      <point x="174.056" y="542.515"/>
      <point x="200.639" y="546.466"/>
      <point x="223.855" y="545.49" type="curve" smooth="yes"/>
      <point x="271.735" y="545.49"/>
      <point x="311.065" y="507.016"/>
      <point x="311.065" y="459.135" type="curve" smooth="yes"/>
      <point x="311.065" y="404.347"/>
      <point x="282.548" y="351.201"/>
      <point x="270.025" y="325.755" type="curve" smooth="yes"/>
      <point x="189.655" y="162.45" type="line" smooth="yes"/>
      <point x="167.352" y="117.131"/>
      <point x="132.334" y="0"/>
      <point x="223" y="0" type="curve" smooth="yes"/>
      <point x="286.553" y="0"/>
      <point x="343.639" y="73.9072"/>
      <point x="398.275" y="190.665" type="curve" smooth="yes"/>
      <point x="460.69" y="324.045" type="line" smooth="yes"/>
      <point x="535.488" y="483.889"/>
      <point x="625.68" y="545.49"/>
      <point x="683.845" y="545.49" type="curve" smooth="yes"/>
      <point x="701.472" y="545.49"/>
      <point x="711.205" y="542.07"/>
      <point x="729.16" y="540.36" type="curve" smooth="yes"/>
    </contour>
  </outline>
</glyph>
<glyph name="W" format="2">
  <advance width="861"/>
  <unicode hex="0057"/>
  <outline>
    <contour>
      <point x="225.39" y="534.375" type="move"/>
      <point x="241.425" y="540.806"/>
      <point x="256.018" y="545.49"/>
      <point x="279.255" y="545.49" type="curve" smooth="yes"/>
      <point x="327.135" y="545.49"/>
      <point x="373.305" y="537.795"/>
      <point x="373.305" y="489.915" type="curve" smooth="yes"/>
      <point x="373.305" y="435.127"/>
      <point x="322.812" y="350.028"/>
      <point x="308.324" y="325.755" type="curve" smooth="yes"/>
      <point x="210.854" y="162.45" type="line" smooth="yes"/>
      <point x="180.345" y="111.333"/>
      <point x="151.859" y="0"/>
      <point x="210" y="0" type="curve" smooth="yes"/>
      <point x="273.552" y="0"/>
      <point x="388.397" y="138.064"/>
      <point x="419.475" y="182.115" type="curve" smooth="yes"/>
      <point x="507.539" y="306.945" type="line" smooth="yes"/>
      <point x="561.424" y="383.325"/>
      <point x="640.064" y="545.49"/>
      <point x="640.064" y="545.49" type="curve"/>
      <point x="501.555" y="237.69" type="line" smooth="yes"/>
      <point x="470.831" y="169.415"/>
      <point x="408.359" y="1.70996"/>
      <point x="496.425" y="1.70996" type="curve" smooth="yes"/>
      <point x="603.3" y="1.70996"/>
      <point x="691.364" y="194.085"/>
      <point x="691.364" y="194.085" type="curve" smooth="yes"/>
      <point x="758.055" y="341.146" type="line" smooth="yes"/>
      <point x="787.503" y="406.083"/>
      <point x="871.77" y="545.49"/>
      <point x="959.835" y="545.49" type="curve" smooth="yes"/>
      <point x="974.836" y="545.49"/>
      <point x="984.328" y="542.936"/>
      <point x="1003.44" y="539.505" type="curve"/>
    </contour>
  </outline>
</glyph>
<glyph name="X" format="2">
  <advance width="687"/>
  <unicode hex="0058"/>
  <outline>
    <contour>
      <point x="204.189" y="535.229" type="move"/>
      <point x="217.17" y="542.245"/>
      <point x="249.61" y="549.429"/>
      <point x="277.72" y="548.91" type="curve" smooth="yes"/>
      <point x="327.31" y="548.91"/>
      <point x="360.654" y="502.739"/>
      <point x="360.654" y="453.149" type="curve" smooth="yes"/>
      <point x="360.654" y="309.51"/>
      <point x="261.475" y="242.819"/>
      <point x="261.475" y="99.1797" type="curve" smooth="yes"/>
      <point x="261.475" y="48.7344"/>
      <point x="298.24" y="2.56445"/>
      <point x="348.685" y="2.56445" type="curve" smooth="yes"/>
      <point x="447.865" y="2.56445"/>
      <point x="545.495" y="68.7354"/>
      <point x="693" y="264.48" type="curve"/>
    </contour>
    <contour>
      <point x="563.29" y="548.91" type="move"/>
      <point x="384.713" y="358.102"/>
      <point x="222.963" y="183.483"/>
      <point x="52" y="0" type="curve"/>
    </contour>
  </outline>
</glyph>
<glyph name="Y" format="2">
  <advance width="695"/>
  <unicode hex="59"/>
  <outline>
    <contour>
      <point x="149.25" y="530.101" type="move"/>
      <point x="165.92596" y="540.0001"/>
      <point x="189.435" y="547.2"/>
      <point x="215.939" y="547.2" type="curve"/>
      <point x="264.675" y="547.2"/>
      <point x="302.295" y="508.726"/>
      <point x="302.295" y="459.99" type="curve"/>
      <point x="302.295" y="336.87"/>
      <point x="145.83" y="178.695"/>
      <point x="145.83" y="56.4307" type="curve"/>
      <point x="145.83" y="28.2148"/>
      <point x="163.784" y="0"/>
      <point x="192" y="0" type="curve"/>
      <point x="288.614" y="0"/>
      <point x="438.2759" y="203.385"/>
      <point x="484.7059" y="300" type="curve"/>
      <point x="602.399" y="543.78" type="curve"/>
      <point x="602.399" y="543.78"/>
      <point x="253.56" y="-179.55"/>
      <point x="253.56" y="-179.55" type="curve"/>
      <point x="210.1197" y="-269.62186"/>
      <point x="186.21997" y="-283.81503"/>
      <point x="161.22" y="-283.859" type="curve"/>
      <point x="141.22" y="-283.859"/>
      <point x="128.729" y="-270.979"/>
      <point x="128.729" y="-245.979" type="curve"/>
      <point x="128.729" y="-173.305"/>
      <point x="347.609" y="1.70996"/>
      <point x="388.649" y="35.9102" type="curve"/>
      <point x="388.649" y="35.9102"/>
      <point x="476.715" y="106.021"/>
      <point x="476.715" y="106.021" type="curve"/>
      <point x="546.824" y="161.836"/>
      <point x="610.052" y="206.273"/>
      <point x="694.739" y="265.05" type="curve"/>
    </contour>
  </outline>
</glyph>
<glyph name="bracketleft" format="2">
  <advance width="459"/>
  <unicode hex="005B"/>
  <outline>
    <contour>
      <point x="459" y="540.953" type="move"/>
      <point x="324" y="540.953" type="line"/>
      <point x="68.9514" y="0" type="line"/>
      <point x="207" y="0" type="line"/>
    </contour>
  </outline>
</glyph>
<glyph name="backslash" format="2">
  <advance width="278"/>
  <unicode hex="005C"/>
  <outline>
    <contour>
      <point x="90" y="540.953" type="move"/>
      <point x="278" y="0" type="line"/>
    </contour>
  </outline>
</glyph>
<glyph name="bracketright" format="2">
  <advance width="459"/>
  <unicode hex="005D"/>
  <outline>
    <contour>
      <point x="323.051" y="540.953" type="move"/>
      <point x="458.051" y="540.953" type="line"/>
      <point x="217.406" y="0" type="line"/>
      <point x="79.3584" y="0" type="line"/>
    </contour>
  </outline>
</glyph>
<glyph name="asciicircum" format="2">
  <advance width="458"/>
  <unicode hex="005E"/>
  <outline>
    <contour>
      <point x="192.923" y="410" type="move"/>
      <point x="382.421" y="540.953" type="line"/>
      <point x="451.356" y="410" type="line"/>
    </contour>
  </outline>
</glyph>
<glyph name="underscore" format="2">
  <advance width="355"/>
  <unicode hex="005F"/>
  <outline>
    <contour>
      <point x="0" y="0" type="move"/>
      <point x="355" y="0" type="line"/>
    </contour>
  </outline>
</glyph>
<glyph name="grave" format="2">
  <advance width="354"/>
  <unicode hex="0060"/>
  <outline>
    <contour>
      <point x="251" y="502" type="move"/>
      <point x="324" y="325" type="line"/>
    </contour>
  </outline>
</glyph>
<glyph name="a" format="2">
  <advance width="445" />
  <unicode hex="61" />
  <outline>
    <contour>
      <point y="241" type="move" x="347" />
      <point y="241" x="347" />
      <point y="256.816" x="323.974" />
      <point y="256.816" type="curve" x="283.307" />
      <point x="239.649" y="256.816" />
      <point x="175.66" y="238.589" />
      <point x="98" type="curve" y="163" />
      <point x="33.7967" y="100.509" />
      <point x="13.3789" y="59.8188" />
      <point x="13.3789" type="curve" y="34.1077" />
      <point x="13.3789" y="4.02795" />
      <point x="41.3249" y="-5.54993" />
      <point x="59.7991" y="-5.54993" type="curve" />
      <point y="-5.54993" x="62.427" />
      <point x="64.8632" y="-5.35614" />
      <point x="67" y="-5" type="curve" />
      <point x="97" y="0" />
      <point y="49" x="208" />
      <point x="269" y="127" type="curve" />
      <point x="330" y="205" />
      <point y="240" x="346" />
      <point y="240" x="346" type="curve" />
      <point y="240" x="346" />
      <point y="231" x="342" />
      <point y="219" x="334" type="curve" />
      <point y="214" x="331" />
      <point y="208" x="327" />
      <point x="323" y="202" type="curve" />
      <point y="173" x="304" />
      <point x="279" y="137" />
      <point x="274" y="129" type="curve" />
      <point x="268.258" y="120.068" />
      <point y="65.1369" x="235.649" />
      <point type="curve" x="235.649" y="28.8768" />
      <point y="10.2457" x="235.649" />
      <point x="244.258" y="-3.45615" />
      <point y="-3.45615" x="269.544" type="curve" />
      <point x="322.956" y="-3.45615" />
      <point y="54.3521" x="413.127" />
      <point x="445" y="76.67" type="curve" />
    </contour>
  </outline>
</glyph>
<glyph name="b" format="2">
  <advance width="691"/>
  <unicode hex="0062"/>
  <outline>
    <contour>
      <point x="13" y="0" type="move" smooth="yes"/>
      <point x="233.334" y="111.072"/>
      <point x="604.075" y="382.251"/>
      <point x="604.075" y="484.413" type="curve" smooth="yes"/>
      <point x="604.075" y="492.939"/>
      <point x="594.199" y="539.173"/>
      <point x="558.939" y="539.173" type="curve" smooth="yes"/>
      <point x="529.878" y="539.173"/>
      <point x="497.119" y="503.559"/>
      <point x="482" y="475" type="curve" smooth="yes"/>
      <point x="465.476" y="443.788"/>
      <point x="278.737" y="120.03"/>
      <point x="278.737" y="39.9267" type="curve" smooth="yes"/>
      <point x="278.737" y="12.464"/>
      <point x="285.97" y="-9.20842"/>
      <point x="322.099" y="-9.20842" type="curve" smooth="yes"/>
      <point x="374.574" y="-9.20842"/>
      <point x="509" y="155"/>
      <point x="525" y="263" type="curve"/>
      <point x="530.19" y="226.017"/>
      <point x="571.095" y="171.16"/>
      <point x="691" y="171.16" type="curve" smooth="yes"/>
    </contour>
  </outline>
</glyph>
<glyph name="c" format="2">
  <advance width="278"/>
  <unicode hex="0063"/>
  <outline>
    <contour>
      <point x="233" y="207" type="move" smooth="yes"/>
      <point x="233" y="221.783"/>
      <point x="215" y="254.922"/>
      <point x="168" y="256" type="curve" smooth="yes"/>
      <point x="119.919" y="257.103"/>
      <point x="75" y="232"/>
      <point x="40" y="162" type="curve" smooth="yes"/>
      <point x="5" y="92"/>
      <point x="0" y="0"/>
      <point x="69" y="-3" type="curve" smooth="yes"/>
      <point x="158.915" y="-6.90935"/>
      <point x="238.165" y="48.771"/>
      <point x="278" y="76.6641" type="curve" smooth="yes"/>
    </contour>
  </outline>
</glyph>
<glyph name="e" format="2">
  <advance width="282"/>
  <unicode hex="65"/>
  <outline>
    <contour>
      <point x="22.5488" y="82.0967" type="move"/>
      <point x="78.3629" y="111.549"/>
      <point x="184.563" y="182.454"/>
      <point x="184.563" y="231.473" type="curve"/>
      <point x="184.563" y="251.483"/>
      <point x="166.326" y="264.352"/>
      <point x="150" y="264.352" type="curve"/>
      <point x="116.032" y="264.352"/>
      <point x="88.80832" y="228.29419"/>
      <point x="67" y="183" type="curve"/>
      <point x="62.661846" y="173.98999"/>
      <point x="11.3401" y="83.3735"/>
      <point x="11.3401" y="28.0684" type="curve"/>
      <point x="11.3401" y="6.8201"/>
      <point x="19.5561" y="-7.88587"/>
      <point x="42.3013" y="-7.88587" type="curve"/>
      <point x="76" y="-7.88587"/>
      <point x="184.038" y="8.07031"/>
      <point x="282" y="76.6641" type="curve"/>
    </contour>
  </outline>
</glyph>
<glyph name="f" format="2">
  <advance width="279"/>
  <unicode hex="66"/>
  <outline>
    <contour>
      <point x="104.45456" y="181.81824" type="move"/>
      <point x="184.00002" y="246.66672"/>
      <point x="365.33337" y="442.66672"/>
      <point x="366.699" y="501.073" type="curve"/>
      <point x="367.21326" y="523.0671"/>
      <point x="351.931" y="539.902"/>
      <point x="328.572" y="539.902" type="curve"/>
      <point x="302.814" y="539.902"/>
      <point x="278.538" y="525.444"/>
      <point x="266" y="501" type="curve"/>
      <point x="-71" y="-156" type="curve"/>
      <point x="-80.2264" y="-173.987"/>
      <point x="-107.463" y="-220.161"/>
      <point x="-107.463" y="-255.261" type="curve"/>
      <point x="-107.463" y="-282.495"/>
      <point x="-90.3023" y="-294.164"/>
      <point x="-74.3875" y="-294.164" type="curve"/>
      <point x="-8.20071" y="-294.164"/>
      <point x="35.2284" y="-157.052"/>
      <point x="35.2284" y="-83.821" type="curve"/>
      <point x="35.2284" y="-43.821"/>
      <point x="22.9451" y="-13.9848"/>
      <point x="14" y="-1" type="curve"/>
      <point x="64" y="-1"/>
      <point x="174.435" y="3.78297"/>
      <point x="279" y="77" type="curve"/>
    </contour>
  </outline>
</glyph>
<glyph name="g" format="2">
  <advance width="388"/>
  <unicode hex="0067"/>
  <outline>
    <contour>
      <point x="339" y="241" type="move" smooth="yes"/>
      <point x="339" y="241"/>
      <point x="313.702" y="253.531"/>
      <point x="273.338" y="253.531" type="curve" smooth="yes"/>
      <point x="142.863" y="253.531"/>
      <point x="13.105" y="109.768"/>
      <point x="13.105" y="28.7704" type="curve" smooth="yes"/>
      <point x="13.105" y="13"/>
      <point x="20" y="-15.0535"/>
      <point x="55.3654" y="-15.0535" type="curve" smooth="yes"/>
      <point x="126.56" y="-15.0535"/>
      <point x="264" y="94"/>
      <point x="342" y="240" type="curve"/>
      <point x="295.477" y="157.293"/>
      <point x="83.3516" y="-249.996"/>
      <point x="66" y="-269" type="curve" smooth="yes"/>
      <point x="51.0703" y="-285.352"/>
      <point x="32.6025" y="-297.66"/>
      <point x="15.9867" y="-297.66" type="curve" smooth="yes"/>
      <point x="5.70986" y="-297.66"/>
      <point x="-13.855" y="-293.056"/>
      <point x="-13.855" y="-259.843" type="curve" smooth="yes"/>
      <point x="-13.855" y="-119.815"/>
      <point x="333.081" y="38.5449"/>
      <point x="388" y="77" type="curve" smooth="yes"/>
    </contour>
  </outline>
</glyph>
<glyph name="h" format="2">
  <advance width="740"/>
  <unicode hex="0068"/>
  <outline>
    <contour>
      <point x="2" y="-12" type="move" smooth="yes"/>
      <point x="14.0515" y="-4.47274"/>
      <point x="622.113" y="352.386"/>
      <point x="622.113" y="492.257" type="curve" smooth="yes"/>
      <point x="622.113" y="530.711"/>
      <point x="598.104" y="544.315"/>
      <point x="581.577" y="544.315" type="curve" smooth="yes"/>
      <point x="566.285" y="544.315"/>
      <point x="535.595" y="538.63"/>
      <point x="510" y="490" type="curve" smooth="yes"/>
      <point x="252" y="-12" type="line"/>
    </contour>
    <contour>
      <point x="252" y="-12" type="move"/>
      <point x="252" y="-12"/>
      <point x="358.687" y="257.556"/>
      <point x="562.786" y="257.556" type="curve" smooth="yes"/>
      <point x="580.829" y="257.556"/>
      <point x="597.881" y="251.568"/>
      <point x="597.881" y="228.931" type="curve" smooth="yes"/>
      <point x="597.881" y="168.855"/>
      <point x="510.258" y="101.308"/>
      <point x="510.258" y="30.2555" type="curve" smooth="yes"/>
      <point x="510.258" y="13.4106"/>
      <point x="519.674" y="-10.0889"/>
      <point x="545.469" y="-10.0889" type="curve" smooth="yes"/>
      <point x="588" y="-10.0889"/>
      <point x="646.15" y="11.2853"/>
      <point x="740" y="77" type="curve" smooth="yes"/>
    </contour>
  </outline>
</glyph>
<glyph name="i" format="2">
  <advance width="441" />
  <unicode hex="69" />
  <outline>
    <contour>
      <point type="move" y="0" x="0" />
      <point y="22.3844" x="42.171" />
      <point x="223.994" y="112.874" />
      <point type="curve" y="255" x="325" />
      <point y="206.164" x="299.121" />
      <point x="218.201" y="82" />
      <point y="32.8374" x="218.201" type="curve" />
      <point y="18.0871" x="218.201" />
      <point x="232.85" y="-7.76738" />
      <point type="curve" x="271.342" y="-7.76738" />
      <point x="307.241" y="-7.76738" />
      <point y="21.9137" x="362.329" />
      <point x="441" type="curve" y="77" />
    </contour>
    <contour>
      <point x="400" y="414" type="curve" />
      <point y="424" x="400" />
      <point y="432" x="408" />
      <point x="418" y="432" type="curve" />
      <point y="432" x="428" />
      <point x="436" y="424" />
      <point x="436" y="414" type="curve" />
      <point x="436" y="404" />
      <point y="396" x="428" />
      <point x="418" type="curve" y="396" />
      <point y="396" x="408" />
      <point y="404" x="400" />
    </contour>
  </outline>
</glyph>
<glyph name="j" format="2">
  <advance width="497"/>
  <unicode hex="006A"/>
  <outline>
    <contour>
      <point x="420" y="414" type="curve" smooth="yes"/>
      <point x="420" y="424"/>
      <point x="428" y="432"/>
      <point x="438" y="432" type="curve" smooth="yes"/>
      <point x="448" y="432"/>
      <point x="456" y="424"/>
      <point x="456" y="414" type="curve" smooth="yes"/>
      <point x="456" y="404"/>
      <point x="448" y="396"/>
      <point x="438" y="396" type="curve" smooth="yes"/>
      <point x="428" y="396"/>
      <point x="420" y="404"/>
    </contour>
    <contour>
      <point x="4" y="0" type="move" smooth="yes"/>
      <point x="9.96005" y="1.41967"/>
      <point x="206.508" y="21.8827"/>
      <point x="391" y="254" type="curve"/>
      <point x="338" y="111"/>
      <point x="200" y="-296"/>
      <point x="79" y="-296" type="curve" smooth="yes"/>
      <point x="56" y="-296"/>
      <point x="40" y="-275"/>
      <point x="40" y="-247" type="curve" smooth="yes"/>
      <point x="40" y="-172"/>
      <point x="251.934" y="-94.9328"/>
      <point x="497" y="76.6641" type="curve"/>
    </contour>
  </outline>
</glyph>
<glyph name="k" format="2">
  <advance width="700"/>
  <unicode hex="006B"/>
  <outline>
    <contour>
      <point x="7" y="0" type="move" smooth="yes"/>
      <point x="195.546" y="81.6152"/>
      <point x="602.558" y="384.627"/>
      <point x="602.558" y="504.035" type="curve" smooth="yes"/>
      <point x="602.558" y="532.886"/>
      <point x="586.229" y="552.012"/>
      <point x="562.531" y="552.012" type="curve" smooth="yes"/>
      <point x="510.331" y="552.012"/>
      <point x="461" y="420"/>
      <point x="407.186" y="315" type="curve" smooth="yes"/>
      <point x="244" y="-6" type="line"/>
    </contour>
    <contour>
      <point x="244" y="-6" type="move"/>
      <point x="339" y="178"/>
      <point x="363.627" y="252.783"/>
      <point x="504.976" y="252.783" type="curve" smooth="yes"/>
      <point x="544" y="252.783"/>
      <point x="589.55" y="238.253"/>
      <point x="589.55" y="203.563" type="curve" smooth="yes"/>
      <point x="589.55" y="168.873"/>
      <point x="543.983" y="144.977"/>
      <point x="501.312" y="144.977" type="curve" smooth="yes"/>
      <point x="451.618" y="144.977"/>
      <point x="389.011" y="156.987"/>
      <point x="366" y="184" type="curve"/>
      <point x="366" y="117"/>
      <point x="404.72" y="-6.97656"/>
      <point x="500.954" y="-6.97656" type="curve" smooth="yes"/>
      <point x="531.199" y="-6.97656"/>
      <point x="596.77" y="4.71742"/>
      <point x="700" y="77" type="curve" smooth="yes"/>
    </contour>
  </outline>
</glyph>
<glyph name="l" format="2">
  <advance width="255"/>
  <unicode hex="006C"/>
  <outline>
    <contour>
      <point x="115" y="240" type="move"/>
      <point x="123.916" y="248.439"/>
      <point x="131.602" y="255.323"/>
      <point x="140" y="264" type="curve" smooth="yes"/>
      <point x="283.144" y="411.884"/>
      <point x="327.258" y="455.523"/>
      <point x="327.258" y="498" type="curve" smooth="yes"/>
      <point x="327.258" y="532.688"/>
      <point x="305.776" y="543.162"/>
      <point x="287" y="543.162" type="curve" smooth="yes"/>
      <point x="253.837" y="543.162"/>
      <point x="216.538" y="507.103"/>
      <point x="188" y="416" type="curve" smooth="yes"/>
      <point x="162" y="333"/>
      <point x="58" y="117"/>
      <point x="46" y="98" type="curve" smooth="yes"/>
      <point x="32.3543" y="76.3943"/>
      <point x="6.038" y="-5.47531"/>
      <point x="69" y="-5.47531" type="curve" smooth="yes"/>
      <point x="125.267" y="-5.47531"/>
      <point x="203.32" y="40.8131"/>
      <point x="255" y="77" type="curve" smooth="yes"/>
    </contour>
  </outline>
</glyph>
<glyph name="m" format="2">
  <advance width="841"/>
  <unicode hex="6D"/>
  <outline>
    <contour>
      <point x="6" y="-12" type="move"/>
      <point x="17.870287" y="4.096468"/>
      <point x="202.365" y="257.358"/>
      <point x="328.88" y="257.358" type="curve"/>
      <point x="348.209" y="257.358"/>
      <point x="355.964" y="246.347"/>
      <point x="355.964" y="229.135" type="curve"/>
      <point x="355.964" y="178"/>
      <point x="268.386" y="58.3711"/>
      <point x="221" y="-10" type="curve"/>
    </contour>
    <contour>
      <point x="221" y="-10" type="move"/>
      <point x="268.386" y="58.3711"/>
      <point x="392" y="256.773"/>
      <point x="510.262" y="256.773" type="curve"/>
      <point x="530.708" y="256.773"/>
      <point x="545.971" y="246.791"/>
      <point x="545.971" y="226.516" type="curve"/>
      <point x="545.971" y="202"/>
      <point x="494.001" y="111.157"/>
      <point x="416.92316" y="-12.307678" type="curve"/>
    </contour>
    <contour>
      <point x="416.595" y="-12.5109" type="move"/>
      <point x="494.001" y="111.157"/>
      <point x="578" y="258.977"/>
      <point x="690.159" y="258.977" type="curve"/>
      <point x="724" y="258.977"/>
      <point x="741" y="244"/>
      <point x="741" y="225" type="curve"/>
      <point x="741" y="209.01067"/>
      <point x="732.0007" y="192.24934"/>
      <point x="706" y="149.54143" type="curve"/>
      <point x="706" y="149.54143"/>
      <point x="664" y="81.012505"/>
      <point x="664" y="81.012505" type="curve"/>
      <point x="643.6007" y="46.605095"/>
      <point x="638.421" y="35.587032"/>
      <point x="638.421" y="20" type="curve"/>
      <point x="638.421" y="4.59357"/>
      <point x="649.892" y="-4.22254"/>
      <point x="673.121" y="-4.22254" type="curve"/>
      <point x="728" y="-4.22254"/>
      <point x="767.775" y="25.3916"/>
      <point x="841" y="76.6641" type="curve"/>
    </contour>
  </outline>
</glyph>
<glyph name="n" format="2">
  <advance width="627"/>
  <unicode hex="006E"/>
  <outline>
    <contour>
      <point x="0" y="-12" type="move" smooth="yes"/>
      <point x="0" y="-12"/>
      <point x="132" y="167"/>
      <point x="236" y="225" type="curve" smooth="yes"/>
      <point x="340" y="283"/>
      <point x="359" y="255"/>
      <point x="345" y="204" type="curve" smooth="yes"/>
      <point x="331" y="153"/>
      <point x="211" y="3"/>
      <point x="204" y="-7" type="curve"/>
      <point x="204" y="-7"/>
      <point x="272" y="80"/>
      <point x="297" y="118" type="curve"/>
      <point x="297" y="118"/>
      <point x="348" y="162"/>
      <point x="373" y="179" type="curve" smooth="yes"/>
      <point x="397" y="196"/>
      <point x="446" y="225"/>
      <point x="487" y="249" type="curve" smooth="yes"/>
      <point x="520" y="268"/>
      <point x="567" y="254"/>
      <point x="542" y="206" type="curve" smooth="yes"/>
      <point x="515" y="155"/>
      <point x="490.035" y="120.349"/>
      <point x="474" y="96" type="curve" smooth="yes"/>
      <point x="447" y="55"/>
      <point x="437.35" y="-4.39643"/>
      <point x="476" y="-7" type="curve" smooth="yes"/>
      <point x="509.923" y="-9.28513"/>
      <point x="568.414" y="35.9778"/>
      <point x="627" y="77" type="curve" smooth="yes"/>
    </contour>
  </outline>
</glyph>
<glyph name="p" format="2">
  <advance width="715"/>
  <unicode hex="0070"/>
  <outline>
    <contour>
      <point x="16" y="-7" type="move" smooth="yes"/>
      <point x="16" y="-7"/>
      <point x="207" y="51"/>
      <point x="361" y="257" type="curve"/>
      <point x="361" y="257"/>
      <point x="325" y="144"/>
      <point x="267" y="67" type="curve"/>
      <point x="267" y="67"/>
      <point x="163" y="-131"/>
      <point x="144" y="-180" type="curve" smooth="yes"/>
      <point x="125" y="-230"/>
      <point x="60" y="-316"/>
      <point x="16" y="-290" type="curve" smooth="yes"/>
      <point x="-28" y="-264"/>
      <point x="26" y="-161"/>
      <point x="98" y="-99" type="curve" smooth="yes"/>
      <point x="170" y="-37"/>
      <point x="220" y="15"/>
      <point x="308" y="120" type="curve" smooth="yes"/>
      <point x="396" y="225"/>
      <point x="486" y="274"/>
      <point x="534" y="257" type="curve" smooth="yes"/>
      <point x="576" y="242"/>
      <point x="589" y="175"/>
      <point x="561" y="126" type="curve" smooth="yes"/>
      <point x="534.761" y="80.3671"/>
      <point x="469.098" y="-7"/>
      <point x="382" y="-7" type="curve" smooth="yes"/>
      <point x="304" y="-5"/>
      <point x="275" y="11"/>
      <point x="256" y="32" type="curve"/>
      <point x="293.141" y="-19.9918"/>
      <point x="417.381" y="-8.00607"/>
      <point x="478" y="0" type="curve" smooth="yes"/>
      <point x="539.671" y="8.81014"/>
      <point x="665.441" y="42.2988"/>
      <point x="715" y="77" type="curve" smooth="yes"/>
    </contour>
  </outline>
</glyph>
<glyph name="q" format="2">
  <advance width="462"/>
  <unicode hex="0071"/>
  <outline>
    <contour>
      <point x="333" y="242" type="move" smooth="yes"/>
      <point x="333" y="242"/>
      <point x="308.717" y="251.106"/>
      <point x="270.47" y="251.106" type="curve" smooth="yes"/>
      <point x="215.577" y="251.106"/>
      <point x="131.92" y="232.35"/>
      <point x="50" y="141" type="curve"/>
      <point x="50" y="141"/>
      <point x="7.48097" y="82.5363"/>
      <point x="7.48097" y="44.8111" type="curve" smooth="yes"/>
      <point x="7.48097" y="42.4533"/>
      <point x="7.64706" y="40.1765"/>
      <point x="8" y="38" type="curve" smooth="yes"/>
      <point x="11.5929" y="15.8436"/>
      <point x="23.792" y="-14.5604"/>
      <point x="56.622" y="-14.5604" type="curve" smooth="yes"/>
      <point x="78.6164" y="-14.5604"/>
      <point x="109.87" y="-0.91426"/>
      <point x="154" y="38" type="curve" smooth="yes"/>
      <point x="264" y="135"/>
      <point x="300" y="161"/>
      <point x="336" y="240" type="curve"/>
      <point x="336" y="240"/>
      <point x="301" y="173"/>
      <point x="283" y="152" type="curve" smooth="yes"/>
      <point x="283" y="152"/>
      <point x="203" y="6"/>
      <point x="107" y="-173" type="curve"/>
      <point x="107" y="-173"/>
      <point x="79.9811" y="-219.861"/>
      <point x="79.9811" y="-254.059" type="curve" smooth="yes"/>
      <point x="79.9811" y="-272.494"/>
      <point x="87.8325" y="-287.249"/>
      <point x="112" y="-289" type="curve" smooth="yes"/>
      <point x="113.242" y="-289.09"/>
      <point x="114.474" y="-289.134"/>
      <point x="115.695" y="-289.134" type="curve" smooth="yes"/>
      <point x="182.285" y="-289.134"/>
      <point x="217" y="-157.298"/>
      <point x="217" y="-119" type="curve" smooth="yes"/>
      <point x="217" y="-80"/>
      <point x="214" y="-25"/>
      <point x="208" y="-2" type="curve"/>
      <point x="208" y="-2"/>
      <point x="229.669" y="-7.70474"/>
      <point x="262.6" y="-7.70474" type="curve" smooth="yes"/>
      <point x="321.175" y="-7.70474"/>
      <point x="423.041" y="49.7207"/>
      <point x="462" y="77" type="curve" smooth="yes"/>
    </contour>
  </outline>
</glyph>
<glyph name="r" format="2">
  <advance width="630"/>
  <unicode hex="0072"/>
  <outline>
    <contour>
      <point x="7" y="-7" type="move" smooth="yes"/>
      <point x="7" y="-7"/>
      <point x="226" y="13"/>
      <point x="415" y="270" type="curve"/>
      <point x="415" y="270"/>
      <point x="447" y="216"/>
      <point x="456" y="208" type="curve" smooth="yes"/>
      <point x="456" y="208"/>
      <point x="415" y="124"/>
      <point x="399" y="68" type="curve" smooth="yes"/>
      <point x="390.17" y="37.0963"/>
      <point x="386.324" y="-7"/>
      <point x="434" y="-7" type="curve" smooth="yes"/>
      <point x="478" y="-7"/>
      <point x="557.399" y="26.1639"/>
      <point x="630" y="77" type="curve" smooth="yes"/>
    </contour>
  </outline>
</glyph>
<glyph name="s" format="2">
  <advance width="493"/>
  <unicode hex="0073"/>
  <outline>
    <contour>
      <point x="0" y="0" type="move"/>
      <point x="0" y="0"/>
      <point x="154" y="54"/>
      <point x="212" y="97" type="curve" smooth="yes"/>
      <point x="270" y="140"/>
      <point x="386" y="264.48"/>
      <point x="386" y="264.48" type="curve"/>
      <point x="386" y="264.48"/>
      <point x="388.255" y="246.622"/>
      <point x="388.255" y="220.017" type="curve" smooth="yes"/>
      <point x="388.255" y="163.356"/>
      <point x="378.026" y="67.0199"/>
      <point x="314" y="19" type="curve" smooth="yes"/>
      <point x="303.932" y="11.4493"/>
      <point x="288.678" y="7.06278"/>
      <point x="270.845" y="7.06278" type="curve" smooth="yes"/>
      <point x="244.396" y="7.06278"/>
      <point x="212.276" y="16.7125"/>
      <point x="183" y="40" type="curve"/>
      <point x="207.624" y="19.6778"/>
      <point x="261.824" y="0.776542"/>
      <point x="319.823" y="0.776542" type="curve" smooth="yes"/>
      <point x="377.203" y="0.776542"/>
      <point x="472.088" y="62.4766"/>
      <point x="493" y="77" type="curve" smooth="yes"/>
    </contour>
  </outline>
</glyph>
<glyph name="t" format="2">
  <advance width="274"/>
  <unicode hex="0074"/>
  <outline>
    <contour>
      <point x="53" y="340" type="move"/>
      <point x="244" y="340" type="line"/>
    </contour>
    <contour>
      <point x="252" y="536" type="move"/>
      <point x="217.96" y="463"/>
      <point x="20.1982" y="109.285"/>
      <point x="20.1982" y="48.3301" type="curve" smooth="yes"/>
      <point x="20.1982" y="18.0908"/>
      <point x="53.9199" y="-2.64746"/>
      <point x="82.3105" y="-2.64746" type="curve" smooth="yes"/>
      <point x="144.813" y="-2.64746"/>
      <point x="202.889" y="27.2078"/>
      <point x="274" y="77" type="curve" smooth="yes"/>
    </contour>
  </outline>
</glyph>
<glyph name="u" format="2">
  <advance width="485"/>
  <unicode hex="0075"/>
  <outline>
    <contour>
      <point x="138" y="262" type="move"/>
      <point x="138" y="262"/>
      <point x="40.8809" y="103.653"/>
      <point x="40.8809" y="36.6953" type="curve" smooth="yes"/>
      <point x="40.8809" y="7.79883"/>
      <point x="68.6777" y="0.132812"/>
      <point x="92.2324" y="0.132812" type="curve" smooth="yes"/>
      <point x="128.223" y="0.132812"/>
      <point x="159.539" y="24.2188"/>
      <point x="187" y="45" type="curve" smooth="yes"/>
      <point x="224" y="73"/>
      <point x="347" y="194"/>
      <point x="388" y="262" type="curve"/>
      <point x="388" y="262"/>
      <point x="355" y="216"/>
      <point x="347" y="202" type="curve" smooth="yes"/>
      <point x="347" y="202"/>
      <point x="279.588" y="86.5391"/>
      <point x="279.588" y="35.3818" type="curve" smooth="yes"/>
      <point x="279.588" y="13.2139"/>
      <point x="290.812" y="-1.97559"/>
      <point x="339.023" y="-1.97559" type="curve" smooth="yes"/>
      <point x="371.409" y="-1.97559"/>
      <point x="434.897" y="40.5283"/>
      <point x="487" y="77" type="curve" smooth="yes"/>
    </contour>
  </outline>
</glyph>
<glyph name="v" format="2">
  <advance width="647"/>
  <unicode hex="0076"/>
  <outline>
    <contour>
      <point x="9" y="-3" type="move" smooth="yes"/>
      <point x="9" y="-3"/>
      <point x="213" y="234"/>
      <point x="298" y="253" type="curve" smooth="yes"/>
      <point x="383" y="272"/>
      <point x="370" y="186"/>
      <point x="319" y="118" type="curve" smooth="yes"/>
      <point x="268" y="50"/>
      <point x="259" y="-39"/>
      <point x="331" y="6" type="curve" smooth="yes"/>
      <point x="403" y="51"/>
      <point x="509" y="194"/>
      <point x="548" y="256" type="curve"/>
      <point x="548" y="256"/>
      <point x="567" y="171"/>
      <point x="625" y="171" type="curve" smooth="yes"/>
      <point x="648" y="171" type="line"/>
    </contour>
  </outline>
</glyph>
<glyph name="w" format="2">
  <advance width="830"/>
  <unicode hex="0077"/>
  <outline>
    <contour>
      <point x="9" y="-2" type="move" smooth="yes"/>
      <point x="101.149" y="0.88744"/>
      <point x="321.014" y="219.691"/>
      <point x="343.093" y="258" type="curve"/>
      <point x="331.635" y="235.25"/>
      <point x="222.408" y="87.8527"/>
      <point x="222.408" y="22.0353" type="curve" smooth="yes"/>
      <point x="222.408" y="6.20238"/>
      <point x="227.968" y="-9.90406"/>
      <point x="246.281" y="-9.90406" type="curve" smooth="yes"/>
      <point x="309.252" y="-9.90406"/>
      <point x="470.735" y="191.957"/>
      <point x="519.893" y="258" type="curve"/>
      <point x="506.904" y="237.497"/>
      <point x="402.481" y="108.176"/>
      <point x="402.481" y="35.6692" type="curve" smooth="yes"/>
      <point x="402.481" y="15.6191"/>
      <point x="412.27" y="-5.67909"/>
      <point x="434.143" y="-5.67909" type="curve" smooth="yes"/>
      <point x="510.347" y="-5.67909"/>
      <point x="657.919" y="218.591"/>
      <point x="691.893" y="258" type="curve"/>
      <point x="691.893" y="192"/>
      <point x="737" y="171.16"/>
      <point x="830" y="171" type="curve"/>
    </contour>
  </outline>
</glyph>
<glyph name="x" format="2">
  <advance width="586"/>
  <unicode hex="78"/>
  <outline>
    <contour>
      <point x="2" y="-12" type="move"/>
      <point x="55.3681" y="54.4854"/>
      <point x="211.066" y="259.249"/>
      <point x="340.153" y="259.249" type="curve"/>
      <point x="364.297" y="259.249"/>
      <point x="379.728" y="249.024"/>
      <point x="379.728" y="221.712" type="curve"/>
      <point x="379.728" y="152.331"/>
      <point x="309.297" y="94.0521"/>
      <point x="309.297" y="27.3129" type="curve"/>
      <point x="309.297" y="8.84898"/>
      <point x="333.225" y="-5.17676"/>
      <point x="372.698" y="-5.17676" type="curve"/>
      <point x="439.086" y="-5.17676"/>
      <point x="490.979" y="10.4648"/>
      <point x="586" y="77" type="curve"/>
    </contour>
    <contour>
      <point x="518" y="259" type="move"/>
      <point x="182" y="-4" type="line"/>
    </contour>
  </outline>
</glyph>
<glyph name="y" format="2">
  <advance width="690"/>
  <unicode hex="0079"/>
  <outline>
    <contour>
      <point x="10" y="-6" type="move"/>
      <point x="10" y="-6"/>
      <point x="210.374" y="257.594"/>
      <point x="317.472" y="257.594" type="curve" smooth="yes"/>
      <point x="338.18" y="257.594"/>
      <point x="349.323" y="245.624"/>
      <point x="349.323" y="225.237" type="curve" smooth="yes"/>
      <point x="349.323" y="156.81"/>
      <point x="185.501" y="-11.9942"/>
      <point x="296.982" y="-11.9942" type="curve" smooth="yes"/>
      <point x="341.013" y="-11.9942"/>
      <point x="505.857" y="115.37"/>
      <point x="579" y="258" type="curve"/>
      <point x="538.523" y="183.793"/>
      <point x="311.713" y="-288.583"/>
      <point x="226.824" y="-288.583" type="curve" smooth="yes"/>
      <point x="210.52" y="-288.583"/>
      <point x="196.585" y="-279.251"/>
      <point x="196.585" y="-255.329" type="curve" smooth="yes"/>
      <point x="196.585" y="-116.552"/>
      <point x="444.023" y="-95.2344"/>
      <point x="690" y="77" type="curve" smooth="yes"/>
    </contour>
  </outline>
</glyph>
<glyph name="z" format="2">
  <advance width="480"/>
  <unicode hex="007A"/>
  <outline>
    <contour>
      <point x="20" y="0" type="move"/>
      <point x="61.9043" y="47.5098"/>
      <point x="220" y="259.505"/>
      <point x="332.77" y="259.505" type="curve" smooth="yes"/>
      <point x="351.691" y="259.505"/>
      <point x="360.984" y="247.995"/>
      <point x="360.984" y="229.467" type="curve" smooth="yes"/>
      <point x="360.984" y="145"/>
      <point x="285.285" y="77.4791"/>
      <point x="229" y="23" type="curve"/>
      <point x="242.649" y="36.211"/>
      <point x="253.536" y="41.4271"/>
      <point x="262.199" y="41.4271" type="curve" smooth="yes"/>
      <point x="289.259" y="41.4271"/>
      <point x="294.609" y="-9.47013"/>
      <point x="294.609" y="-26.5575" type="curve" smooth="yes"/>
      <point x="294.609" y="-116"/>
      <point x="200.004" y="-290.203"/>
      <point x="123.667" y="-290.203" type="curve" smooth="yes"/>
      <point x="106.702" y="-290.203"/>
      <point x="91.4719" y="-282.502"/>
      <point x="91.4719" y="-259.073" type="curve" smooth="yes"/>
      <point x="91.4719" y="-148.629"/>
      <point x="289.866" y="-56.1328"/>
      <point x="480" y="77" type="curve"/>
    </contour>
  </outline>
</glyph>
<glyph name="braceleft" format="2">
  <advance width="546"/>
  <unicode hex="007B"/>
  <outline>
    <contour>
      <point x="545.824" y="540.953" type="move" smooth="yes"/>
      <point x="468.824" y="540.953" type="line" smooth="yes"/>
      <point x="381.824" y="540.953"/>
      <point x="367.237" y="381"/>
      <point x="281.596" y="311" type="curve" smooth="yes"/>
      <point x="201.285" y="246"/>
      <point x="153.869" y="230.096"/>
      <point x="79.959" y="226" type="curve"/>
      <point x="150.516" y="222.904"/>
      <point x="182.633" y="206"/>
      <point x="202.323" y="141" type="curve" smooth="yes"/>
      <point x="222.682" y="71"/>
      <point x="88.0947" y="-88.9531"/>
      <point x="175.095" y="-88.9531" type="curve" smooth="yes"/>
      <point x="252.095" y="-88.9531" type="line" smooth="yes"/>
    </contour>
  </outline>
</glyph>
<glyph name="bar" format="2">
  <advance width="289"/>
  <unicode hex="007C"/>
  <outline>
    <contour>
      <point x="289" y="540.953" type="move"/>
      <point x="38.6143" y="0" type="line"/>
    </contour>
  </outline>
</glyph>
<glyph name="braceright" format="2">
  <advance width="546"/>
  <unicode hex="007D"/>
  <outline>
    <contour>
      <point x="373.865" y="540.953" type="move" smooth="yes"/>
      <point x="450.865" y="540.953" type="line" smooth="yes"/>
      <point x="537.865" y="540.953"/>
      <point x="403.277" y="381"/>
      <point x="423.636" y="311" type="curve" smooth="yes"/>
      <point x="443.326" y="246"/>
      <point x="475.91" y="230.096"/>
      <point x="546" y="226" type="curve"/>
      <point x="472.557" y="222.904"/>
      <point x="424.674" y="206"/>
      <point x="344.364" y="141" type="curve" smooth="yes"/>
      <point x="258.723" y="71"/>
      <point x="244.135" y="-88.9531"/>
      <point x="157.135" y="-88.9531" type="curve" smooth="yes"/>
      <point x="80.1348" y="-88.9531" type="line" smooth="yes"/>
    </contour>
  </outline>
</glyph>
<glyph name="asciitilde" format="2">
  <advance width="395"/>
  <unicode hex="007E"/>
  <outline>
    <contour>
      <point x="100.093" y="217" type="move" smooth="yes"/>
      <point x="116.871" y="249.437"/>
      <point x="153.875" y="273.419"/>
      <point x="188.042" y="273.419" type="curve" smooth="yes"/>
      <point x="245.664" y="273.419"/>
      <point x="245.569" y="194.496"/>
      <point x="302.959" y="194.496" type="curve" smooth="yes"/>
      <point x="339.461" y="194.496"/>
      <point x="384.54" y="223.516"/>
      <point x="395.009" y="264" type="curve" smooth="yes"/>
    </contour>
  </outline>
</glyph>
<glyph name="exclamdown" format="2">
  <advance width="276"/>
  <unicode hex="00A1"/>
  <outline>
    <contour>
      <point x="262.332" y="504" type="curve" smooth="yes"/>
      <point x="262.332" y="494"/>
      <point x="254.332" y="486"/>
      <point x="244.332" y="486" type="curve" smooth="yes"/>
      <point x="234.332" y="486"/>
      <point x="226.332" y="494"/>
      <point x="226.332" y="504" type="curve" smooth="yes"/>
      <point x="226.332" y="514"/>
      <point x="234.332" y="522"/>
      <point x="244.332" y="522" type="curve" smooth="yes"/>
      <point x="254.332" y="522"/>
      <point x="262.332" y="514"/>
    </contour>
    <contour>
      <point x="194.588" y="371" type="move"/>
      <point x="14" y="-12" type="line"/>
    </contour>
  </outline>
</glyph>
<glyph name="cent" format="2">
  <advance width="319"/>
  <unicode hex="00A2"/>
  <outline>
    <contour>
      <point x="258" y="351" type="move"/>
      <point x="38.3691" y="-120" type="line"/>
    </contour>
    <contour>
      <point x="264" y="202" type="move" smooth="yes"/>
      <point x="275.658" y="227"/>
      <point x="236" y="256"/>
      <point x="187" y="256" type="curve" smooth="yes"/>
      <point x="138.906" y="256"/>
      <point x="94" y="232"/>
      <point x="59" y="162" type="curve" smooth="yes"/>
      <point x="24" y="92"/>
      <point x="19" y="0"/>
      <point x="88" y="-3" type="curve" smooth="yes"/>
      <point x="177.915" y="-6.90918"/>
      <point x="257.165" y="48.7715"/>
      <point x="297" y="76.6641" type="curve" smooth="yes"/>
    </contour>
  </outline>
</glyph>
<glyph name="sterling" format="2">
  <advance width="745"/>
  <unicode hex="00A3"/>
  <outline>
    <contour>
      <point x="740" y="423" type="move"/>
      <point x="740" y="504"/>
      <point x="675" y="547.2"/>
      <point x="599.305" y="547.2" type="curve" smooth="yes"/>
      <point x="477.839" y="547.2"/>
      <point x="426.391" y="403.637"/>
      <point x="383.51" y="317.205" type="curve" smooth="yes"/>
      <point x="328.79" y="206.91" type="line" smooth="yes"/>
      <point x="275.512" y="99.5215"/>
      <point x="180.875" y="0"/>
      <point x="74" y="0" type="curve" smooth="yes"/>
      <point x="74" y="0"/>
      <point x="-0.384766" y="1.70996"/>
      <point x="-0.384766" y="33.3447" type="curve" smooth="yes"/>
      <point x="-0.384766" y="64.9795"/>
      <point x="38.9443" y="72.6748"/>
      <point x="70.5801" y="72.6748" type="curve" smooth="yes"/>
      <point x="216.785" y="72.6748"/>
      <point x="272.359" y="-107.73"/>
      <point x="561.35" y="-107.73" type="curve" smooth="yes"/>
      <point x="623.759" y="-107.73"/>
      <point x="693.987" y="-83.5076"/>
      <point x="740.781" y="-62.2012" type="curve"/>
    </contour>
    <contour>
      <point x="233" y="239" type="move"/>
      <point x="534" y="239" type="line"/>
    </contour>
  </outline>
</glyph>
<glyph name="currency" format="2">
  <advance width="418"/>
  <unicode hex="00A4"/>
  <outline>
    <contour>
      <point x="316.43" y="152.051" type="move"/>
      <point x="316.43" y="152.051"/>
      <point x="299.763" y="168.8"/>
      <point x="274.321" y="194.321" type="curve"/>
    </contour>
    <contour>
      <point x="133.35" y="335.35" type="move"/>
      <point x="118.753" y="349.899"/>
      <point x="104.625" y="363.956"/>
      <point x="91.5703" y="376.91" type="curve"/>
    </contour>
    <contour>
      <point x="91.5703" y="152.051" type="move"/>
      <point x="91.5703" y="152.051"/>
      <point x="108.32" y="168.718"/>
      <point x="133.841" y="194.159" type="curve"/>
    </contour>
    <contour>
      <point x="274.493" y="334.753" type="move"/>
      <point x="289.176" y="349.484"/>
      <point x="303.364" y="363.743"/>
      <point x="316.43" y="376.91" type="curve"/>
    </contour>
    <contour>
      <point x="105" y="264.48" type="curve" smooth="yes"/>
      <point x="105" y="319.48"/>
      <point x="149" y="363.48"/>
      <point x="204" y="363.48" type="curve" smooth="yes"/>
      <point x="259" y="363.48"/>
      <point x="303" y="319.48"/>
      <point x="303" y="264.48" type="curve" smooth="yes"/>
      <point x="303" y="209.48"/>
      <point x="259" y="165.48"/>
      <point x="204" y="165.48" type="curve" smooth="yes"/>
      <point x="149" y="165.48"/>
      <point x="105" y="209.48"/>
    </contour>
  </outline>
</glyph>
<glyph name="yen" format="2">
  <advance width="607"/>
  <unicode hex="00A5"/>
  <outline>
    <contour>
      <point x="103" y="264.48" type="move"/>
      <point x="562" y="264.48" type="line"/>
    </contour>
    <contour>
      <point x="149.25" y="530.101" type="move"/>
      <point x="163" y="540.953"/>
      <point x="189.435" y="547.2"/>
      <point x="215.939" y="547.2" type="curve" smooth="yes"/>
      <point x="264.675" y="547.2"/>
      <point x="302.295" y="508.726"/>
      <point x="302.295" y="459.99" type="curve" smooth="yes"/>
      <point x="302.295" y="336.87"/>
      <point x="145.83" y="178.695"/>
      <point x="145.83" y="56.4307" type="curve" smooth="yes"/>
      <point x="145.83" y="28.2148"/>
      <point x="163.784" y="0"/>
      <point x="192" y="0" type="curve" smooth="yes"/>
      <point x="288.614" y="0"/>
      <point x="439.689" y="205.2"/>
      <point x="486.119" y="301.815" type="curve" smooth="yes"/>
      <point x="602.399" y="543.78" type="line"/>
      <point x="253.56" y="-179.55" type="line" smooth="yes"/>
      <point x="236.613" y="-214.689"/>
      <point x="215.231" y="-283.764"/>
      <point x="161.22" y="-283.859" type="curve" smooth="yes"/>
      <point x="135.569" y="-283.859"/>
      <point x="128.729" y="-261.63"/>
      <point x="128.729" y="-235.979" type="curve" smooth="yes"/>
      <point x="128.729" y="-179.444"/>
      <point x="258.848" y="-68.2422"/>
      <point x="337" y="-5" type="curve"/>
    </contour>
  </outline>
</glyph>
<glyph name="brokenbar" format="2">
  <advance width="289"/>
  <unicode hex="00A6"/>
  <outline>
    <contour>
      <point x="289" y="540.953" type="move"/>
      <point x="202.467" y="354" type="line"/>
    </contour>
    <contour>
      <point x="128.409" y="194" type="move"/>
      <point x="38.6143" y="0" type="line"/>
    </contour>
  </outline>
</glyph>
<glyph name="section" format="2">
  <advance width="360"/>
  <unicode hex="00A7"/>
  <outline>
    <contour>
      <point x="325.6" y="439.198" type="move"/>
      <point x="249.92" y="439.198"/>
      <point x="177.467" y="397.666"/>
      <point x="150.705" y="329" type="curve" smooth="yes"/>
      <point x="133.518" y="284.9"/>
      <point x="150.214" y="227.698"/>
      <point x="223.75" y="226.9" type="curve" smooth="yes"/>
      <point x="297.422" y="226.101"/>
      <point x="348" y="32.7002"/>
      <point x="130.104" y="32.7002" type="curve" smooth="yes"/>
    </contour>
    <contour>
      <point x="421.833" y="376.5" type="move"/>
      <point x="421.833" y="376.5"/>
      <point x="382.6" y="439.198"/>
      <point x="325.6" y="439.198" type="curve" smooth="yes"/>
      <point x="184.007" y="439.198"/>
      <point x="185.857" y="303.797"/>
      <point x="259.232" y="303" type="curve" smooth="yes"/>
      <point x="332.904" y="302.2"/>
      <point x="363" y="234"/>
      <point x="345.031" y="184.7" type="curve" smooth="yes"/>
      <point x="301.191" y="64.4199"/>
      <point x="216.554" y="32.7002"/>
      <point x="130.104" y="32.7002" type="curve" smooth="yes"/>
      <point x="76.5098" y="32.7002"/>
      <point x="32.0039" y="84.9502"/>
      <point x="37.0635" y="128.65" type="curve"/>
    </contour>
  </outline>
</glyph>
<glyph name="dieresis" format="2">
  <advance width="554"/>
  <unicode hex="00A8"/>
  <outline>
    <contour>
      <point x="413" y="540.953" type="curve" smooth="yes"/>
      <point x="413" y="550.953"/>
      <point x="421" y="558.953"/>
      <point x="431" y="558.953" type="curve" smooth="yes"/>
      <point x="441" y="558.953"/>
      <point x="449" y="550.953"/>
      <point x="449" y="540.953" type="curve" smooth="yes"/>
      <point x="449" y="530.953"/>
      <point x="441" y="522.953"/>
      <point x="431" y="522.953" type="curve" smooth="yes"/>
      <point x="421" y="522.953"/>
      <point x="413" y="530.953"/>
    </contour>
    <contour>
      <point x="229" y="540.953" type="curve" smooth="yes"/>
      <point x="229" y="550.953"/>
      <point x="237" y="558.953"/>
      <point x="247" y="558.953" type="curve" smooth="yes"/>
      <point x="257" y="558.953"/>
      <point x="265" y="550.953"/>
      <point x="265" y="540.953" type="curve" smooth="yes"/>
      <point x="265" y="530.953"/>
      <point x="257" y="522.953"/>
      <point x="247" y="522.953" type="curve" smooth="yes"/>
      <point x="237" y="522.953"/>
      <point x="229" y="530.953"/>
    </contour>
  </outline>
</glyph>
<glyph name="copyright" format="2">
  <advance width="741"/>
  <unicode hex="00A9"/>
  <outline>
    <contour>
      <point x="528.188" y="200.678" type="move"/>
      <point x="503.549" y="169.545"/>
      <point x="465.269" y="149.574"/>
      <point x="422.389" y="149.574" type="curve"/>
      <point x="347.555" y="149.574"/>
      <point x="286.73" y="213.349"/>
      <point x="286.73" y="287.814" type="curve"/>
      <point x="286.73" y="362.28"/>
      <point x="347.555" y="426.055"/>
      <point x="422.389" y="426.055" type="curve"/>
      <point x="464.84" y="426.055"/>
      <point x="502.783" y="406.48"/>
      <point x="527.083" y="375.92" type="curve"/>
    </contour>
    <contour>
      <point x="142.307" y="287.814" type="curve"/>
      <point x="142.307" y="444.088"/>
      <point x="266.416" y="575.723"/>
      <point x="420" y="575.723" type="curve"/>
      <point x="573.584" y="575.723"/>
      <point x="697.695" y="444.088"/>
      <point x="697.695" y="287.814" type="curve"/>
      <point x="697.695" y="127.794"/>
      <point x="573.584" y="0"/>
      <point x="420" y="0" type="curve"/>
      <point x="266.416" y="0"/>
      <point x="142.307" y="127.794"/>
    </contour>
  </outline>
</glyph>
<glyph name="ordfeminine" format="2">
  <advance width="514"/>
  <unicode hex="00AA"/>
  <outline>
    <contour>
      <point x="181" y="171" type="move"/>
      <point x="181" y="171"/>
      <point x="389" y="171"/>
      <point x="445" y="171" type="curve"/>
    </contour>
    <contour>
      <point x="367.169" y="489.11" type="move"/>
      <point x="367.169" y="489.11"/>
      <point x="344.144" y="501.764"/>
      <point x="311.61" y="501.764" type="curve"/>
      <point x="276.684" y="501.764"/>
      <point x="230.8" y="487.182"/>
      <point x="190.681" y="426.71" type="curve" smooth="yes"/>
      <point x="118.712" y="318.229"/>
      <point x="181.787" y="291.87"/>
      <point x="209.198" y="291.87" type="curve" smooth="yes"/>
      <point x="232.146" y="291.87"/>
      <point x="311.427" y="334.438"/>
      <point x="337.964" y="397.91" type="curve" smooth="yes"/>
      <point x="364.052" y="460.311"/>
      <point x="366.661" y="488.311"/>
      <point x="366.661" y="488.311" type="curve"/>
      <point x="366.661" y="488.311"/>
      <point x="366.081" y="481.11"/>
      <point x="363.176" y="471.51" type="curve"/>
      <point x="362.231" y="467.51"/>
      <point x="360.778" y="462.71"/>
      <point x="359.325" y="457.91" type="curve"/>
      <point x="352.569" y="434.71"/>
      <point x="343.052" y="405.91"/>
      <point x="341.381" y="399.51" type="curve"/>
      <point x="339.388" y="392.365"/>
      <point x="329.296" y="348.42"/>
      <point x="339.854" y="319.412" type="curve"/>
      <point x="345.278" y="304.507"/>
      <point x="356.156" y="293.545"/>
      <point x="376.384" y="293.545" type="curve"/>
      <point x="419.114" y="293.545"/>
      <point x="474.419" y="339.792"/>
      <point x="493.419" y="357.646" type="curve"/>
    </contour>
  </outline>
</glyph>
<glyph name="guillemotleft" format="2">
  <advance width="402"/>
  <unicode hex="00AB"/>
  <outline>
    <contour>
      <point x="356.56" y="405.343" type="move"/>
      <point x="176.266" y="264.48" type="line"/>
      <point x="256.975" y="123.618" type="line"/>
    </contour>
    <contour>
      <point x="196.56" y="405.343" type="move"/>
      <point x="46.2656" y="264.48" type="line"/>
      <point x="126.975" y="123.618" type="line"/>
    </contour>
  </outline>
</glyph>
<glyph name="logicalnot" format="2">
  <advance width="691"/>
  <unicode hex="00AC"/>
  <outline>
    <contour>
      <point x="124" y="264.48" type="move"/>
      <point x="124" y="264.48"/>
      <point x="421" y="264"/>
      <point x="636" y="264.48" type="curve"/>
      <point x="636" y="264.48"/>
      <point x="560" y="103"/>
      <point x="511.272" y="0" type="curve"/>
    </contour>
  </outline>
</glyph>
<glyph name="uni00AD" format="2">
  <advance width="342"/>
  <unicode hex="00AD"/>
  <outline>
    <contour>
      <point x="75" y="142" type="move"/>
      <point x="325" y="142" type="line"/>
    </contour>
  </outline>
</glyph>
<glyph name="registered" format="2">
  <advance width="741"/>
  <unicode hex="00AE"/>
  <outline>
    <contour>
      <point x="326.053" y="149.105" type="move"/>
      <point x="326.053" y="426.03" type="line"/>
      <point x="456.021" y="426.03" type="line" smooth="yes"/>
      <point x="466.973" y="426.03"/>
      <point x="478.024" y="425.85"/>
      <point x="488.684" y="423.337" type="curve" smooth="yes"/>
      <point x="499.342" y="420.824"/>
      <point x="509.514" y="415.986"/>
      <point x="517.798" y="408.824" type="curve" smooth="yes"/>
      <point x="526.084" y="401.663"/>
      <point x="532.405" y="392.286"/>
      <point x="536.089" y="381.974" type="curve" smooth="yes"/>
      <point x="539.771" y="371.66"/>
      <point x="540.871" y="360.459"/>
      <point x="539.469" y="349.6" type="curve" smooth="yes"/>
      <point x="537.028" y="330.725"/>
      <point x="526.58" y="312.84"/>
      <point x="510.773" y="302.24" type="curve" smooth="yes"/>
      <point x="502.871" y="296.939"/>
      <point x="493.802" y="293.485"/>
      <point x="484.457" y="291.693" type="curve" smooth="yes"/>
      <point x="475.111" y="289.902"/>
      <point x="465.537" y="289.783"/>
      <point x="456.021" y="289.783" type="curve" smooth="yes"/>
      <point x="326.791" y="289.783" type="line"/>
      <point x="526.914" y="149.105" type="line"/>
    </contour>
    <contour>
      <point x="145.307" y="287.814" type="curve"/>
      <point x="145.307" y="444.088"/>
      <point x="269.416" y="575.723"/>
      <point x="423" y="575.723" type="curve"/>
      <point x="576.584" y="575.723"/>
      <point x="700.695" y="444.088"/>
      <point x="700.695" y="287.814" type="curve"/>
      <point x="700.695" y="127.794"/>
      <point x="576.584" y="0"/>
      <point x="423" y="0" type="curve"/>
      <point x="269.416" y="0"/>
      <point x="145.307" y="127.794"/>
    </contour>
  </outline>
</glyph>
<glyph name="macron" format="2">
  <advance width="700"/>
  <unicode hex="00AF"/>
  <outline>
    <contour>
      <point x="370" y="540.953" type="move"/>
      <point x="572" y="540.953" type="line"/>
    </contour>
  </outline>
</glyph>
<glyph name="degree" format="2">
  <advance width="354"/>
  <unicode hex="00B0"/>
  <outline>
    <contour>
      <point x="208" y="455" type="curve" smooth="yes"/>
      <point x="208" y="486"/>
      <point x="233" y="511"/>
      <point x="264" y="511" type="curve" smooth="yes"/>
      <point x="295" y="511"/>
      <point x="320" y="486"/>
      <point x="320" y="455" type="curve" smooth="yes"/>
      <point x="320" y="424"/>
      <point x="295" y="399"/>
      <point x="264" y="399" type="curve" smooth="yes"/>
      <point x="233" y="399"/>
      <point x="208" y="424"/>
    </contour>
  </outline>
</glyph>
<glyph name="plusminus" format="2">
  <advance width="434"/>
  <unicode hex="00B1"/>
  <outline>
    <contour>
      <point x="255" y="448" type="move"/>
      <point x="255" y="146" type="line"/>
    </contour>
    <contour>
      <point x="118" y="294.48" type="move"/>
      <point x="396" y="294.48" type="line"/>
    </contour>
    <contour>
      <point x="132.1" y="50" type="move"/>
      <point x="382.1" y="50" type="line"/>
    </contour>
  </outline>
</glyph>
<glyph name="two.numr" format="2">
  <advance width="275"/>
  <unicode hex="00B2"/>
  <outline>
    <contour>
      <point x="184.199" y="574.55" type="move"/>
      <point x="164.399" y="518.45" type="line"/>
    </contour>
    <contour>
      <point x="164.399" y="518.45" type="move"/>
      <point x="164.399" y="518.45"/>
      <point x="188.44" y="559.215"/>
      <point x="225.707" y="559.215" type="curve" smooth="yes"/>
      <point x="244.887" y="559.215"/>
      <point x="280.764" y="544.419"/>
      <point x="280.764" y="509.879" type="curve" smooth="yes"/>
      <point x="280.764" y="442.162"/>
      <point x="165.752" y="359.438"/>
      <point x="50" y="251.7" type="curve"/>
      <point x="58.3613" y="253.768"/>
      <point x="109.201" y="272.321"/>
      <point x="167.914" y="272.321" type="curve" smooth="yes"/>
      <point x="198.878" y="272.321"/>
      <point x="232.032" y="267.161"/>
      <point x="262.299" y="251.7" type="curve"/>
    </contour>
  </outline>
</glyph>
<glyph name="three.numr" format="2">
  <advance width="293"/>
  <unicode hex="00B3"/>
  <outline>
    <contour>
      <point x="207.85" y="567.95" type="move"/>
      <point x="183.1" y="531.1" type="line"/>
    </contour>
    <contour>
      <point x="183.1" y="531.1" type="move"/>
      <point x="195.225" y="540.701"/>
      <point x="214.727" y="552.674"/>
      <point x="245.69" y="553.387" type="curve" smooth="yes"/>
      <point x="276.879" y="554.105"/>
      <point x="298.46" y="521.071"/>
      <point x="298.46" y="496.267" type="curve" smooth="yes"/>
      <point x="298.46" y="446.43"/>
      <point x="224.536" y="417.562"/>
      <point x="187.5" y="407.9" type="curve" smooth="yes"/>
      <point x="176.457" y="405.02"/>
      <point x="167.843" y="403.478"/>
      <point x="164.392" y="403.478" type="curve"/>
      <point x="171.934" y="403.5"/>
      <point x="182.934" y="407.35"/>
      <point x="187.5" y="407.35" type="curve" smooth="yes"/>
      <point x="207.134" y="407.35"/>
      <point x="234.892" y="377.791"/>
      <point x="234.892" y="338.067" type="curve" smooth="yes"/>
      <point x="234.892" y="294.6"/>
      <point x="185.115" y="255.299"/>
      <point x="125.21" y="255.299" type="curve" smooth="yes"/>
      <point x="89.8867" y="255.299"/>
      <point x="57.085" y="269.909"/>
      <point x="50" y="294.05" type="curve" smooth="yes"/>
    </contour>
  </outline>
</glyph>
<glyph name="acute" format="2">
  <advance width="452"/>
  <unicode hex="00B4"/>
  <outline>
    <contour>
      <point x="208" y="507" type="move"/>
      <point x="365" y="624" type="line"/>
    </contour>
  </outline>
</glyph>
<glyph name="mu" format="2">
  <advance width="369"/>
  <unicode hex="00B5"/>
  <outline>
    <contour>
      <point x="-102" y="-291" type="move"/>
      <point x="136.986" y="264.48" type="line"/>
    </contour>
    <contour>
      <point x="137" y="264.48" type="move"/>
      <point x="116" y="216" type="line" smooth="yes"/>
      <point x="50.1591" y="64"/>
      <point x="56" y="0"/>
      <point x="127" y="0" type="curve" smooth="yes"/>
      <point x="230" y="0"/>
      <point x="314.216" y="113.339"/>
      <point x="339" y="171.16" type="curve" smooth="yes"/>
      <point x="379" y="264.48" type="line"/>
      <point x="280.054" y="0" type="line"/>
    </contour>
  </outline>
</glyph>
<glyph name="paragraph" format="2">
  <advance width="630"/>
  <unicode hex="00B6"/>
  <outline>
    <contour>
      <point x="554" y="540.953" type="move"/>
      <point x="304.081" y="0" type="line"/>
    </contour>
    <contour>
      <point x="467" y="540.953" type="move"/>
      <point x="215.682" y="0" type="line"/>
    </contour>
    <contour>
      <point x="630" y="540.953" type="move"/>
      <point x="371" y="540.953" type="line" smooth="yes"/>
      <point x="320.882" y="540.953"/>
      <point x="244.522" y="518.478"/>
      <point x="200" y="423" type="curve" smooth="yes"/>
      <point x="155.234" y="327"/>
      <point x="175.603" y="264.48"/>
      <point x="210" y="264.48" type="curve" smooth="yes"/>
      <point x="426" y="264.48" type="line"/>
    </contour>
  </outline>
</glyph>
<glyph name="periodcentered" format="2">
  <advance width="104"/>
  <unicode hex="00B7"/>
  <outline>
    <contour>
      <point x="34" y="265" type="curve" smooth="yes"/>
      <point x="34" y="275"/>
      <point x="42" y="283"/>
      <point x="52" y="283" type="curve" smooth="yes"/>
      <point x="62" y="283"/>
      <point x="70" y="275"/>
      <point x="70" y="265" type="curve" smooth="yes"/>
      <point x="70" y="255"/>
      <point x="62" y="247"/>
      <point x="52" y="247" type="curve" smooth="yes"/>
      <point x="42" y="247"/>
      <point x="34" y="255"/>
    </contour>
  </outline>
</glyph>
<glyph name="cedilla" format="2">
  <advance width="150"/>
  <unicode hex="B8"/>
  <outline>
    <contour>
      <point x="51.99994" y="0" type="move"/>
      <point x="19.824936" y="-69" type="curve"/>
      <point x="26.30394" y="-61.5047"/>
      <point x="36.918945" y="-57.7738"/>
      <point x="46.781937" y="-57.7738" type="curve"/>
      <point x="56.99994" y="-57.7738"/>
      <point x="70.698944" y="-63"/>
      <point x="70.698944" y="-75.8877" type="curve"/>
      <point x="70.698944" y="-101"/>
      <point x="53.183945" y="-120.085"/>
      <point x="22.252945" y="-120.085" type="curve"/>
      <point x="15.262939" y="-120.085"/>
      <point x="9.629944" y="-118.301"/>
      <point x="6.999939" y="-116" type="curve"/>
    </contour>
  </outline>
</glyph>
<glyph name="one.numr" format="2">
  <advance width="188"/>
  <unicode hex="00B9"/>
  <outline>
    <contour>
      <point x="193.109" y="559.7" type="move"/>
      <point x="50" y="255" type="line"/>
    </contour>
  </outline>
</glyph>
<glyph name="ordmasculine" format="2">
  <advance width="426"/>
  <unicode hex="00BA"/>
  <outline>
    <contour>
      <point x="120" y="171.16" type="move"/>
      <point x="120" y="171.16"/>
      <point x="248" y="171.16"/>
      <point x="304" y="171.16" type="curve"/>
    </contour>
    <contour>
      <point x="294.769" y="467.734" type="move" smooth="yes"/>
      <point x="294.769" y="467.734"/>
      <point x="273.188" y="502.981"/>
      <point x="237.178" y="502.981" type="curve" smooth="yes"/>
      <point x="196.022" y="502.981"/>
      <point x="120.887" y="443.122"/>
      <point x="137.733" y="347.591" type="curve" smooth="yes"/>
      <point x="143.236" y="316.38"/>
      <point x="170.104" y="285.075"/>
      <point x="210.12" y="285.075" type="curve" smooth="yes"/>
      <point x="268.777" y="285.075"/>
      <point x="315.728" y="361.062"/>
      <point x="301.929" y="439.317" type="curve" smooth="yes"/>
      <point x="300.452" y="447.695"/>
      <point x="298.278" y="456.1"/>
      <point x="295.349" y="464.438" type="curve"/>
      <point x="310.992" y="450.341"/>
      <point x="355.857" y="429.83"/>
      <point x="412.691" y="429.83" type="curve" smooth="yes"/>
    </contour>
  </outline>
</glyph>
<glyph name="guillemotright" format="2">
  <advance width="402"/>
  <unicode hex="00BB"/>
  <outline>
    <contour>
      <point x="163.793" y="405.343" type="move"/>
      <point x="244.502" y="264.48" type="line"/>
      <point x="54.207" y="123.618" type="line"/>
    </contour>
    <contour>
      <point x="293.793" y="405.343" type="move"/>
      <point x="374.502" y="264.48" type="line"/>
      <point x="204.207" y="123.618" type="line"/>
    </contour>
  </outline>
</glyph>
<glyph name="questiondown" format="2">
  <advance width="357"/>
  <unicode hex="00BF"/>
  <outline>
    <contour>
      <point x="361.946" y="486" type="curve" smooth="yes"/>
      <point x="361.946" y="476"/>
      <point x="353.946" y="468"/>
      <point x="343.946" y="468" type="curve" smooth="yes"/>
      <point x="333.946" y="468"/>
      <point x="325.946" y="476"/>
      <point x="325.946" y="486" type="curve" smooth="yes"/>
      <point x="325.946" y="496"/>
      <point x="333.946" y="504"/>
      <point x="343.946" y="504" type="curve" smooth="yes"/>
      <point x="353.946" y="504"/>
      <point x="361.946" y="496"/>
    </contour>
    <contour>
      <point x="294.202" y="353" type="move"/>
      <point x="218.992" y="196" type="line"/>
      <point x="145.992" y="196"/>
      <point x="58.0703" y="164"/>
      <point x="21.6982" y="86" type="curve" smooth="yes"/>
      <point x="-8.62402" y="20.9727"/>
      <point x="29.0303" y="-12"/>
      <point x="74" y="-12" type="curve" smooth="yes"/>
      <point x="127.946" y="-12"/>
      <point x="235.854" y="22"/>
      <point x="249.844" y="52" type="curve" smooth="yes"/>
    </contour>
  </outline>
</glyph>
<glyph name="AE" format="2">
  <advance width="799"/>
  <unicode hex="00C6"/>
  <outline>
    <contour>
      <point x="101.75" y="434.42" type="move"/>
      <point x="153.55" y="495.32"/>
      <point x="207.2" y="542.01"/>
      <point x="286.75" y="542.01" type="curve" smooth="yes"/>
      <point x="535.75" y="542.01"/>
      <point x="381.034" y="0.511719"/>
      <point x="129.842" y="0.511719" type="curve" smooth="yes"/>
      <point x="40.001" y="0.511719"/>
      <point x="10.5703" y="47.6367"/>
      <point x="10.5703" y="124.528" type="curve" smooth="yes"/>
      <point x="10.5703" y="227.66"/>
      <point x="99.9004" y="286.555"/>
      <point x="264.55" y="286.555" type="curve" smooth="yes"/>
      <point x="623" y="286.555"/>
      <point x="670.636" y="316"/>
      <point x="670.636" y="432.065" type="curve" smooth="yes"/>
      <point x="670.636" y="504.559"/>
      <point x="643.031" y="543.602"/>
      <point x="587.147" y="543.602" type="curve" smooth="yes"/>
      <point x="485.413" y="543.602"/>
      <point x="345.652" y="141.031"/>
      <point x="345.652" y="86.1406" type="curve" smooth="yes"/>
      <point x="345.652" y="48.5635"/>
      <point x="357.154" y="-3.70605"/>
      <point x="433.404" y="-3.70605" type="curve" smooth="yes"/>
      <point x="540" y="-3.70605"/>
      <point x="712" y="133"/>
      <point x="799" y="264.48" type="curve" smooth="yes"/>
    </contour>
  </outline>
</glyph>
<glyph name="Ccedilla" format="2">
  <advance width="628"/>
  <unicode hex="C7"/>
  <outline>
    <contour>
      <point x="542.7" y="547.2" type="move"/>
      <point x="532.44" y="504.45" type="line"/>
    </contour>
    <contour>
      <point x="532.44" y="504.45" type="move"/>
      <point x="532.44" y="523"/>
      <point x="490" y="552.33"/>
      <point x="433.261" y="552.33" type="curve"/>
      <point x="293.04" y="552.33"/>
      <point x="63.9004" y="380.476"/>
      <point x="63.9004" y="174.42" type="curve"/>
      <point x="63.9004" y="77.0459"/>
      <point x="118.641" y="0"/>
      <point x="252" y="0" type="curve"/>
      <point x="432.794" y="0"/>
      <point x="540.99" y="165.016"/>
      <point x="628.2" y="270.181" type="curve"/>
    </contour>
    <contour>
      <point x="252" y="0" type="move"/>
      <point x="219.825" y="-69" type="line"/>
      <point x="226.304" y="-61.5047"/>
      <point x="236.919" y="-57.7738"/>
      <point x="246.782" y="-57.7738" type="curve"/>
      <point x="257" y="-57.7738"/>
      <point x="270.699" y="-63"/>
      <point x="270.699" y="-75.8877" type="curve"/>
      <point x="270.699" y="-101"/>
      <point x="253.184" y="-120.085"/>
      <point x="222.253" y="-120.085" type="curve"/>
      <point x="215.263" y="-120.085"/>
      <point x="209.63" y="-118.301"/>
      <point x="207" y="-116" type="curve"/>
    </contour>
  </outline>
</glyph>
<glyph name="Eth" format="2">
  <advance width="714"/>
  <unicode hex="00D0"/>
  <outline>
    <contour>
      <point x="174" y="264.48" type="move" smooth="yes"/>
      <point x="263" y="264"/>
      <point x="312" y="264"/>
      <point x="401" y="264.48" type="curve" smooth="yes"/>
    </contour>
    <contour>
      <point x="534" y="548" type="move" smooth="yes"/>
      <point x="512.95" y="548"/>
      <point x="403.964" y="534.316"/>
      <point x="345.12" y="422.37" type="curve" smooth="yes"/>
      <point x="204.899" y="155.61" type="line" smooth="yes"/>
      <point x="180.137" y="108.501"/>
      <point x="157.02" y="3.41992"/>
      <point x="76.6494" y="3.41992" type="curve" smooth="yes"/>
      <point x="52.71" y="3.41992"/>
      <point x="25.3496" y="11.9707"/>
      <point x="25.3496" y="35.9102" type="curve" smooth="yes"/>
      <point x="25.3496" y="109.44"/>
      <point x="98.8799" y="128.25"/>
      <point x="189.51" y="128.25" type="curve" smooth="yes"/>
      <point x="235.68" y="128.25"/>
      <point x="252.779" y="0"/>
      <point x="393" y="0" type="curve" smooth="yes"/>
      <point x="579.39" y="0"/>
      <point x="712.77" y="241.775"/>
      <point x="712.77" y="355.681" type="curve" smooth="yes"/>
      <point x="712.77" y="446.311"/>
      <point x="675.149" y="548.91"/>
      <point x="584.52" y="548.91" type="curve" smooth="yes"/>
      <point x="535.784" y="548.91"/>
      <point x="464.819" y="548.468"/>
      <point x="464.819" y="513" type="curve" smooth="yes"/>
      <point x="464.819" y="453.15"/>
      <point x="541.77" y="441.181"/>
      <point x="601.62" y="441.181" type="curve" smooth="yes"/>
      <point x="725.595" y="441.181"/>
      <point x="900.87" y="548.91"/>
      <point x="900.87" y="548.91" type="curve"/>
    </contour>
  </outline>
</glyph>
<glyph name="multiply" format="2">
  <advance width="546"/>
  <unicode hex="00D7"/>
  <outline>
    <contour>
      <point x="406" y="396.48" type="move"/>
      <point x="140.52" y="132" type="line"/>
    </contour>
    <contour>
      <point x="140.52" y="396.48" type="move"/>
      <point x="406" y="132" type="line"/>
    </contour>
  </outline>
</glyph>
<glyph name="Oslash" format="2">
  <advance width="613"/>
  <unicode hex="D8"/>
  <outline>
    <contour>
      <point x="414" y="540.953" type="move"/>
      <point x="344" y="540.953"/>
      <point x="234.923" y="473"/>
      <point x="166" y="319" type="curve"/>
      <point x="102" y="176"/>
      <point x="125" y="0"/>
      <point x="256" y="0" type="curve"/>
      <point x="410" y="0"/>
      <point x="495.853" y="106"/>
      <point x="542" y="264.48" type="curve"/>
      <point x="590.104" y="429.68"/>
      <point x="492" y="540.953"/>
      <point x="414" y="540.953" type="curve"/>
    </contour>
    <contour>
      <point x="565" y="540.953" type="move"/>
      <point x="81" y="0" type="line"/>
    </contour>
  </outline>
</glyph>
<glyph name="Thorn" format="2">
  <advance width="557"/>
  <unicode hex="00DE"/>
  <outline>
    <contour>
      <point x="37.25" y="282.149" type="move"/>
      <point x="147.093" y="339.921"/>
      <point x="257.433" y="395.59"/>
      <point x="345.05" y="547.2" type="curve"/>
      <point x="80" y="0" type="line"/>
      <point x="150.162" y="145.35" type="line" smooth="yes"/>
      <point x="197.14" y="242.671"/>
      <point x="268" y="411.824"/>
      <point x="437.425" y="411.824" type="curve" smooth="yes"/>
      <point x="509" y="411.824"/>
      <point x="544.225" y="343.424"/>
      <point x="544.225" y="292.124" type="curve" smooth="yes"/>
      <point x="544.225" y="196"/>
      <point x="455.311" y="120.716"/>
      <point x="350.146" y="120.716" type="curve" smooth="yes"/>
      <point x="302.265" y="120.716"/>
      <point x="219.33" y="144.655"/>
      <point x="180" y="171.16" type="curve"/>
    </contour>
  </outline>
</glyph>
<glyph name="germandbls" format="2">
  <advance width="560"/>
  <unicode hex="00DF"/>
  <outline>
    <contour>
      <point x="81.8828" y="171.16" type="move"/>
      <point x="156" y="205.62"/>
      <point x="234.162" y="297.181"/>
      <point x="262.05" y="342.2" type="curve"/>
      <point x="-3" y="-205" type="line"/>
      <point x="67.1611" y="-59.6494" type="line" smooth="yes"/>
      <point x="231.186" y="280.155"/>
      <point x="288.338" y="336.12"/>
      <point x="397.351" y="336.12" type="curve" smooth="yes"/>
      <point x="484.56" y="336.12"/>
      <point x="513.63" y="277.98"/>
      <point x="513.63" y="234.375" type="curve" smooth="yes"/>
      <point x="513.63" y="103.561"/>
      <point x="361.013" y="74.4902"/>
      <point x="331.942" y="74.4902" type="curve" smooth="yes"/>
      <point x="305.738" y="74.4902"/>
      <point x="270.921" y="81.8008"/>
      <point x="281.069" y="103.561" type="curve" smooth="yes"/>
      <point x="285.984" y="114.1"/>
      <point x="299.643" y="125.362"/>
      <point x="318.64" y="125.362" type="curve" smooth="yes"/>
      <point x="386.343" y="125.362"/>
      <point x="404.487" y="60.96"/>
      <point x="404.617" y="1.81543" type="curve" smooth="yes"/>
      <point x="404.79" y="-77.04"/>
      <point x="331.942" y="-129"/>
      <point x="252" y="-129" type="curve" smooth="yes"/>
      <point x="128.452" y="-129"/>
      <point x="106.65" y="-54"/>
      <point x="106.65" y="-5.45215" type="curve"/>
      <point x="122" y="-34"/>
      <point x="159" y="-63.5928"/>
      <point x="250.197" y="-63.5928" type="curve" smooth="yes"/>
      <point x="337" y="-63.5928"/>
      <point x="431.581" y="-13.2559"/>
      <point x="560" y="76.6641" type="curve"/>
    </contour>
  </outline>
</glyph>
<glyph name="ae" format="2">
  <advance width="402"/>
  <unicode hex="00E6"/>
  <outline>
    <contour>
      <point x="55" y="214" type="move"/>
      <point x="83" y="244"/>
      <point x="112" y="267"/>
      <point x="155" y="267" type="curve" smooth="yes"/>
      <point x="209.083" y="267"/>
      <point x="224.61" y="208.687"/>
      <point x="224.61" y="189.516" type="curve" smooth="yes"/>
      <point x="224.61" y="94.5449"/>
      <point x="141.372" y="-4.67383"/>
      <point x="70.1846" y="-4.67383" type="curve" smooth="yes"/>
      <point x="21.6221" y="-4.67383"/>
      <point x="5.71387" y="33.3184"/>
      <point x="5.71387" y="71.1963" type="curve" smooth="yes"/>
      <point x="5.71387" y="122"/>
      <point x="54" y="141.16"/>
      <point x="143" y="141.16" type="curve" smooth="yes"/>
      <point x="221.812" y="141.16"/>
      <point x="362.506" y="171.32"/>
      <point x="362.506" y="222.692" type="curve" smooth="yes"/>
      <point x="362.506" y="238.205"/>
      <point x="354.298" y="253.004"/>
      <point x="335" y="263.16" type="curve" smooth="yes"/>
      <point x="328.939" y="266.35"/>
      <point x="323.057" y="267.784"/>
      <point x="317.377" y="267.784" type="curve" smooth="yes"/>
      <point x="287.442" y="267.784"/>
      <point x="263.129" y="227.94"/>
      <point x="248" y="195.16" type="curve" smooth="yes"/>
      <point x="230" y="156.16"/>
      <point x="194" y="88.1602"/>
      <point x="188" y="56.1602" type="curve"/>
      <point x="188" y="56.1602"/>
      <point x="186.839" y="50.4326"/>
      <point x="186.839" y="42.4336" type="curve" smooth="yes"/>
      <point x="186.839" y="23.9229"/>
      <point x="193.057" y="-6.75195"/>
      <point x="234.272" y="-6.75195" type="curve" smooth="yes"/>
      <point x="265.778" y="-6.75195"/>
      <point x="340.563" y="33.1416"/>
      <point x="402" y="76.1602" type="curve" smooth="yes"/>
    </contour>
  </outline>
</glyph>
<glyph name="ccedilla" format="2">
  <advance width="278"/>
  <unicode hex="00E7"/>
  <outline>
    <contour>
      <point x="233" y="207" type="move" smooth="yes"/>
      <point x="233" y="221.783"/>
      <point x="215" y="254.922"/>
      <point x="168" y="256" type="curve" smooth="yes"/>
      <point x="119.919" y="257.103"/>
      <point x="75" y="232"/>
      <point x="40" y="162" type="curve" smooth="yes"/>
      <point x="5" y="92"/>
      <point x="0" y="0"/>
      <point x="69" y="-3" type="curve" smooth="yes"/>
      <point x="104.24" y="-4.53216"/>
      <point x="137.841" y="3.08882"/>
      <point x="168.074" y="14.6028" type="curve"/>
      <point x="85.7223" y="-162" type="line"/>
      <point x="156" y="-12"/>
      <point x="193.922" y="17.792"/>
      <point x="278" y="76.6639" type="curve"/>
    </contour>
  </outline>
</glyph>
<glyph name="eth" format="2">
  <advance width="351"/>
  <unicode hex="00F0"/>
  <outline>
    <contour>
      <point x="254" y="420" type="move"/>
      <point x="82" y="294" type="line"/>
    </contour>
    <contour>
      <point x="214" y="241.668" type="move"/>
      <point x="203" y="253"/>
      <point x="185" y="260"/>
      <point x="165" y="260" type="curve" smooth="yes"/>
      <point x="149.617" y="260"/>
      <point x="139.597" y="258.382"/>
      <point x="120.372" y="249.471" type="curve" smooth="yes"/>
      <point x="68.8594" y="225.593"/>
      <point x="9.71387" y="161.538"/>
      <point x="9.71387" y="71.1963" type="curve" smooth="yes"/>
      <point x="9.71387" y="33.3184"/>
      <point x="35.6221" y="-4.67383"/>
      <point x="84.1846" y="-4.67383" type="curve" smooth="yes"/>
      <point x="155.243" y="-4.67383"/>
      <point x="248.609" y="70.2625"/>
      <point x="248.609" y="162" type="curve" smooth="yes"/>
      <point x="248.609" y="264.48"/>
      <point x="229" y="342"/>
      <point x="170" y="445" type="curve" smooth="yes"/>
      <point x="155" y="471"/>
      <point x="124" y="493"/>
      <point x="100" y="475" type="curve" smooth="yes"/>
      <point x="75" y="456"/>
      <point x="89.5381" y="422.324"/>
      <point x="105" y="396" type="curve" smooth="yes"/>
      <point x="226" y="190"/>
      <point x="302" y="171.16"/>
      <point x="351" y="171.16" type="curve" smooth="yes"/>
    </contour>
  </outline>
</glyph>
<glyph name="divide" format="2">
  <advance width="400"/>
  <unicode hex="00F7"/>
  <outline>
    <contour>
      <point x="109.993" y="32" type="curve" smooth="yes"/>
      <point x="109.993" y="42"/>
      <point x="117.993" y="50"/>
      <point x="127.993" y="50" type="curve" smooth="yes"/>
      <point x="137.993" y="50"/>
      <point x="145.993" y="42"/>
      <point x="145.993" y="32" type="curve" smooth="yes"/>
      <point x="145.993" y="22"/>
      <point x="137.993" y="14"/>
      <point x="127.993" y="14" type="curve" smooth="yes"/>
      <point x="117.993" y="14"/>
      <point x="109.993" y="22"/>
    </contour>
    <contour>
      <point x="210" y="246.48" type="curve" smooth="yes"/>
      <point x="210" y="256.48"/>
      <point x="218" y="264.48"/>
      <point x="228" y="264.48" type="curve" smooth="yes"/>
      <point x="238" y="264.48"/>
      <point x="246" y="256.48"/>
      <point x="246" y="246.48" type="curve" smooth="yes"/>
      <point x="246" y="236.48"/>
      <point x="238" y="228.48"/>
      <point x="228" y="228.48" type="curve" smooth="yes"/>
      <point x="218" y="228.48"/>
      <point x="210" y="236.48"/>
    </contour>
    <contour>
      <point x="75" y="142" type="move"/>
      <point x="325" y="142" type="line"/>
    </contour>
  </outline>
</glyph>
<glyph name="oslash" format="2">
  <advance width="321"/>
  <unicode hex="00F8"/>
  <outline>
    <contour>
      <point x="304" y="264.48" type="move"/>
      <point x="-21" y="0" type="line"/>
    </contour>
    <contour>
      <point x="124.372" y="249.471" type="move"/>
      <point x="72.8594" y="225.593"/>
      <point x="9.71387" y="161.538"/>
      <point x="9.71387" y="71.1963" type="curve" smooth="yes"/>
      <point x="9.71387" y="33.3184"/>
      <point x="35.6221" y="-4.67383"/>
      <point x="84.1846" y="-4.67383" type="curve" smooth="yes"/>
      <point x="155.372" y="-4.67383"/>
      <point x="238.61" y="87.5449"/>
      <point x="238.61" y="182.516" type="curve" smooth="yes"/>
      <point x="238.61" y="201.687"/>
      <point x="223.083" y="260"/>
      <point x="169" y="260" type="curve" smooth="yes"/>
      <point x="153.617" y="260"/>
      <point x="127" y="258"/>
      <point x="120" y="238" type="curve" smooth="yes"/>
      <point x="101.103" y="185.087"/>
      <point x="263" y="171.16"/>
      <point x="321" y="171.16" type="curve" smooth="yes"/>
    </contour>
  </outline>
</glyph>
<glyph name="thorn" format="2">
  <advance width="740"/>
  <unicode hex="00FE"/>
  <outline>
    <contour>
      <point x="2" y="-12" type="move" smooth="yes"/>
      <point x="2" y="-12"/>
      <point x="172" y="71"/>
      <point x="283" y="159" type="curve" smooth="yes"/>
      <point x="394" y="247"/>
      <point x="529" y="368"/>
      <point x="545" y="381" type="curve" smooth="yes"/>
      <point x="562.071" y="394.87"/>
      <point x="622.113" y="450.941"/>
      <point x="622.113" y="492.257" type="curve" smooth="yes"/>
      <point x="622.113" y="530.711"/>
      <point x="598.104" y="544.315"/>
      <point x="581.577" y="544.315" type="curve" smooth="yes"/>
      <point x="566.285" y="544.315"/>
      <point x="535.595" y="538.63"/>
      <point x="510" y="490" type="curve" smooth="yes"/>
      <point x="480" y="433"/>
      <point x="397.492" y="251.285"/>
      <point x="364" y="191" type="curve" smooth="yes"/>
      <point x="359" y="182"/>
      <point x="109" y="-291"/>
      <point x="109" y="-291" type="curve"/>
      <point x="109" y="-291"/>
      <point x="318" y="125"/>
      <point x="349" y="153" type="curve" smooth="yes"/>
      <point x="395.315" y="194.833"/>
      <point x="503.772" y="257.556"/>
      <point x="562.786" y="257.556" type="curve" smooth="yes"/>
      <point x="580.829" y="257.556"/>
      <point x="597.881" y="251.568"/>
      <point x="597.881" y="228.931" type="curve" smooth="yes"/>
      <point x="597.881" y="214.254"/>
      <point x="587.943" y="189.263"/>
      <point x="572" y="161" type="curve" smooth="yes"/>
      <point x="550" y="122"/>
      <point x="510.321" y="81.791"/>
      <point x="510.258" y="30.2555" type="curve" smooth="yes"/>
      <point x="510.238" y="13.4106"/>
      <point x="519.674" y="-10.0889"/>
      <point x="545.469" y="-10.0889" type="curve" smooth="yes"/>
      <point x="588" y="-10.0889"/>
      <point x="677.718" y="35.9849"/>
      <point x="740" y="77" type="curve" smooth="yes"/>
    </contour>
  </outline>
</glyph>
<glyph name="dcroat" format="2">
  <advance width="463"/>
  <unicode hex="111"/>
  <outline>
    <contour>
      <point x="329" y="251" type="move"/>
      <point x="329" y="251"/>
      <point x="304.142" y="259.39"/>
      <point x="266.857" y="259.39" type="curve"/>
      <point x="209.549" y="259.39"/>
      <point x="122.883" y="239.569"/>
      <point x="52" y="139" type="curve"/>
      <point x="20.5086" y="94.3199"/>
      <point x="8.22992" y="62.7318"/>
      <point x="8.22992" y="41.2301" type="curve"/>
      <point x="8.22992" y="12.6522"/>
      <point x="29.9207" y="1.89174"/>
      <point x="57.0207" y="1.89174" type="curve"/>
      <point x="232.001" y="1.89174"/>
      <point x="396.492" y="380.825"/>
      <point x="484" y="544" type="curve"/>
    </contour>
    <contour>
      <point x="484" y="544" type="move"/>
      <point x="432.087" y="428.856"/>
      <point x="225.121" y="77"/>
      <point x="225.121" y="36.9854" type="curve"/>
      <point x="225.121" y="11.0625"/>
      <point x="234.185" y="-10.6504"/>
      <point x="264.551" y="-10.6504" type="curve"/>
      <point x="360.822" y="-10.6504"/>
      <point x="445.175" y="64.179"/>
      <point x="463" y="76.66" type="curve"/>
    </contour>
    <contour>
      <point x="317.50006" y="428.75006" type="move"/>
      <point x="532.50006" y="428.75006" type="line"/>
    </contour>
  </outline>
</glyph>
<glyph name="OE" format="2">
  <advance width="1039"/>
  <unicode hex="152"/>
  <outline>
    <contour>
      <point x="374" y="540.953" type="move"/>
      <point x="304" y="540.953"/>
      <point x="194.923" y="473"/>
      <point x="126" y="319" type="curve"/>
      <point x="103.421005" y="268.55"/>
      <point x="91.671005" y="213.993"/>
      <point x="91.671005" y="164.506" type="curve"/>
      <point x="91.671005" y="73.722"/>
      <point x="131.216" y="-0.0000000000000142109"/>
      <point x="216" y="0" type="curve"/>
      <point x="370" y="0"/>
      <point x="455.853" y="106"/>
      <point x="502" y="264.48" type="curve"/>
      <point x="512.597" y="300.875"/>
      <point x="517.264" y="334.023"/>
      <point x="517.264" y="363.589" type="curve"/>
      <point x="517.264" y="468.229"/>
      <point x="458.816" y="528"/>
      <point x="398" y="528" type="curve"/>
      <point x="337" y="528"/>
      <point x="291" y="498"/>
      <point x="291" y="432" type="curve"/>
      <point x="291" y="391.955"/>
      <point x="354.556" y="319"/>
      <point x="477.55603" y="319" type="curve"/>
      <point x="759.556" y="319"/>
      <point x="884.4447" y="337.77783"/>
      <point x="914.665" y="437.416" type="curve"/>
      <point x="936.6346" y="509.8512"/>
      <point x="874.692" y="540.953"/>
      <point x="800.692" y="540.953" type="curve"/>
      <point x="705.692" y="540.953"/>
      <point x="627.476" y="466"/>
      <point x="561.382" y="301" type="curve"/>
      <point x="511.634" y="176.805"/>
      <point x="469.308" y="0"/>
      <point x="616.308" y="0" type="curve"/>
      <point x="801" y="0"/>
      <point x="917.778" y="111.111145"/>
      <point x="1039" y="264.48" type="curve"/>
    </contour>
  </outline>
</glyph>
<glyph name="oe" format="2">
  <advance width="416"/>
  <unicode hex="0153"/>
  <outline>
    <contour>
      <point x="416" y="76.1602" type="move" smooth="yes"/>
      <point x="354.563" y="33.1416"/>
      <point x="279.778" y="-6.75195"/>
      <point x="248.272" y="-6.75195" type="curve" smooth="yes"/>
      <point x="207.057" y="-6.75195"/>
      <point x="200.839" y="23.9229"/>
      <point x="200.839" y="42.4336" type="curve" smooth="yes"/>
      <point x="200.839" y="50.4326"/>
      <point x="202" y="56.1602"/>
      <point x="202" y="56.1602" type="curve"/>
      <point x="208" y="88.1602"/>
      <point x="244" y="156.16"/>
      <point x="262" y="195.16" type="curve" smooth="yes"/>
      <point x="277.129" y="227.94"/>
      <point x="301.442" y="267.784"/>
      <point x="331.377" y="267.784" type="curve" smooth="yes"/>
      <point x="337.057" y="267.784"/>
      <point x="342.939" y="266.35"/>
      <point x="349" y="263.16" type="curve" smooth="yes"/>
      <point x="368.298" y="253.004"/>
      <point x="376.506" y="238.205"/>
      <point x="376.506" y="222.692" type="curve" smooth="yes"/>
      <point x="376.506" y="171.32"/>
      <point x="295.812" y="171.16"/>
      <point x="217" y="171.16" type="curve" smooth="yes"/>
      <point x="156" y="171.16"/>
      <point x="101.438" y="191.968"/>
      <point x="120" y="245" type="curve" smooth="yes"/>
      <point x="127" y="265"/>
      <point x="153.617" y="267"/>
      <point x="169" y="267" type="curve" smooth="yes"/>
      <point x="223.083" y="267"/>
      <point x="238.61" y="208.687"/>
      <point x="238.61" y="189.516" type="curve" smooth="yes"/>
      <point x="238.61" y="94.5449"/>
      <point x="155.372" y="-4.67383"/>
      <point x="84.1846" y="-4.67383" type="curve" smooth="yes"/>
      <point x="35.6221" y="-4.67383"/>
      <point x="9.71387" y="33.3184"/>
      <point x="9.71387" y="71.1963" type="curve" smooth="yes"/>
      <point x="9.71387" y="161.538"/>
      <point x="72.8594" y="232.593"/>
      <point x="124.372" y="256.471" type="curve"/>
    </contour>
  </outline>
</glyph>
<glyph name="dotlessj" format="2">
  <advance width="417"/>
  <unicode hex="0237"/>
  <outline>
    <contour>
      <point x="-1" y="-8" type="move" smooth="yes"/>
      <point x="-1" y="-8"/>
      <point x="188" y="-1"/>
      <point x="391" y="254" type="curve"/>
      <point x="391" y="254"/>
      <point x="174" y="-235"/>
      <point x="112" y="-283" type="curve" smooth="yes"/>
      <point x="50" y="-331"/>
      <point x="1" y="-237"/>
      <point x="83" y="-166" type="curve" smooth="yes"/>
      <point x="83" y="-166"/>
      <point x="233" y="-25"/>
      <point x="295" y="1" type="curve"/>
      <point x="295" y="1"/>
      <point x="403.713" y="68.0604"/>
      <point x="416" y="76.6641" type="curve" smooth="yes"/>
    </contour>
  </outline>
</glyph>
<glyph name="circumflex" format="2">
  <advance width="350"/>
  <unicode hex="2C6"/>
  <outline>
    <contour>
      <point x="155.3359" y="455" type="move"/>
      <point x="263.3359" y="531.66406" type="line"/>
      <point x="338" y="455" type="line"/>
    </contour>
  </outline>
</glyph>
<glyph name="uni02DA" format="2">
  <advance width="380"/>
  <unicode hex="2DA"/>
  <outline>
    <contour>
      <point x="239.45456" y="473" type="curve"/>
      <point x="239.45456" y="504"/>
      <point x="264.45456" y="529"/>
      <point x="295.45456" y="529" type="curve"/>
      <point x="326.45456" y="529"/>
      <point x="351.45456" y="504"/>
      <point x="351.45456" y="473" type="curve"/>
      <point x="351.45456" y="442"/>
      <point x="326.45456" y="417"/>
      <point x="295.45456" y="417" type="curve"/>
      <point x="264.45456" y="417"/>
      <point x="239.45456" y="442"/>
    </contour>
  </outline>
</glyph>
<glyph name="smalltilde" format="2">
  <advance width="231"/>
  <unicode hex="2DC"/>
  <outline>
    <contour>
      <point x="62.825577" y="178.61006" type="move"/>
      <point x="69.99312" y="201.88293"/>
      <point x="87.598526" y="213.8085"/>
      <point x="106.77637" y="213.84601" type="curve"/>
      <point x="146.59851" y="213.8085"/>
      <point x="123.598526" y="171.8085"/>
      <point x="161.65431" y="171.37845" type="curve"/>
      <point x="182.59857" y="170.8085"/>
      <point x="206.59856" y="181.00851"/>
      <point x="213.00002" y="209.00003" type="curve"/>
    </contour>
  </outline>
</glyph>
<glyph name="gravecomb" format="2">
  <advance width="0"/>
  <unicode hex="0300"/>
  <outline>
    <contour>
      <point x="-70" y="107" type="move"/>
      <point x="80" y="0" type="line"/>
    </contour>
  </outline>
</glyph>
<glyph name="acutecomb" format="2">
  <advance width="0"/>
  <unicode hex="301"/>
  <outline>
    <contour>
      <point x="-80" y="0" type="move"/>
      <point x="77" y="117" type="line"/>
    </contour>
  </outline>
</glyph>
<glyph name="uni0302" format="2">
  <advance width="0"/>
  <unicode hex="0302"/>
  <outline>
    <contour>
      <point x="-108" y="0" type="move"/>
      <point x="0" y="76.6641" type="line"/>
      <point x="74.6641" y="0" type="line"/>
    </contour>
  </outline>
</glyph>
<glyph name="tildecomb" format="2">
  <advance width="0"/>
  <unicode hex="0303"/>
  <outline>
    <contour>
      <point x="-145" y="0" type="move"/>
      <point x="-145" y="34"/>
      <point x="-109.8" y="66.6641"/>
      <point x="-71.4004" y="66.6641" type="curve" smooth="yes"/>
      <point x="-10.5996" y="66.6641"/>
      <point x="7" y="-1"/>
      <point x="67.7998" y="-1" type="curve" smooth="yes"/>
      <point x="135" y="-1"/>
      <point x="147.8" y="34"/>
      <point x="147.8" y="66.6641" type="curve" smooth="yes"/>
    </contour>
  </outline>
</glyph>
<glyph name="uni0304" format="2">
  <advance width="0"/>
  <unicode hex="0304"/>
  <outline>
    <contour>
      <point x="-101" y="0" type="move"/>
      <point x="101" y="0" type="line"/>
    </contour>
  </outline>
</glyph>
<glyph name="uni0305" format="2">
  <advance width="0"/>
  <unicode hex="0305"/>
  <outline>
    <contour>
      <point x="-215" y="0" type="move"/>
      <point x="215" y="0" type="line"/>
    </contour>
  </outline>
</glyph>
<glyph name="uni0306" format="2">
  <advance width="0"/>
  <unicode hex="0306"/>
  <outline>
    <contour>
      <point x="-85" y="76.6641" type="move" smooth="yes"/>
      <point x="-85" y="19"/>
      <point x="-41" y="0"/>
      <point x="-0.200195" y="0" type="curve" smooth="yes"/>
      <point x="45.4004" y="0"/>
      <point x="99" y="9"/>
      <point x="99" y="76.6641" type="curve" smooth="yes"/>
    </contour>
  </outline>
</glyph>
<glyph name="uni0307" format="2">
  <advance width="0"/>
  <unicode hex="0307"/>
  <outline>
    <contour>
      <point x="-18" y="0" type="curve" smooth="yes"/>
      <point x="-18" y="10"/>
      <point x="-10" y="18"/>
      <point x="0" y="18" type="curve" smooth="yes"/>
      <point x="10" y="18"/>
      <point x="18" y="10"/>
      <point x="18" y="0" type="curve" smooth="yes"/>
      <point x="18" y="-10"/>
      <point x="10" y="-18"/>
      <point x="0" y="-18" type="curve" smooth="yes"/>
      <point x="-10" y="-18"/>
      <point x="-18" y="-10"/>
    </contour>
  </outline>
</glyph>
<glyph name="uni0308" format="2">
  <advance width="0"/>
  <unicode hex="0308"/>
  <outline>
    <contour>
      <point x="72" y="0" type="curve" smooth="yes"/>
      <point x="72" y="10"/>
      <point x="80" y="18"/>
      <point x="90" y="18" type="curve" smooth="yes"/>
      <point x="100" y="18"/>
      <point x="108" y="10"/>
      <point x="108" y="0" type="curve" smooth="yes"/>
      <point x="108" y="-10"/>
      <point x="100" y="-18"/>
      <point x="90" y="-18" type="curve" smooth="yes"/>
      <point x="80" y="-18"/>
      <point x="72" y="-10"/>
    </contour>
    <contour>
      <point x="-112" y="0" type="curve" smooth="yes"/>
      <point x="-112" y="10"/>
      <point x="-104" y="18"/>
      <point x="-94" y="18" type="curve" smooth="yes"/>
      <point x="-84" y="18"/>
      <point x="-76" y="10"/>
      <point x="-76" y="0" type="curve" smooth="yes"/>
      <point x="-76" y="-10"/>
      <point x="-84" y="-18"/>
      <point x="-94" y="-18" type="curve" smooth="yes"/>
      <point x="-104" y="-18"/>
      <point x="-112" y="-10"/>
    </contour>
  </outline>
</glyph>
<glyph name="hookabovecomb" format="2">
  <advance width="0"/>
  <unicode hex="309"/>
  <outline>
    <contour>
      <point x="-23" y="76" type="move"/>
      <point x="-23" y="106"/>
      <point x="0.0045661926" y="119.16602"/>
      <point x="39.299805" y="118" type="curve"/>
      <point x="73" y="117"/>
      <point x="90.180786" y="100.79425"/>
      <point x="90" y="71" type="curve"/>
      <point x="89.73302" y="27"/>
      <point x="1" y="24"/>
      <point x="-0.700195" y="0.40039063" type="curve"/>
    </contour>
  </outline>
</glyph>
<glyph name="uni030A" format="2">
  <advance width="0"/>
  <unicode hex="030A"/>
  <outline>
    <contour>
      <point x="-56" y="56" type="curve" smooth="yes"/>
      <point x="-56" y="87"/>
      <point x="-31" y="112"/>
      <point x="0" y="112" type="curve" smooth="yes"/>
      <point x="31" y="112"/>
      <point x="56" y="87"/>
      <point x="56" y="56" type="curve" smooth="yes"/>
      <point x="56" y="25"/>
      <point x="31" y="0"/>
      <point x="0" y="0" type="curve" smooth="yes"/>
      <point x="-31" y="0"/>
      <point x="-56" y="25"/>
    </contour>
  </outline>
</glyph>
<glyph name="uni030B" format="2">
  <advance width="0"/>
  <unicode hex="030B"/>
  <outline>
    <contour>
      <point x="20" y="0" type="move"/>
      <point x="114" y="100" type="line"/>
    </contour>
    <contour>
      <point x="-130" y="0" type="move"/>
      <point x="-36" y="100" type="line"/>
    </contour>
  </outline>
</glyph>
<glyph name="uni030C" format="2">
  <advance width="0"/>
  <unicode hex="030C"/>
  <outline>
    <contour>
      <point x="-68" y="76.6641" type="move"/>
      <point x="0" y="0" type="line"/>
      <point x="114.664" y="76.6641" type="line"/>
    </contour>
  </outline>
</glyph>
<glyph name="uni030D" format="2">
  <advance width="0"/>
  <unicode hex="030D"/>
  <outline>
    <contour>
      <point x="0" y="0" type="move" smooth="yes"/>
      <point x="0" y="70"/>
      <point x="0" y="109"/>
      <point x="0" y="179" type="curve" smooth="yes"/>
    </contour>
  </outline>
</glyph>
<glyph name="viethorncomb" format="2">
  <advance width="0"/>
  <unicode hex="31B"/>
  <outline>
    <contour>
      <point x="-0.700195" y="0.400391" type="move"/>
      <point x="84.7002" y="0.400391"/>
      <point x="143" y="32"/>
      <point x="171" y="95" type="curve"/>
      <point x="199.21127" y="158.47539"/>
      <point x="130" y="177"/>
      <point x="90" y="177" type="curve"/>
    </contour>
  </outline>
</glyph>
<glyph name="period" format="2">
  <advance width="0"/>
  <unicode hex="323"/>
  <outline>
    <contour>
      <point x="-17.551018" y="0.22447968" type="curve"/>
      <point x="-17.551018" y="10.22448"/>
      <point x="-9.551018" y="18.22448"/>
      <point x="0.44898224" y="18.22448" type="curve"/>
      <point x="10.448982" y="18.22448"/>
      <point x="18.448982" y="10.22448"/>
      <point x="18.448982" y="0.22447968" type="curve"/>
      <point x="18.448982" y="-9.77552"/>
      <point x="10.448982" y="-17.77552"/>
      <point x="0.44898224" y="-17.77552" type="curve"/>
      <point x="-9.551018" y="-17.77552"/>
      <point x="-17.551018" y="-9.77552"/>
    </contour>
  </outline>
</glyph>
<glyph name="cyr_A" format="2">
  <advance width="716"/>
  <unicode hex="0410"/>
  <outline>
    <contour>
      <point x="585.945" y="485.456" type="move" smooth="yes"/>
      <point x="585.945" y="485.456"/>
      <point x="551.871" y="517.088"/>
      <point x="486.804" y="517.088" type="curve" smooth="yes"/>
      <point x="416.951" y="517.088"/>
      <point x="311.379" y="480.634"/>
      <point x="173.896" y="329.456" type="curve" smooth="yes"/>
      <point x="60.2373" y="204.474"/>
      <point x="20.4492" y="123.094"/>
      <point x="15.9502" y="71.6719" type="curve" smooth="yes"/>
      <point x="10.6865" y="11.5117"/>
      <point x="53.7246" y="-7.64355"/>
      <point x="83.2832" y="-7.64355" type="curve" smooth="yes"/>
      <point x="87.4873" y="-7.64355"/>
      <point x="91.4199" y="-7.25586"/>
      <point x="94.9014" y="-6.54395" type="curve" smooth="yes"/>
      <point x="143.776" y="3.45605"/>
      <point x="329.949" y="101.456"/>
      <point x="441.198" y="257.456" type="curve" smooth="yes"/>
      <point x="552.446" y="413.456"/>
      <point x="584.17" y="483.456"/>
      <point x="584.17" y="483.456" type="curve"/>
      <point x="584.17" y="483.456"/>
      <point x="576.195" y="465.456"/>
      <point x="561.296" y="441.456" type="curve" smooth="yes"/>
      <point x="555.62" y="431.456"/>
      <point x="548.171" y="419.456"/>
      <point x="540.721" y="407.456" type="curve" smooth="yes"/>
      <point x="505.247" y="349.456"/>
      <point x="458.948" y="277.456"/>
      <point x="449.548" y="261.456" type="curve" smooth="yes"/>
      <point x="438.798" y="243.592"/>
      <point x="377.013" y="133.729"/>
      <point x="370.668" y="61.21" type="curve" smooth="yes"/>
      <point x="367.407" y="23.9473"/>
      <point x="388.66" y="-5.43848"/>
      <point x="429.241" y="-3.45605" type="curve" smooth="yes"/>
      <point x="500" y="0"/>
      <point x="628.42" y="76.6639"/>
      <point x="716" y="264.48" type="curve" smooth="yes"/>
    </contour>
  </outline>
</glyph>
<glyph name="cyr_BE" format="2">
  <advance width="557"/>
  <unicode hex="0411"/>
  <outline>
    <contour>
      <point x="184.956" y="415" type="move"/>
      <point x="177.938" y="423"/>
      <point x="157.271" y="456"/>
      <point x="179.655" y="494" type="curve" smooth="yes"/>
      <point x="210.288" y="546"/>
      <point x="250.427" y="541"/>
      <point x="302.427" y="541" type="curve" smooth="yes"/>
      <point x="602.427" y="541" type="line"/>
    </contour>
    <contour>
      <point x="349.427" y="541" type="move"/>
      <point x="267.185" y="368" type="line" smooth="yes"/>
      <point x="226.772" y="282.991"/>
      <point x="179.715" y="185"/>
      <point x="179.715" y="185" type="curve" smooth="yes"/>
      <point x="127.934" y="76.6641"/>
      <point x="67" y="0"/>
      <point x="38" y="0" type="curve" smooth="yes"/>
      <point x="2" y="0"/>
      <point x="0.419922" y="36"/>
      <point x="19.4541" y="77" type="curve" smooth="yes"/>
      <point x="63.9961" y="171"/>
      <point x="154.099" y="294"/>
      <point x="328.099" y="294" type="curve" smooth="yes"/>
      <point x="402.099" y="294"/>
      <point x="493.013" y="220"/>
      <point x="484.418" y="150" type="curve" smooth="yes"/>
      <point x="474.841" y="72"/>
      <point x="375" y="0"/>
      <point x="300" y="0" type="curve" smooth="yes"/>
      <point x="234" y="0"/>
      <point x="212.576" y="48.7949"/>
      <point x="240.261" y="108" type="curve" smooth="yes"/>
      <point x="274.864" y="182"/>
      <point x="330.803" y="202"/>
      <point x="397.803" y="202" type="curve" smooth="yes"/>
      <point x="449.625" y="202"/>
      <point x="480" y="197"/>
      <point x="482.357" y="184.215" type="curve" smooth="yes"/>
    </contour>
  </outline>
</glyph>
<glyph name="cyr_VE" format="2">
  <advance width="606"/>
  <unicode hex="0412"/>
  <outline>
    <contour>
      <point x="45.25" y="282.15" type="move"/>
      <point x="155.092" y="339.921"/>
      <point x="265.433" y="395.591"/>
      <point x="353.05" y="547.2" type="curve"/>
      <point x="88" y="0" type="line"/>
      <point x="158.161" y="145.351" type="line" smooth="yes"/>
      <point x="322.188" y="485.154"/>
      <point x="378.7" y="547.2"/>
      <point x="506.95" y="547.2" type="curve" smooth="yes"/>
      <point x="609.55" y="547.2"/>
      <point x="643.75" y="478.801"/>
      <point x="643.75" y="427.5" type="curve" smooth="yes"/>
      <point x="643.75" y="273.601"/>
      <point x="464.2" y="239.4"/>
      <point x="430" y="239.4" type="curve" smooth="yes"/>
      <point x="399.172" y="239.4"/>
      <point x="358.212" y="248"/>
      <point x="370.149" y="273.601" type="curve" smooth="yes"/>
      <point x="375.931" y="286"/>
      <point x="392" y="299.25"/>
      <point x="414.35" y="299.25" type="curve" smooth="yes"/>
      <point x="494" y="299.25"/>
      <point x="515.5" y="222.301"/>
      <point x="515.5" y="153.9" type="curve" smooth="yes"/>
      <point x="515.5" y="59.8506"/>
      <point x="430" y="0"/>
      <point x="335.95" y="0" type="curve" smooth="yes"/>
      <point x="190.6" y="0"/>
      <point x="164.95" y="145.351"/>
      <point x="164.95" y="145.351" type="curve"/>
      <point x="183.024" y="118.209"/>
      <point x="248" y="82"/>
      <point x="310.3" y="76.9502" type="curve" smooth="yes"/>
      <point x="390" y="70"/>
      <point x="475.772" y="94.082"/>
      <point x="510.447" y="115.79" type="curve"/>
    </contour>
  </outline>
</glyph>
<glyph name="cyr_GHE" format="2">
  <advance width="471"/>
  <unicode hex="0413"/>
  <outline>
    <contour>
      <point x="481" y="540.953" type="move"/>
      <point x="400.345" y="368" type="line" smooth="yes"/>
      <point x="362.873" y="281.584"/>
      <point x="254.958" y="0"/>
      <point x="135" y="0" type="curve" smooth="yes"/>
      <point x="46.9561" y="0"/>
      <point x="0" y="76.6641"/>
      <point x="0" y="76.6641" type="curve"/>
    </contour>
    <contour>
      <point x="291" y="368" type="move"/>
      <point x="229" y="391"/>
      <point x="207" y="426"/>
      <point x="207" y="474" type="curve" smooth="yes"/>
      <point x="207" y="519.24"/>
      <point x="271.625" y="540.953"/>
      <point x="324" y="540.953" type="curve" smooth="yes"/>
      <point x="699" y="540.953" type="line"/>
    </contour>
  </outline>
</glyph>
<glyph name="cyr_DE" format="2">
  <advance width="778"/>
  <unicode hex="0414"/>
  <outline>
    <contour>
      <point x="534" y="548" type="move" smooth="yes"/>
      <point x="512.95" y="548"/>
      <point x="409.462" y="527.653"/>
      <point x="354.12" y="422.37" type="curve" smooth="yes"/>
      <point x="214.899" y="155.61" type="line" smooth="yes"/>
      <point x="190.137" y="108.501"/>
      <point x="157.02" y="3.41992"/>
      <point x="76.6494" y="3.41992" type="curve" smooth="yes"/>
      <point x="52.71" y="3.41992"/>
      <point x="25.3496" y="11.9707"/>
      <point x="25.3496" y="35.9102" type="curve" smooth="yes"/>
      <point x="25.3496" y="109.44"/>
      <point x="98.8799" y="128.25"/>
      <point x="189.51" y="128.25" type="curve" smooth="yes"/>
      <point x="235.68" y="128.25"/>
      <point x="252.779" y="0"/>
      <point x="393" y="0" type="curve" smooth="yes"/>
      <point x="579.39" y="0"/>
      <point x="712.77" y="241.775"/>
      <point x="712.77" y="355.681" type="curve" smooth="yes"/>
      <point x="712.77" y="446.311"/>
      <point x="675.149" y="548.91"/>
      <point x="584.52" y="548.91" type="curve" smooth="yes"/>
      <point x="535.784" y="548.91"/>
      <point x="417.515" y="566"/>
      <point x="307" y="329" type="curve" smooth="yes"/>
      <point x="218.402" y="139"/>
      <point x="510" y="25"/>
      <point x="632" y="148" type="curve" smooth="yes"/>
    </contour>
  </outline>
</glyph>
<glyph name="cyr_ZHE" format="2">
  <advance width="1110"/>
  <unicode hex="0416"/>
  <outline>
    <contour>
      <point x="154" y="490" type="move"/>
      <point x="193" y="509"/>
      <point x="250" y="540.953"/>
      <point x="335" y="542" type="curve" smooth="yes"/>
      <point x="441.992" y="543.317"/>
      <point x="401" y="348"/>
      <point x="335" y="221" type="curve" smooth="yes"/>
      <point x="269" y="94"/>
      <point x="178" y="0"/>
      <point x="100" y="0" type="curve" smooth="yes"/>
      <point x="24" y="0"/>
      <point x="12" y="41"/>
      <point x="0" y="76" type="curve" smooth="yes"/>
      <point x="0" y="76"/>
      <point x="12" y="0"/>
      <point x="100" y="0" type="curve" smooth="yes"/>
      <point x="256" y="0"/>
      <point x="620" y="542"/>
      <point x="620" y="542" type="curve"/>
      <point x="426" y="0" type="line"/>
      <point x="426" y="0"/>
      <point x="735" y="542"/>
      <point x="965" y="542" type="curve" smooth="yes"/>
      <point x="1024" y="542"/>
      <point x="1045" y="506"/>
      <point x="1045" y="506" type="curve" smooth="yes"/>
      <point x="1045" y="506"/>
      <point x="1024" y="542"/>
      <point x="965" y="542" type="curve" smooth="yes"/>
      <point x="930" y="542"/>
      <point x="809" y="520"/>
      <point x="675" y="308" type="curve" smooth="yes"/>
      <point x="511" y="47"/>
      <point x="669" y="0"/>
      <point x="749" y="0" type="curve" smooth="yes"/>
      <point x="842" y="0"/>
      <point x="1016.64" y="140.588"/>
      <point x="1110" y="264.48" type="curve"/>
    </contour>
  </outline>
</glyph>
<glyph name="cyr_KA" format="2">
  <advance width="776"/>
  <unicode hex="041A"/>
  <outline>
    <contour>
      <point x="305" y="327" type="move"/>
      <point x="305" y="327"/>
      <point x="426.764" y="378.827"/>
      <point x="468" y="323" type="curve" smooth="yes"/>
      <point x="533" y="235"/>
      <point x="370" y="0"/>
      <point x="508" y="0" type="curve" smooth="yes"/>
      <point x="603" y="0"/>
      <point x="737.496" y="213.384"/>
      <point x="776" y="264.48" type="curve"/>
    </contour>
    <contour>
      <point x="228.999" y="462" type="move"/>
      <point x="253.999" y="500"/>
      <point x="287" y="547"/>
      <point x="348" y="547" type="curve" smooth="yes"/>
      <point x="424" y="547"/>
      <point x="351" y="428"/>
      <point x="326" y="375" type="curve" smooth="yes"/>
      <point x="211" y="129" type="line" smooth="yes"/>
      <point x="202" y="111"/>
      <point x="195" y="91"/>
      <point x="186" y="77" type="curve" smooth="yes"/>
      <point x="162" y="38"/>
      <point x="155" y="0"/>
      <point x="110" y="0" type="curve" smooth="yes"/>
      <point x="64" y="0"/>
      <point x="50.1514" y="47"/>
      <point x="73" y="96" type="curve" smooth="yes"/>
      <point x="145.744" y="252"/>
      <point x="264.968" y="305.288"/>
      <point x="305" y="327" type="curve" smooth="yes"/>
      <point x="364" y="359"/>
      <point x="462" y="341"/>
      <point x="525" y="446" type="curve" smooth="yes"/>
      <point x="564" y="511"/>
      <point x="649" y="545"/>
      <point x="688" y="545" type="curve"/>
    </contour>
  </outline>
</glyph>
<glyph name="cyr_EL" format="2">
  <advance width="757"/>
  <unicode hex="041B"/>
  <outline>
    <contour>
      <point x="0" y="76.6641" type="move"/>
      <point x="0" y="18"/>
      <point x="62.1006" y="-3"/>
      <point x="87.8877" y="-3" type="curve" smooth="yes"/>
      <point x="281.023" y="-3"/>
      <point x="389" y="528.961"/>
      <point x="606.652" y="528.961" type="curve"/>
      <point x="518.737" y="277" type="line" smooth="yes"/>
      <point x="475.76" y="153.832"/>
      <point x="449.984" y="69.4253"/>
      <point x="449.984" y="44.585" type="curve" smooth="yes"/>
      <point x="449.984" y="18.5957"/>
      <point x="459.899" y="-0.251953"/>
      <point x="483.065" y="-0.251953" type="curve" smooth="yes"/>
      <point x="533.219" y="-0.251953"/>
      <point x="686.363" y="113"/>
      <point x="757" y="264.48" type="curve" smooth="yes"/>
    </contour>
  </outline>
</glyph>
<glyph name="cyr_EN" format="2">
  <advance width="703"/>
  <unicode hex="041D"/>
  <outline>
    <contour>
      <point x="123.559" y="478.247" type="move" smooth="yes"/>
      <point x="137.312" y="492"/>
      <point x="184" y="541"/>
      <point x="221" y="541" type="curve" smooth="yes"/>
      <point x="283" y="541"/>
      <point x="229" y="478"/>
      <point x="281" y="478" type="curve" smooth="yes"/>
      <point x="320.509" y="478"/>
      <point x="350.703" y="500.111"/>
      <point x="372.997" y="541" type="curve"/>
      <point x="358.342" y="509"/>
      <point x="138.892" y="-0.842765"/>
      <point x="57" y="-0.842765" type="curve" smooth="yes"/>
      <point x="37.7517" y="-0.842765"/>
      <point x="30.8733" y="12.8872"/>
      <point x="30.8733" y="31.9637" type="curve" smooth="yes"/>
      <point x="30.8733" y="83.4836"/>
      <point x="105.659" y="301"/>
      <point x="315" y="301" type="curve" smooth="yes"/>
      <point x="404" y="301" type="line" smooth="yes"/>
      <point x="512" y="301"/>
      <point x="565.589" y="340"/>
      <point x="609.748" y="441" type="curve" smooth="yes"/>
      <point x="629.07" y="485.193"/>
      <point x="634.655" y="533"/>
      <point x="600.548" y="533" type="curve" smooth="yes"/>
      <point x="534" y="533"/>
      <point x="354.963" y="222.374"/>
      <point x="354.963" y="75.9902" type="curve" smooth="yes"/>
      <point x="354.963" y="35.252"/>
      <point x="364.445" y="0"/>
      <point x="415.666" y="0" type="curve" smooth="yes"/>
      <point x="456.916" y="0"/>
      <point x="529.695" y="34.4974"/>
      <point x="703" y="264.48" type="curve"/>
    </contour>
  </outline>
</glyph>
<glyph name="cyr_O" format="2">
  <advance width="613"/>
  <unicode hex="041E"/>
  <outline>
    <contour>
      <point x="414" y="540.953" type="move" smooth="yes"/>
      <point x="344" y="540.953"/>
      <point x="234.923" y="473"/>
      <point x="166" y="319" type="curve" smooth="yes"/>
      <point x="102" y="176"/>
      <point x="125" y="0"/>
      <point x="256" y="0" type="curve" smooth="yes"/>
      <point x="410" y="0"/>
      <point x="495.853" y="106"/>
      <point x="542" y="264.48" type="curve" smooth="yes"/>
      <point x="590.104" y="429.68"/>
      <point x="516" y="528"/>
      <point x="438" y="528" type="curve" smooth="yes"/>
      <point x="377" y="528"/>
      <point x="331" y="498"/>
      <point x="331" y="432" type="curve" smooth="yes"/>
      <point x="331" y="333.8"/>
      <point x="625" y="339"/>
      <point x="714" y="531" type="curve" smooth="yes"/>
    </contour>
  </outline>
</glyph>
<glyph name="cyr_EF" format="2">
  <advance width="575"/>
  <unicode hex="0424"/>
  <outline>
    <contour>
      <point x="112" y="541" type="move"/>
      <point x="367" y="541" type="line"/>
      <point x="329" y="402" type="line" smooth="yes"/>
      <point x="292.51" y="271.943"/>
      <point x="259" y="166"/>
      <point x="147" y="166" type="curve" smooth="yes"/>
      <point x="78.9681" y="166"/>
      <point x="26.0486" y="217.171"/>
      <point x="26.0486" y="278" type="curve" smooth="yes"/>
      <point x="26.0486" y="365.294"/>
      <point x="112.663" y="436"/>
      <point x="191" y="436" type="curve" smooth="yes"/>
      <point x="257.689" y="436"/>
      <point x="304.524" y="384.243"/>
      <point x="304.524" y="334" type="curve" smooth="yes"/>
      <point x="304.524" y="314.461"/>
      <point x="292.881" y="278.305"/>
      <point x="292.881" y="256" type="curve" smooth="yes"/>
      <point x="292.881" y="189.653"/>
      <point x="347.106" y="170"/>
      <point x="407" y="170" type="curve" smooth="yes"/>
      <point x="493.925" y="170"/>
      <point x="573.522" y="239.371"/>
      <point x="573.522" y="336" type="curve" smooth="yes"/>
      <point x="573.522" y="392.816"/>
      <point x="514.224" y="436"/>
      <point x="459" y="436" type="curve" smooth="yes"/>
      <point x="316" y="436"/>
      <point x="297.574" y="294.865"/>
      <point x="280" y="224" type="curve" smooth="yes"/>
      <point x="249" y="99" type="line" smooth="yes"/>
      <point x="234" y="35"/>
      <point x="184" y="0"/>
      <point x="124" y="0" type="curve" smooth="yes"/>
      <point x="63" y="0"/>
      <point x="20" y="51"/>
      <point x="0" y="77" type="curve"/>
    </contour>
  </outline>
</glyph>
<glyph name="cyr_HA" format="2">
  <advance width="729"/>
  <unicode hex="0425"/>
  <outline>
    <contour>
      <point x="79.7754" y="394" type="move"/>
      <point x="111.675" y="459.149"/>
      <point x="177.218" y="540.176"/>
      <point x="261.6" y="541" type="curve" smooth="yes"/>
      <point x="364" y="542"/>
      <point x="389.6" y="482"/>
      <point x="341.6" y="286" type="curve" smooth="yes"/>
      <point x="295.2" y="96"/>
      <point x="180.8" y="0"/>
      <point x="106.4" y="0" type="curve" smooth="yes"/>
      <point x="33.5996" y="0"/>
      <point x="17.5996" y="41"/>
      <point x="0.799805" y="76" type="curve" smooth="yes"/>
    </contour>
    <contour>
      <point x="655.794" y="394" type="move" smooth="yes"/>
      <point x="655.794" y="465.018"/>
      <point x="630.998" y="541"/>
      <point x="555.2" y="541" type="curve" smooth="yes"/>
      <point x="504" y="541"/>
      <point x="395.2" y="479"/>
      <point x="341.6" y="286" type="curve" smooth="yes"/>
      <point x="290.4" y="102"/>
      <point x="332.057" y="18.2063"/>
      <point x="397.6" y="0" type="curve" smooth="yes"/>
      <point x="505.6" y="-30"/>
      <point x="629.472" y="132.402"/>
      <point x="729" y="264.48" type="curve" smooth="yes"/>
    </contour>
  </outline>
</glyph>
<glyph name="cyr_CHE" format="2">
  <advance width="608"/>
  <unicode hex="0427"/>
  <outline>
    <contour>
      <point x="6" y="537" type="move"/>
      <point x="15" y="541"/>
      <point x="37" y="546"/>
      <point x="62" y="546" type="curve" smooth="yes"/>
      <point x="117" y="546"/>
      <point x="168" y="532"/>
      <point x="168" y="493" type="curve" smooth="yes"/>
      <point x="168" y="456"/>
      <point x="147" y="422"/>
      <point x="134" y="395" type="curve" smooth="yes"/>
      <point x="129" y="385" type="line" smooth="yes"/>
      <point x="83" y="291"/>
      <point x="83" y="235"/>
      <point x="148" y="235" type="curve" smooth="yes"/>
      <point x="239" y="235"/>
      <point x="357" y="354"/>
      <point x="384" y="406" type="curve" smooth="yes"/>
      <point x="464" y="552" type="line"/>
      <point x="256" y="159" type="line" smooth="yes"/>
      <point x="218" y="87"/>
      <point x="170" y="1"/>
      <point x="253" y="1" type="curve" smooth="yes"/>
      <point x="426" y="1"/>
      <point x="608" y="266"/>
      <point x="608" y="266" type="curve"/>
    </contour>
  </outline>
</glyph>
<glyph name="cyr_SHA" format="2">
  <advance width="670"/>
  <unicode hex="428"/>
  <outline>
    <contour>
      <point x="27.389603" y="514.375" type="move"/>
      <point x="45" y="532.50006"/>
      <point x="68.0176" y="545.49"/>
      <point x="100" y="545.49" type="curve"/>
      <point x="139.135" y="545.49"/>
      <point x="190.27277" y="523.6365"/>
      <point x="168.45459" y="456.36374" type="curve"/>
      <point x="151.27231" y="403.38498"/>
      <point x="137.806" y="372.588"/>
      <point x="121.324005" y="325.755" type="curve"/>
      <point x="53.8545" y="162.45" type="curve"/>
      <point x="23.787102" y="89.6748"/>
      <point x="33.85938" y="0"/>
      <point x="92" y="0" type="curve"/>
      <point x="155.552" y="0"/>
      <point x="227.05865" y="94.22154"/>
      <point x="251.00006" y="160.00003" type="curve"/>
      <point x="311.539" y="306.945" type="curve"/>
      <point x="345.677" y="380.337"/>
      <point x="412.064" y="545.49" type="curve"/>
    </contour>
    <contour>
      <point x="412.064" y="545.49" type="move"/>
      <point x="252.00006" y="162.00003" type="curve"/>
      <point x="226.39319" y="91.64571"/>
      <point x="228.00159" y="-2.3747346"/>
      <point x="288.45944" y="-2.2474618" type="curve"/>
      <point x="406.00012" y="-2"/>
      <point x="464.1961" y="154.81567"/>
      <point x="501.81833" y="258.18185" type="curve"/>
      <point x="540.055" y="341.146" type="curve"/>
      <point x="570" y="406"/>
      <point x="627" y="540.953" type="curve"/>
    </contour>
    <contour>
      <point x="627" y="540.953" type="move"/>
      <point x="501.00012" y="254.00003" type="curve"/>
      <point x="428.81326" y="55.66826"/>
      <point x="433.9968" y="0.7377516"/>
      <point x="507.99564" y="0.32246223" type="curve"/>
      <point x="565.4547" y="0"/>
      <point x="615.936" y="38.80807"/>
      <point x="670" y="76.6641" type="curve"/>
    </contour>
  </outline>
</glyph>
<glyph name="cyr_SHCHA" format="2">
  <advance width="817"/>
  <unicode hex="0429"/>
  <outline>
    <contour>
      <point x="817" y="76" type="move"/>
      <point x="758" y="35"/>
      <point x="635" y="-50"/>
      <point x="514" y="-132" type="curve" smooth="yes"/>
      <point x="467" y="-164"/>
      <point x="499" y="-203"/>
      <point x="527" y="-203" type="curve" smooth="yes"/>
      <point x="561" y="-204"/>
      <point x="589" y="-160"/>
      <point x="604" y="-127" type="curve" smooth="yes"/>
      <point x="696" y="76" type="line"/>
      <point x="641" y="33"/>
      <point x="580" y="0"/>
      <point x="519" y="0" type="curve" smooth="yes"/>
      <point x="444" y="0"/>
      <point x="464" y="168"/>
      <point x="506" y="264" type="curve" smooth="yes"/>
      <point x="627" y="541" type="line"/>
      <point x="627" y="541"/>
      <point x="570" y="406"/>
      <point x="540" y="341" type="curve" smooth="yes"/>
      <point x="473" y="194" type="line" smooth="yes"/>
      <point x="473" y="194"/>
      <point x="395" y="0"/>
      <point x="288" y="0" type="curve" smooth="yes"/>
      <point x="200" y="0"/>
      <point x="253" y="170"/>
      <point x="284" y="238" type="curve" smooth="yes"/>
      <point x="412" y="545" type="line"/>
      <point x="412" y="545"/>
      <point x="344" y="380"/>
      <point x="310" y="307" type="curve" smooth="yes"/>
      <point x="251" y="182" type="line" smooth="yes"/>
      <point x="221" y="117"/>
      <point x="126" y="0"/>
      <point x="62" y="0" type="curve" smooth="yes"/>
      <point x="4" y="0"/>
      <point x="23" y="89"/>
      <point x="53" y="162" type="curve" smooth="yes"/>
      <point x="120" y="326" type="line" smooth="yes"/>
      <point x="136" y="373"/>
      <point x="175" y="435"/>
      <point x="175" y="490" type="curve" smooth="yes"/>
      <point x="175" y="538"/>
      <point x="129" y="545"/>
      <point x="81" y="545" type="curve" smooth="yes"/>
      <point x="58" y="545"/>
      <point x="43" y="540"/>
      <point x="27" y="534" type="curve"/>
    </contour>
  </outline>
</glyph>
<glyph name="cyr_HARD_SIGN" format="2">
  <advance width="676"/>
  <unicode hex="42A"/>
  <outline>
    <contour>
      <point x="0" y="398" type="move"/>
      <point x="75.2227" y="397.732"/>
      <point x="152.06" y="469.572"/>
      <point x="192.039" y="540.862" type="curve"/>
    </contour>
    <contour>
      <point x="192.039" y="540.862" type="move"/>
      <point x="164.6774" y="465.68658"/>
      <point x="163.972" y="397.732"/>
      <point x="255" y="398" type="curve"/>
      <point x="335.959" y="397.732"/>
      <point x="442.8204" y="465.68658"/>
      <point x="470.182" y="540.862" type="curve"/>
    </contour>
    <contour>
      <point x="471.182" y="540.862" type="move"/>
      <point x="412.3043" y="379.0968"/>
      <point x="338.0001" y="266.00006"/>
      <point x="319.441" y="144.173" type="curve"/>
      <point x="309.17892" y="76.80982"/>
      <point x="356.0001" y="0"/>
      <point x="436.33408" y="0.4141069" type="curve"/>
      <point x="536.0115" y="0.9279256"/>
      <point x="614.0001" y="64.00003"/>
      <point x="637.2779" y="142.19786" type="curve"/>
      <point x="660.6002" y="220.54536"/>
      <point x="626.0001" y="308.00006"/>
      <point x="525.802" y="312.517" type="curve"/>
      <point x="442.0719" y="316.29156"/>
      <point x="340.283" y="262"/>
      <point x="319.441" y="144.173" type="curve"/>
    </contour>
  </outline>
</glyph>
<glyph name="cyr_YERU" format="2">
  <advance width="908"/>
  <unicode hex="42B"/>
  <outline>
    <contour>
      <point x="249" y="535" type="move"/>
      <point x="107" y="230" type="curve"/>
      <point x="61.8393" y="133"/>
      <point x="47" y="0"/>
      <point x="182" y="0" type="curve"/>
      <point x="292.169" y="0"/>
      <point x="378" y="57"/>
      <point x="378" y="171.16" type="curve"/>
      <point x="378" y="264.459"/>
      <point x="166.00003" y="320.00006"/>
      <point x="88.000015" y="176.00006" type="curve"/>
    </contour>
    <contour>
      <point x="88.000015" y="176.00006" type="move"/>
      <point x="166.00003" y="322.00012"/>
      <point x="532.0001" y="330.00012"/>
      <point x="644" y="540.953" type="curve"/>
    </contour>
    <contour>
      <point x="644" y="540.953" type="move"/>
      <point x="644" y="540.953"/>
      <point x="576.407" y="396"/>
      <point x="499.467" y="231" type="curve"/>
      <point x="422.992" y="67"/>
      <point x="502" y="0"/>
      <point x="602" y="0" type="curve"/>
      <point x="676.722" y="0"/>
      <point x="752.701" y="58.3926"/>
      <point x="908" y="264.48" type="curve"/>
    </contour>
  </outline>
</glyph>
<glyph name="cyr_SOFT_SIGN" format="2">
  <advance width="434"/>
  <unicode hex="42C"/>
  <outline>
    <contour>
      <point x="289.501" y="540.862" type="move"/>
      <point x="199.115" y="447"/>
      <point x="87.7877" y="237"/>
      <point x="64.0547" y="144.173" type="curve"/>
      <point x="42.5343" y="60"/>
      <point x="104" y="0"/>
      <point x="177.33" y="0" type="curve"/>
      <point x="292" y="0"/>
      <point x="356.405" y="39.9609"/>
      <point x="396.477" y="115.031" type="curve"/>
      <point x="436.361" y="189.75"/>
      <point x="384.585" y="282.517"/>
      <point x="281.519" y="282.517" type="curve"/>
      <point x="166" y="282.517"/>
      <point x="88.5957" y="237"/>
      <point x="64.0547" y="144.173" type="curve"/>
    </contour>
  </outline>
</glyph>
<glyph name="cyr_E" format="2">
  <advance width="588"/>
  <unicode hex="42D"/>
  <outline>
    <contour>
      <point x="320.453" y="547.2" type="move"/>
      <point x="280.779" y="504.45" type="line"/>
    </contour>
    <contour>
      <point x="280.779" y="504.45" type="move"/>
      <point x="310.99" y="540.4541"/>
      <point x="370.735" y="552.33"/>
      <point x="413.485" y="552.33" type="curve"/>
      <point x="553.706" y="552.33"/>
      <point x="662.512" y="380.476"/>
      <point x="518.229" y="174.42" type="curve"/>
      <point x="450.048" y="77.0459"/>
      <point x="341.359" y="0"/>
      <point x="208" y="0" type="curve"/>
      <point x="78.5957" y="0"/>
      <point x="23.75" y="88.750015"/>
      <point x="32.2861" y="171.16" type="curve"/>
    </contour>
    <contour>
      <point x="298" y="264.48" type="move"/>
      <point x="564" y="264.48" type="line"/>
    </contour>
  </outline>
</glyph>
<glyph name="cyr_YU" format="2">
  <advance width="765"/>
  <unicode hex="042E"/>
  <outline>
    <contour>
      <point x="104" y="264.48" type="move"/>
      <point x="353.611" y="540.953" type="line"/>
      <point x="159.183" y="124" type="line" smooth="yes"/>
      <point x="127.886" y="56.8828"/>
      <point x="77.8564" y="0"/>
      <point x="23" y="0" type="curve" smooth="yes"/>
      <point x="-46" y="0"/>
      <point x="-13" y="74"/>
      <point x="53" y="74" type="curve" smooth="yes"/>
      <point x="270" y="74"/>
      <point x="379" y="264.48"/>
      <point x="379" y="264.48" type="curve"/>
    </contour>
    <contour>
      <point x="379" y="264.48" type="move"/>
      <point x="329.571" y="153.641"/>
      <point x="323" y="0"/>
      <point x="433" y="0" type="curve" smooth="yes"/>
      <point x="602" y="0"/>
      <point x="702.795" y="124.16"/>
      <point x="775" y="264.48" type="curve" smooth="yes"/>
      <point x="830.115" y="371.588"/>
      <point x="829" y="540.953"/>
      <point x="709" y="540.953" type="curve" smooth="yes"/>
      <point x="577.732" y="540.953"/>
      <point x="436.466" y="386.995"/>
      <point x="380" y="266" type="curve"/>
    </contour>
  </outline>
</glyph>
<glyph name="cyr_YA" format="2">
  <advance width="438"/>
  <unicode hex="042F"/>
  <outline>
    <contour>
      <point x="0" y="80.6621" type="move"/>
      <point x="0.632812" y="28"/>
      <point x="41.4258" y="1.26465"/>
      <point x="88.5312" y="0" type="curve" smooth="yes"/>
      <point x="166" y="-2.08008"/>
      <point x="354.493" y="280.057"/>
      <point x="417.791" y="396" type="curve" smooth="yes"/>
      <point x="457.1" y="468"/>
      <point x="445.443" y="537.893"/>
      <point x="377.659" y="538.48" type="curve" smooth="yes"/>
      <point x="294.529" y="539.202"/>
      <point x="190.24" y="474.4"/>
      <point x="128.734" y="370" type="curve" smooth="yes"/>
      <point x="91.5801" y="306.935"/>
      <point x="93.8008" y="180.629"/>
      <point x="185.169" y="180.4" type="curve" smooth="yes"/>
      <point x="281.18" y="180.16"/>
      <point x="375.556" y="321.903"/>
      <point x="498.622" y="537.801" type="curve"/>
      <point x="498.622" y="537.801"/>
      <point x="167" y="0"/>
      <point x="259.98" y="0" type="curve" smooth="yes"/>
      <point x="335" y="0"/>
      <point x="393.561" y="45.5479"/>
      <point x="438" y="76.6641" type="curve"/>
    </contour>
  </outline>
</glyph>
<glyph name="cyr_a" format="2">
  <advance width="445"/>
  <unicode hex="0430"/>
  <outline>
    <contour>
      <point x="347" y="241" type="move" smooth="yes"/>
      <point x="347" y="241"/>
      <point x="323.974" y="256.816"/>
      <point x="283.307" y="256.816" type="curve" smooth="yes"/>
      <point x="239.649" y="256.816"/>
      <point x="175.66" y="238.589"/>
      <point x="98" y="163" type="curve" smooth="yes"/>
      <point x="33.7967" y="100.509"/>
      <point x="13.3789" y="59.8188"/>
      <point x="13.3789" y="34.1077" type="curve" smooth="yes"/>
      <point x="13.3789" y="4.02795"/>
      <point x="41.3249" y="-5.54993"/>
      <point x="59.7991" y="-5.54993" type="curve" smooth="yes"/>
      <point x="62.427" y="-5.54993"/>
      <point x="64.8632" y="-5.35614"/>
      <point x="67" y="-5" type="curve" smooth="yes"/>
      <point x="97" y="0"/>
      <point x="208" y="49"/>
      <point x="269" y="127" type="curve" smooth="yes"/>
      <point x="330" y="205"/>
      <point x="346" y="240"/>
      <point x="346" y="240" type="curve"/>
      <point x="346" y="240"/>
      <point x="342" y="231"/>
      <point x="334" y="219" type="curve" smooth="yes"/>
      <point x="331" y="214"/>
      <point x="327" y="208"/>
      <point x="323" y="202" type="curve" smooth="yes"/>
      <point x="304" y="173"/>
      <point x="279" y="137"/>
      <point x="274" y="129" type="curve" smooth="yes"/>
      <point x="268.258" y="120.068"/>
      <point x="235.649" y="65.1369"/>
      <point x="235.649" y="28.8768" type="curve" smooth="yes"/>
      <point x="235.649" y="10.2457"/>
      <point x="244.258" y="-3.45615"/>
      <point x="269.544" y="-3.45615" type="curve" smooth="yes"/>
      <point x="322.956" y="-3.45615"/>
      <point x="413.127" y="54.3521"/>
      <point x="445" y="76.67" type="curve" smooth="yes"/>
    </contour>
  </outline>
</glyph>
<glyph name="cyr_be" format="2">
  <advance width="299"/>
  <unicode hex="0431"/>
  <outline>
    <contour>
      <point x="261.305" y="200.317" type="move" smooth="yes"/>
      <point x="263.626" y="233.519"/>
      <point x="236.167" y="259.799"/>
      <point x="180.293" y="259.799" type="curve" smooth="yes"/>
      <point x="116.167" y="259.799"/>
      <point x="22.7178" y="185.964"/>
      <point x="14.6924" y="71.1963" type="curve" smooth="yes"/>
      <point x="12.0439" y="33.3184"/>
      <point x="35.2949" y="-4.67383"/>
      <point x="83.8584" y="-4.67383" type="curve" smooth="yes"/>
      <point x="263.062" y="-4.67383"/>
      <point x="256.465" y="323.402"/>
      <point x="412.963" y="502" type="curve" smooth="yes"/>
      <point x="437.801" y="530.346"/>
      <point x="483.807" y="540.662"/>
      <point x="574.827" y="540.953" type="curve"/>
    </contour>
  </outline>
</glyph>
<glyph name="cyr_ve" format="2">
  <advance width="641"/>
  <unicode hex="0432"/>
  <outline>
    <contour>
      <point x="1" y="-9" type="move" smooth="yes"/>
      <point x="1" y="-9"/>
      <point x="245" y="114"/>
      <point x="399" y="252" type="curve" smooth="yes"/>
      <point x="551.114" y="388.31"/>
      <point x="604.075" y="438.031"/>
      <point x="604.075" y="484.413" type="curve" smooth="yes"/>
      <point x="604.075" y="492.939"/>
      <point x="594.199" y="539.173"/>
      <point x="558.939" y="539.173" type="curve" smooth="yes"/>
      <point x="529.878" y="539.173"/>
      <point x="497.119" y="503.559"/>
      <point x="482" y="475" type="curve" smooth="yes"/>
      <point x="465.476" y="443.788"/>
      <point x="278.737" y="120.03"/>
      <point x="278.737" y="39.9267" type="curve" smooth="yes"/>
      <point x="278.737" y="12.0992"/>
      <point x="293.562" y="-5.43875"/>
      <point x="319" y="-9" type="curve" smooth="yes"/>
      <point x="319.997" y="-9.13961"/>
      <point x="321.031" y="-9.20842"/>
      <point x="322.099" y="-9.20842" type="curve" smooth="yes"/>
      <point x="374.574" y="-9.20842"/>
      <point x="510.279" y="156.935"/>
      <point x="524" y="252" type="curve" smooth="yes"/>
      <point x="525" y="263" type="line"/>
      <point x="540.19" y="226.017"/>
      <point x="550.875" y="171.386"/>
      <point x="640.78" y="171.386" type="curve" smooth="yes"/>
    </contour>
  </outline>
</glyph>
<glyph name="cyr_ghe" format="2">
  <advance width="315"/>
  <unicode hex="0433"/>
  <outline>
    <contour>
      <point x="0" y="171.16" type="move"/>
      <point x="39.0898" y="198.531"/>
      <point x="112.997" y="265"/>
      <point x="166" y="265" type="curve" smooth="yes"/>
      <point x="246.002" y="265"/>
      <point x="102.201" y="90"/>
      <point x="102.201" y="37.8379" type="curve" smooth="yes"/>
      <point x="102.201" y="5"/>
      <point x="122" y="-2.76758"/>
      <point x="155.342" y="-2.76758" type="curve" smooth="yes"/>
      <point x="191.241" y="-2.76758"/>
      <point x="269.095" y="44.8564"/>
      <point x="315" y="77" type="curve" smooth="yes"/>
    </contour>
  </outline>
</glyph>
<glyph name="cyr_de" format="2">
  <advance width="368"/>
  <unicode hex="0434"/>
  <outline>
    <contour>
      <point x="339" y="241" type="move" smooth="yes"/>
      <point x="339" y="241"/>
      <point x="232" y="294"/>
      <point x="107" y="182" type="curve" smooth="yes"/>
      <point x="-18" y="70"/>
      <point x="14" y="-2"/>
      <point x="25" y="-5" type="curve" smooth="yes"/>
      <point x="36" y="-8"/>
      <point x="69" y="-62"/>
      <point x="252" y="115" type="curve"/>
      <point x="252" y="115"/>
      <point x="277" y="139"/>
      <point x="295" y="162" type="curve" smooth="yes"/>
      <point x="295" y="162"/>
      <point x="339" y="232"/>
      <point x="342" y="240" type="curve"/>
      <point x="342" y="240"/>
      <point x="270" y="112"/>
      <point x="269" y="109" type="curve" smooth="yes"/>
      <point x="269" y="109"/>
      <point x="87" y="-246"/>
      <point x="66" y="-269" type="curve" smooth="yes"/>
      <point x="45" y="-292"/>
      <point x="17" y="-307"/>
      <point x="-3" y="-291" type="curve" smooth="yes"/>
      <point x="-23" y="-275"/>
      <point x="-15" y="-217"/>
      <point x="18" y="-180" type="curve" smooth="yes"/>
      <point x="51" y="-143"/>
      <point x="151" y="-37"/>
      <point x="231" y="-6" type="curve"/>
      <point x="231" y="-6"/>
      <point x="342.393" y="59.07"/>
      <point x="368" y="77" type="curve" smooth="yes"/>
    </contour>
  </outline>
</glyph>
<glyph name="cyr_ie" format="2">
  <advance width="457"/>
  <unicode hex="0435"/>
  <outline>
    <contour>
      <point x="2" y="-7" type="move" smooth="yes"/>
      <point x="2" y="-7"/>
      <point x="200" y="45"/>
      <point x="302" y="123" type="curve" smooth="yes"/>
      <point x="404" y="201"/>
      <point x="396" y="239"/>
      <point x="380" y="254" type="curve" smooth="yes"/>
      <point x="348" y="285"/>
      <point x="310" y="242"/>
      <point x="282" y="183" type="curve"/>
      <point x="282" y="183"/>
      <point x="163" y="-30"/>
      <point x="273" y="-6" type="curve"/>
      <point x="273" y="-6"/>
      <point x="364" y="13"/>
      <point x="457" y="77" type="curve" smooth="yes"/>
    </contour>
  </outline>
</glyph>
<glyph name="cyr_zhe" format="2">
  <advance width="480"/>
  <unicode hex="0436"/>
  <outline>
    <contour>
      <point x="75.0625" y="244" type="move"/>
      <point x="75.0625" y="244"/>
      <point x="111.494" y="264.48"/>
      <point x="163.494" y="264.48" type="curve" smooth="yes"/>
      <point x="215.494" y="264.48"/>
      <point x="195.888" y="170"/>
      <point x="163.552" y="108" type="curve" smooth="yes"/>
      <point x="131.217" y="46"/>
      <point x="87" y="0"/>
      <point x="49" y="0" type="curve" smooth="yes"/>
      <point x="12" y="0"/>
      <point x="6" y="20"/>
      <point x="0" y="37" type="curve" smooth="yes"/>
      <point x="0" y="37"/>
      <point x="6" y="0"/>
      <point x="49" y="0" type="curve" smooth="yes"/>
      <point x="125" y="0"/>
      <point x="302.494" y="264.48"/>
      <point x="302.494" y="264.48" type="curve"/>
      <point x="208" y="0" type="line"/>
      <point x="208" y="0"/>
      <point x="368.478" y="264.244"/>
      <point x="480.494" y="264.48" type="curve" smooth="yes"/>
      <point x="509.263" y="264.541"/>
      <point x="519.271" y="247"/>
      <point x="519.271" y="247" type="curve" smooth="yes"/>
      <point x="519.271" y="247"/>
      <point x="509.494" y="264.48"/>
      <point x="480.494" y="264.48" type="curve" smooth="yes"/>
      <point x="463.484" y="264.48"/>
      <point x="394.698" y="253.563"/>
      <point x="329.489" y="150" type="curve" smooth="yes"/>
      <point x="249.251" y="22.5684"/>
      <point x="301.809" y="0"/>
      <point x="341" y="0" type="curve" smooth="yes"/>
      <point x="370.359" y="0"/>
      <point x="421" y="34.6522"/>
      <point x="481" y="76.6641" type="curve"/>
    </contour>
  </outline>
</glyph>
<glyph name="cyr_ze" format="2">
  <advance width="420"/>
  <unicode hex="0437"/>
  <outline>
    <contour>
      <point x="8" y="-15" type="move" smooth="yes"/>
      <point x="8" y="-15"/>
      <point x="142" y="145"/>
      <point x="181" y="176" type="curve" smooth="yes"/>
      <point x="220" y="207"/>
      <point x="315" y="278"/>
      <point x="350" y="255" type="curve" smooth="yes"/>
      <point x="385" y="232"/>
      <point x="329" y="127"/>
      <point x="285" y="80" type="curve" smooth="yes"/>
      <point x="241" y="33"/>
      <point x="229" y="23"/>
      <point x="229" y="23" type="curve"/>
      <point x="229" y="23"/>
      <point x="248" y="41"/>
      <point x="255" y="45" type="curve"/>
      <point x="255" y="45"/>
      <point x="304" y="8"/>
      <point x="293" y="-41" type="curve" smooth="yes"/>
      <point x="282" y="-90"/>
      <point x="246" y="-177"/>
      <point x="221" y="-215" type="curve" smooth="yes"/>
      <point x="196" y="-253"/>
      <point x="183" y="-263"/>
      <point x="163" y="-278" type="curve" smooth="yes"/>
      <point x="143" y="-293"/>
      <point x="81" y="-305"/>
      <point x="93" y="-245" type="curve" smooth="yes"/>
      <point x="105" y="-185"/>
      <point x="183" y="-100"/>
      <point x="232" y="-62" type="curve" smooth="yes"/>
      <point x="234.65" y="-59.7447"/>
      <point x="367.173" y="40.0101"/>
      <point x="420" y="77" type="curve" smooth="yes"/>
    </contour>
  </outline>
</glyph>
<glyph name="cyr_ka" format="2">
  <advance width="478"/>
  <unicode hex="043A"/>
  <outline>
    <contour>
      <point x="371" y="264.48" type="move"/>
      <point x="166" y="161.16" type="line"/>
      <point x="188" y="168"/>
      <point x="207.706" y="172"/>
      <point x="234" y="172" type="curve" smooth="yes"/>
      <point x="272.747" y="172"/>
      <point x="287.788" y="156.701"/>
      <point x="280" y="140" type="curve" smooth="yes"/>
      <point x="236.571" y="44" type="line" smooth="yes"/>
      <point x="217.116" y="2.27751"/>
      <point x="258.584" y="0"/>
      <point x="283" y="0" type="curve" smooth="yes"/>
      <point x="330" y="0"/>
      <point x="399.361" y="21.6007"/>
      <point x="478" y="76.6641" type="curve"/>
    </contour>
    <contour>
      <point x="0" y="171.16" type="move"/>
      <point x="39.0898" y="198.531"/>
      <point x="112.997" y="265"/>
      <point x="166" y="265" type="curve" smooth="yes"/>
      <point x="185.013" y="265"/>
      <point x="191.248" y="254.604"/>
      <point x="191.248" y="241" type="curve" smooth="yes"/>
      <point x="191.248" y="213.311"/>
      <point x="173.479" y="177.055"/>
      <point x="153" y="132" type="curve" smooth="yes"/>
      <point x="93" y="0" type="line"/>
    </contour>
  </outline>
</glyph>
<glyph name="cyr_em" format="2">
  <advance width="559"/>
  <unicode hex="043C"/>
  <outline>
    <contour>
      <point x="0" y="76.6641" type="move"/>
      <point x="-0.445672" y="7"/>
      <point x="26" y="0"/>
      <point x="47.5312" y="0" type="curve" smooth="yes"/>
      <point x="116" y="0"/>
      <point x="224.565" y="188"/>
      <point x="272.236" y="264.48" type="curve"/>
      <point x="185.694" y="118.555"/>
      <point x="150" y="13.5868"/>
      <point x="230.35" y="10" type="curve"/>
      <point x="308" y="10.3732"/>
      <point x="499.236" y="264.48"/>
      <point x="499.236" y="264.48" type="curve"/>
      <point x="391.271" y="92.2148"/>
      <point x="348.426" y="-4.10742"/>
      <point x="423" y="0" type="curve" smooth="yes"/>
      <point x="456.014" y="1.81836"/>
      <point x="521.557" y="50.4453"/>
      <point x="559" y="76.6641" type="curve" smooth="yes"/>
    </contour>
  </outline>
</glyph>
<glyph name="cyr_en" format="2">
  <advance width="484"/>
  <unicode hex="043D"/>
  <outline>
    <contour>
      <point x="167" y="264.48" type="move"/>
      <point x="124.796" y="172.861"/>
      <point x="83.9936" y="86.4064"/>
      <point x="43.2044" y="0" type="curve"/>
      <point x="64" y="42"/>
      <point x="101" y="125"/>
      <point x="196" y="125" type="curve" smooth="yes"/>
      <point x="282" y="125"/>
      <point x="299" y="154"/>
      <point x="358" y="264.48" type="curve"/>
      <point x="326" y="194"/>
      <point x="188" y="0"/>
      <point x="286" y="0" type="curve" smooth="yes"/>
      <point x="351" y="0"/>
      <point x="457.427" y="58.0571"/>
      <point x="484" y="76.6639" type="curve"/>
    </contour>
  </outline>
</glyph>
<glyph name="cyr_er" format="2">
  <advance width="562"/>
  <unicode hex="0440"/>
  <outline>
    <contour>
      <point x="12" y="0" type="move"/>
      <point x="230" y="264.48" type="line"/>
      <point x="32" y="-268" type="line" smooth="yes"/>
      <point x="164" y="76.6639" type="line" smooth="yes"/>
      <point x="204" y="181"/>
      <point x="269.57" y="264.48"/>
      <point x="382" y="264.48" type="curve" smooth="yes"/>
      <point x="484.932" y="264.48"/>
      <point x="275.516" y="0"/>
      <point x="380" y="0" type="curve" smooth="yes"/>
      <point x="468.091" y="0"/>
      <point x="499.106" y="32.6249"/>
      <point x="562" y="76.6641" type="curve" smooth="yes"/>
    </contour>
  </outline>
</glyph>
<glyph name="cyr_ef" format="2">
  <advance width="507"/>
  <unicode hex="0444"/>
  <outline>
    <contour>
      <point x="228" y="141" type="move" smooth="yes"/>
      <point x="252.714" y="194"/>
      <point x="239.458" y="259.776"/>
      <point x="163.652" y="259.776" type="curve" smooth="yes"/>
      <point x="113.706" y="259.776"/>
      <point x="9.71404" y="187.132"/>
      <point x="9.71404" y="71.1962" type="curve" smooth="yes"/>
      <point x="9.71404" y="33.318"/>
      <point x="35.6219" y="-4.67364"/>
      <point x="84.1848" y="-4.67364" type="curve" smooth="yes"/>
      <point x="142.834" y="-4.67364"/>
      <point x="186.195" y="50"/>
      <point x="221.206" y="125.081" type="curve"/>
      <point x="230.028" y="144"/>
      <point x="287" y="264.48"/>
      <point x="287" y="264.48" type="curve"/>
      <point x="287" y="264.48"/>
      <point x="132" y="-68"/>
      <point x="32.6387" y="-281" type="curve"/>
      <point x="227" y="134" type="line"/>
      <point x="262.439" y="210"/>
      <point x="310" y="259.775"/>
      <point x="372.652" y="259.775" type="curve" smooth="yes"/>
      <point x="448.458" y="259.775"/>
      <point x="461.714" y="194"/>
      <point x="437" y="141" type="curve" smooth="yes"/>
      <point x="403.696" y="62.9654"/>
      <point x="356.56" y="-4.67383"/>
      <point x="293.185" y="-4.67383" type="curve" smooth="yes"/>
      <point x="211" y="-4.67383"/>
      <point x="186.566" y="46"/>
      <point x="229" y="137" type="curve"/>
      <point x="209.881" y="96"/>
      <point x="174" y="-5"/>
      <point x="293" y="-5" type="curve" smooth="yes"/>
      <point x="383.599" y="-5"/>
      <point x="444.99" y="33.2442"/>
      <point x="507" y="76.6639" type="curve"/>
    </contour>
  </outline>
</glyph>
<glyph name="cyr_ha" format="2">
  <advance width="437"/>
  <unicode hex="0445"/>
  <outline>
    <contour>
      <point x="60.1025" y="172" type="move"/>
      <point x="76.9502" y="203"/>
      <point x="134.051" y="264.03"/>
      <point x="196.695" y="264.48" type="curve" smooth="yes"/>
      <point x="259.093" y="264.929"/>
      <point x="270.255" y="236"/>
      <point x="225.489" y="140" type="curve" smooth="yes"/>
      <point x="182.123" y="47"/>
      <point x="104.902" y="0"/>
      <point x="59.3018" y="0" type="curve" smooth="yes"/>
      <point x="14.9023" y="0"/>
      <point x="7.70215" y="20"/>
      <point x="0.501953" y="37" type="curve" smooth="yes"/>
    </contour>
    <contour>
      <point x="421" y="172" type="move" smooth="yes"/>
      <point x="434.363" y="210.826"/>
      <point x="432" y="264.48"/>
      <point x="376.494" y="264.48" type="curve" smooth="yes"/>
      <point x="345" y="264.48"/>
      <point x="273.607" y="234.271"/>
      <point x="225.489" y="140" type="curve" smooth="yes"/>
      <point x="179.664" y="50.2197"/>
      <point x="197.809" y="0"/>
      <point x="237" y="0" type="curve" smooth="yes"/>
      <point x="324" y="0"/>
      <point x="377" y="34.6523"/>
      <point x="437" y="76.6641" type="curve"/>
    </contour>
  </outline>
</glyph>
<glyph name="cyr_tse" format="2">
  <advance width="724"/>
  <unicode hex="0446"/>
  <outline>
    <contour>
      <point x="1.76074" y="2.22559" type="move" smooth="yes"/>
      <point x="93.1888" y="5.09043"/>
      <point x="319.461" y="229.625"/>
      <point x="335.761" y="262.226" type="curve"/>
      <point x="324.212" y="239.85"/>
      <point x="215.41" y="91.3023"/>
      <point x="215.41" y="26.0693" type="curve" smooth="yes"/>
      <point x="215.41" y="10.2988"/>
      <point x="221.038" y="-5.67871"/>
      <point x="239.273" y="-5.67871" type="curve" smooth="yes"/>
      <point x="340.332" y="-5.67871"/>
      <point x="513.123" y="253.477"/>
      <point x="517" y="258" type="curve"/>
      <point x="517" y="258"/>
      <point x="410" y="90"/>
      <point x="410" y="36" type="curve" smooth="yes"/>
      <point x="410" y="23.5292"/>
      <point x="422.796" y="-5"/>
      <point x="463" y="-5" type="curve" smooth="yes"/>
      <point x="489" y="-5"/>
      <point x="557" y="45"/>
      <point x="603" y="77" type="curve"/>
      <point x="510" y="-126" type="line" smooth="yes"/>
      <point x="495.164" y="-157.649"/>
      <point x="467.611" y="-202.017"/>
      <point x="434.114" y="-202.017" type="curve" smooth="yes"/>
      <point x="433.743" y="-202.017"/>
      <point x="433.372" y="-202.011"/>
      <point x="433" y="-202" type="curve" smooth="yes"/>
      <point x="415.332" y="-202"/>
      <point x="396.071" y="-186.472"/>
      <point x="396.071" y="-166.972" type="curve" smooth="yes"/>
      <point x="396.071" y="-155.568"/>
      <point x="402.657" y="-142.808"/>
      <point x="420" y="-131" type="curve" smooth="yes"/>
      <point x="541" y="-49"/>
      <point x="665" y="36"/>
      <point x="724" y="77" type="curve"/>
    </contour>
  </outline>
</glyph>
<glyph name="cyr_che" format="2">
  <advance width="341"/>
  <unicode hex="0447"/>
  <outline>
    <contour>
      <point x="19.876" y="171.16" type="move"/>
      <point x="63" y="264.48" type="line"/>
      <point x="48.0381" y="231"/>
      <point x="69.9981" y="191"/>
      <point x="122" y="191" type="curve" smooth="yes"/>
      <point x="169.095" y="191"/>
      <point x="198" y="210"/>
      <point x="225" y="255" type="curve" smooth="yes"/>
      <point x="225" y="255"/>
      <point x="118.201" y="86.5527"/>
      <point x="118.201" y="32.8379" type="curve" smooth="yes"/>
      <point x="118.201" y="7"/>
      <point x="132.85" y="-7.76758"/>
      <point x="171.342" y="-7.76758" type="curve" smooth="yes"/>
      <point x="215" y="-7.76758"/>
      <point x="295.095" y="44.8564"/>
      <point x="341" y="77" type="curve" smooth="yes"/>
    </contour>
  </outline>
</glyph>
<glyph name="cyr_sha" format="2">
  <advance width="778"/>
  <unicode hex="0448"/>
  <outline>
    <contour>
      <point x="9" y="-2" type="move" smooth="yes"/>
      <point x="9" y="-2"/>
      <point x="73" y="0"/>
      <point x="199" y="112" type="curve" smooth="yes"/>
      <point x="325" y="224"/>
      <point x="340" y="252"/>
      <point x="343" y="258" type="curve"/>
      <point x="327" y="227"/>
      <point x="247" y="124"/>
      <point x="225" y="40" type="curve" smooth="yes"/>
      <point x="217" y="10"/>
      <point x="224" y="-57"/>
      <point x="334" y="43" type="curve"/>
      <point x="334" y="43"/>
      <point x="446" y="158"/>
      <point x="520" y="258" type="curve"/>
      <point x="505" y="234"/>
      <point x="360" y="56"/>
      <point x="415" y="2" type="curve" smooth="yes"/>
      <point x="450" y="-33"/>
      <point x="537" y="61"/>
      <point x="567" y="96" type="curve" smooth="yes"/>
      <point x="597" y="131"/>
      <point x="692" y="258"/>
      <point x="692" y="258" type="curve"/>
      <point x="692" y="258"/>
      <point x="585" y="90"/>
      <point x="585" y="36" type="curve" smooth="yes"/>
      <point x="585" y="32"/>
      <point x="586" y="29"/>
      <point x="587" y="26" type="curve"/>
      <point x="587" y="26"/>
      <point x="596" y="-5"/>
      <point x="638" y="-5" type="curve" smooth="yes"/>
      <point x="664" y="-5"/>
      <point x="732" y="45"/>
      <point x="778" y="77" type="curve" smooth="yes"/>
    </contour>
  </outline>
</glyph>
<glyph name="cyr_hard_sign" format="2">
  <advance width="367"/>
  <unicode hex="044A"/>
  <outline>
    <contour>
      <point x="25.3555" y="171.16" type="move"/>
      <point x="37.252" y="193.494"/>
      <point x="52.4375" y="222.277"/>
      <point x="74" y="264.48" type="curve"/>
      <point x="42" y="197"/>
      <point x="65.0898" y="171.16"/>
      <point x="123" y="171.16" type="curve" smooth="yes"/>
      <point x="176" y="171.16"/>
      <point x="204.4" y="206"/>
      <point x="256" y="264.48" type="curve"/>
      <point x="256" y="264.48"/>
      <point x="163.6" y="167"/>
      <point x="160.604" y="94" type="curve" smooth="yes"/>
      <point x="158.8" y="48"/>
      <point x="176.8" y="0"/>
      <point x="232" y="0" type="curve" smooth="yes"/>
      <point x="295" y="0"/>
      <point x="338.013" y="39"/>
      <point x="354.8" y="75" type="curve" smooth="yes"/>
      <point x="370.466" y="108.596"/>
      <point x="355.6" y="171.16"/>
      <point x="288.4" y="171.16" type="curve" smooth="yes"/>
      <point x="224" y="171.16"/>
      <point x="180" y="146"/>
      <point x="164" y="113" type="curve" smooth="yes"/>
    </contour>
  </outline>
</glyph>
<glyph name="cyr_yeru" format="2">
  <advance width="463"/>
  <unicode hex="044B"/>
  <outline>
    <contour>
      <point x="0" y="171.16" type="move" smooth="yes"/>
      <point x="53" y="171.16"/>
      <point x="81.4004" y="206"/>
      <point x="133" y="264.48" type="curve"/>
      <point x="133" y="264.48"/>
      <point x="40.5996" y="167"/>
      <point x="37.6045" y="94" type="curve" smooth="yes"/>
      <point x="35.7998" y="48"/>
      <point x="53.7998" y="0"/>
      <point x="109" y="0" type="curve" smooth="yes"/>
      <point x="187.797" y="0"/>
      <point x="226.619" y="30"/>
      <point x="251.8" y="75" type="curve" smooth="yes"/>
      <point x="269.901" y="107.349"/>
      <point x="232.6" y="171.16"/>
      <point x="165.4" y="171.16" type="curve" smooth="yes"/>
      <point x="140" y="171.16"/>
      <point x="115.343" y="162.895"/>
      <point x="104.2" y="139" type="curve" smooth="yes"/>
      <point x="93.4749" y="116"/>
      <point x="128" y="105.48"/>
      <point x="152.4" y="105.48" type="curve" smooth="yes"/>
      <point x="290" y="105.48"/>
      <point x="436.869" y="236.32"/>
      <point x="450" y="264.48" type="curve"/>
      <point x="327.137" y="0" type="line"/>
      <point x="378" y="20"/>
      <point x="422.796" y="48.5127"/>
      <point x="463" y="76.6641" type="curve"/>
    </contour>
  </outline>
</glyph>
<glyph name="cyr_soft_sign" format="2">
  <advance width="236"/>
  <unicode hex="044C"/>
  <outline>
    <contour>
      <point x="120" y="264.48" type="move"/>
      <point x="120" y="264.48"/>
      <point x="27.5996" y="167"/>
      <point x="24.6045" y="94" type="curve" smooth="yes"/>
      <point x="22.7998" y="48"/>
      <point x="40.7998" y="0"/>
      <point x="96" y="0" type="curve" smooth="yes"/>
      <point x="159" y="0"/>
      <point x="202.013" y="39"/>
      <point x="218.8" y="75" type="curve" smooth="yes"/>
      <point x="234.466" y="108.596"/>
      <point x="219.6" y="171.16"/>
      <point x="152.4" y="171.16" type="curve" smooth="yes"/>
      <point x="88" y="171.16"/>
      <point x="44" y="146"/>
      <point x="28" y="113" type="curve" smooth="yes"/>
    </contour>
  </outline>
</glyph>
<glyph name="cyr_e" format="2">
  <advance width="271"/>
  <unicode hex="044D"/>
  <outline>
    <contour>
      <point x="156.81" y="138" type="move"/>
      <point x="295.81" y="138" type="line"/>
    </contour>
    <contour>
      <point x="104.573" y="214" type="move"/>
      <point x="126.308" y="229"/>
      <point x="181.141" y="264.48"/>
      <point x="225.175" y="264.48" type="curve" smooth="yes"/>
      <point x="300.053" y="264.48"/>
      <point x="310.631" y="220"/>
      <point x="297.784" y="140" type="curve" smooth="yes"/>
      <point x="282.275" y="43.415"/>
      <point x="195.883" y="0"/>
      <point x="141.162" y="0" type="curve" smooth="yes"/>
      <point x="87.8828" y="0"/>
      <point x="73.1279" y="20"/>
      <point x="59.29" y="37" type="curve" smooth="yes"/>
    </contour>
  </outline>
</glyph>
<glyph name="cyr_yu" format="2">
  <advance width="425"/>
  <unicode hex="044E"/>
  <outline>
    <contour>
      <point x="26" y="171.16" type="move"/>
      <point x="161" y="264.48" type="line"/>
      <point x="34.873" y="-6" type="line"/>
      <point x="34.873" y="-6"/>
      <point x="76.0032" y="96.4309"/>
      <point x="95" y="110" type="curve" smooth="yes"/>
      <point x="158" y="155"/>
      <point x="219.035" y="148"/>
      <point x="219.035" y="148" type="curve"/>
      <point x="250.308" y="218.295"/>
      <point x="318.91" y="259.775"/>
      <point x="356.652" y="259.775" type="curve" smooth="yes"/>
      <point x="418.578" y="259.775"/>
      <point x="421.61" y="213.312"/>
      <point x="421.61" y="182.516" type="curve" smooth="yes"/>
      <point x="421.61" y="87.5449"/>
      <point x="348.372" y="-4.67383"/>
      <point x="277.185" y="-4.67383" type="curve" smooth="yes"/>
      <point x="228.622" y="-4.67383"/>
      <point x="202.714" y="33.3184"/>
      <point x="202.714" y="71.1963" type="curve" smooth="yes"/>
      <point x="202.714" y="99.5251"/>
      <point x="208.923" y="125.27"/>
      <point x="219.035" y="148" type="curve"/>
    </contour>
  </outline>
</glyph>
<glyph name="cyr_ya" format="2">
  <advance width="408"/>
  <unicode hex="044F"/>
  <outline>
    <contour>
      <point x="0" y="49.8311" type="move"/>
      <point x="-0.0311668" y="44.9459"/>
      <point x="1.3636" y="0.49644"/>
      <point x="48.5312" y="0" type="curve" smooth="yes"/>
      <point x="122.241" y="-0.775797"/>
      <point x="255.528" y="140.028"/>
      <point x="290.274" y="198" type="curve" smooth="yes"/>
      <point x="311.853" y="234"/>
      <point x="302.152" y="265.2"/>
      <point x="261.652" y="265.2" type="curve" smooth="yes"/>
      <point x="206.272" y="265.2"/>
      <point x="135.588" y="230"/>
      <point x="103.086" y="180" type="curve" smooth="yes"/>
      <point x="71.5537" y="131.49"/>
      <point x="100.742" y="90"/>
      <point x="151.143" y="90" type="curve" smooth="yes"/>
      <point x="242.343" y="90"/>
      <point x="293.473" y="201"/>
      <point x="336.187" y="263.9" type="curve"/>
      <point x="336.187" y="263.9"/>
      <point x="147.3" y="0"/>
      <point x="229.98" y="0" type="curve" smooth="yes"/>
      <point x="290.4" y="0"/>
      <point x="372.701" y="56.0674"/>
      <point x="408" y="76.6641" type="curve"/>
    </contour>
  </outline>
</glyph>
<glyph name="endash" format="2">
  <advance width="462"/>
  <unicode hex="2013"/>
  <outline>
    <contour>
      <point x="75" y="142" type="move"/>
      <point x="447" y="142" type="line"/>
    </contour>
  </outline>
</glyph>
<glyph name="emdash" format="2">
  <advance width="923"/>
  <unicode hex="2014"/>
  <unicode hex="2015"/>
  <outline>
    <contour>
      <point x="75" y="142" type="move"/>
      <point x="906" y="142" type="line"/>
    </contour>
  </outline>
</glyph>
<glyph name="quoteleft.0len" format="2">
  <advance width="0"/>
  <unicode hex="2018"/>
  <outline>
    <contour>
      <point x="177" y="483" type="move"/>
      <point x="177" y="483"/>
      <point x="126.020294" y="443"/>
      <point x="113.2859" y="413" type="curve"/>
      <point x="100.5515" y="383"/>
      <point x="115.14819" y="342" type="curve"/>
    </contour>
  </outline>
</glyph>
<glyph name="quoteleft" format="2">
  <advance width="134"/>
  <unicode hex="2018"/>
  <outline>
    <contour>
      <point x="113.926" y="479" type="move"/>
      <point x="113.926" y="479"/>
      <point x="62.9463" y="439"/>
      <point x="50.2119" y="409" type="curve" smooth="yes"/>
      <point x="37.4775" y="379"/>
      <point x="52.0742" y="338"/>
      <point x="52.0742" y="338" type="curve"/>
    </contour>
  </outline>
</glyph>
<glyph name="quoteright" format="2">
  <advance width="134"/>
  <unicode hex="2019"/>
  <outline>
    <contour>
      <point x="88" y="479" type="move"/>
      <point x="88" y="479"/>
      <point x="105.021" y="439"/>
      <point x="92.2861" y="409" type="curve" smooth="yes"/>
      <point x="79.5518" y="379"/>
      <point x="30.1484" y="338"/>
      <point x="30.1484" y="338" type="curve"/>
    </contour>
  </outline>
</glyph>
<glyph name="quotedblleft" format="2">
  <advance width="217"/>
  <unicode hex="201C"/>
  <outline>
    <contour>
      <point x="96.9258" y="479" type="move"/>
      <point x="96.9258" y="479"/>
      <point x="45.9463" y="439"/>
      <point x="33.2119" y="409" type="curve" smooth="yes"/>
      <point x="20.4775" y="379"/>
      <point x="35.0742" y="338"/>
      <point x="35.0742" y="338" type="curve"/>
    </contour>
    <contour>
      <point x="196.926" y="479" type="move"/>
      <point x="196.926" y="479"/>
      <point x="145.946" y="439"/>
      <point x="133.212" y="409" type="curve" smooth="yes"/>
      <point x="120.478" y="379"/>
      <point x="135.074" y="338"/>
      <point x="135.074" y="338" type="curve"/>
    </contour>
  </outline>
</glyph>
